<svg width="101" height="104" viewBox="0 0 101 104" fill="none" xmlns="http://www.w3.org/2000/svg">
<path d="M70.5896 51.8504C70.2319 48.0242 68.7477 44.3901 66.3247 41.4074C63.9017 38.4247 60.6486 36.2274 56.9769 35.0934C53.3052 33.9594 49.3797 33.9396 45.6967 35.0365C42.0137 36.1333 38.7386 38.2976 36.2856 41.2557C33.8326 44.2138 32.3118 47.8328 31.9155 51.6552C31.5192 55.4776 32.2651 59.3316 34.059 62.7301C35.853 66.1285 38.6143 68.9187 41.9939 70.7478C45.3735 72.577 49.2196 73.363 53.0459 73.0064C55.5876 72.7709 58.0579 72.0366 60.3156 70.8456C62.5733 69.6546 64.5741 68.0302 66.2035 66.0653C67.8329 64.1004 69.059 61.8336 69.8116 59.3945C70.5642 56.9554 70.8286 54.3918 70.5896 51.8504V51.8504ZM52.8328 70.6422C49.4713 70.957 46.0921 70.2677 43.1224 68.6616C40.1528 67.0554 37.7262 64.6046 36.1497 61.6191C34.5732 58.6337 33.9176 55.2477 34.2658 51.8895C34.614 48.5314 35.9503 45.3519 38.1058 42.7534C40.2613 40.1549 43.1391 38.2541 46.3751 37.2914C49.6111 36.3287 53.0599 36.3474 56.2852 37.3451C59.5106 38.3428 62.3676 40.2747 64.4948 42.8964C66.622 45.5182 67.9238 48.7119 68.2356 52.0736C68.6533 56.5781 67.2656 61.0641 64.3774 64.546C61.4892 68.0278 57.3369 70.2205 52.8328 70.6422ZM70.5896 51.8504C70.2319 48.0242 68.7477 44.3901 66.3247 41.4074C63.9017 38.4247 60.6486 36.2274 56.9769 35.0934C53.3052 33.9594 49.3797 33.9396 45.6967 35.0365C42.0137 36.1333 38.7386 38.2976 36.2856 41.2557C33.8326 44.2138 32.3118 47.8328 31.9155 51.6552C31.5192 55.4776 32.2651 59.3316 34.059 62.7301C35.853 66.1285 38.6143 68.9187 41.9939 70.7478C45.3735 72.577 49.2196 73.363 53.0459 73.0064C55.5876 72.7709 58.0579 72.0366 60.3156 70.8456C62.5733 69.6546 64.5741 68.0302 66.2035 66.0653C67.8329 64.1004 69.059 61.8336 69.8116 59.3945C70.5642 56.9554 70.8286 54.3918 70.5896 51.8504V51.8504ZM52.8328 70.6422C49.4713 70.957 46.0921 70.2677 43.1224 68.6616C40.1528 67.0554 37.7262 64.6046 36.1497 61.6191C34.5732 58.6337 33.9176 55.2477 34.2658 51.8895C34.614 48.5314 35.9503 45.3519 38.1058 42.7534C40.2613 40.1549 43.1391 38.2541 46.3751 37.2914C49.6111 36.3287 53.0599 36.3474 56.2852 37.3451C59.5106 38.3428 62.3676 40.2747 64.4948 42.8964C66.622 45.5182 67.9238 48.7119 68.2356 52.0736C68.6533 56.5781 67.2656 61.0641 64.3774 64.546C61.4892 68.0278 57.3369 70.2205 52.8328 70.6422ZM70.5896 51.8504C70.2319 48.0242 68.7477 44.3901 66.3247 41.4074C63.9017 38.4247 60.6486 36.2274 56.9769 35.0934C53.3052 33.9594 49.3797 33.9396 45.6967 35.0365C42.0137 36.1333 38.7386 38.2976 36.2856 41.2557C33.8326 44.2138 32.3118 47.8328 31.9155 51.6552C31.5192 55.4776 32.2651 59.3316 34.059 62.7301C35.853 66.1285 38.6143 68.9187 41.9939 70.7478C45.3735 72.577 49.2196 73.363 53.0459 73.0064C55.5876 72.7709 58.0579 72.0366 60.3156 70.8456C62.5733 69.6546 64.5741 68.0302 66.2035 66.0653C67.8329 64.1004 69.059 61.8336 69.8116 59.3945C70.5642 56.9554 70.8286 54.3918 70.5896 51.8504V51.8504ZM52.8328 70.6422C49.4713 70.957 46.0921 70.2677 43.1224 68.6616C40.1528 67.0554 37.7262 64.6046 36.1497 61.6191C34.5732 58.6337 33.9176 55.2477 34.2658 51.8895C34.614 48.5314 35.9503 45.3519 38.1058 42.7534C40.2613 40.1549 43.1391 38.2541 46.3751 37.2914C49.6111 36.3287 53.0599 36.3474 56.2852 37.3451C59.5106 38.3428 62.3676 40.2747 64.4948 42.8964C66.622 45.5182 67.9238 48.7119 68.2356 52.0736C68.6533 56.5781 67.2656 61.0641 64.3774 64.546C61.4892 68.0278 57.3369 70.2205 52.8328 70.6422ZM92.0297 49.8616C91.2783 41.7949 88.1517 34.1321 83.0453 27.8423C77.9388 21.5525 71.0818 16.9182 63.3415 14.5254C55.6012 12.1327 47.3252 12.089 39.5601 14.3999C31.7949 16.7107 24.8894 21.2723 19.7168 27.5078C14.5442 33.7434 11.3368 41.3727 10.5002 49.4311C9.66368 57.4895 11.2355 65.615 15.017 72.7801C18.7985 79.9451 24.6197 85.8279 31.7446 89.6845C38.8695 93.5411 46.978 95.1983 55.0448 94.4466C65.8605 93.4359 75.8321 88.1716 82.7676 79.811C89.703 71.4504 93.0346 60.6779 92.0297 49.8616ZM53.33 76.0099C48.9053 76.4206 44.4583 75.5099 40.5513 73.3929C36.6443 71.276 33.4529 68.0479 31.3808 64.1169C29.3086 60.186 28.4488 55.7288 28.91 51.3092C29.3713 46.8895 31.1329 42.706 33.9721 39.2876C36.8112 35.8693 40.6004 33.3697 44.8603 32.1051C49.1202 30.8404 53.6595 30.8676 57.9039 32.183C62.1484 33.4985 65.9074 36.0432 68.7055 39.4952C71.5037 42.9473 73.2151 47.1516 73.6235 51.5764C74.1654 57.5061 72.3332 63.4087 68.5287 67.9892C64.7243 72.5697 59.2584 75.4542 53.33 76.0099ZM49.4539 34.3066C45.6238 34.6585 41.9841 36.1386 38.9953 38.5596C36.0066 40.9806 33.8031 44.2337 32.6638 47.9074C31.5244 51.581 31.5004 55.5101 32.5946 59.1974C33.6889 62.8848 35.8524 66.1646 38.8112 68.6221C41.7701 71.0795 45.3914 72.604 49.217 73.0028C53.0425 73.4015 56.9004 72.6566 60.3024 70.8622C63.7045 69.0678 66.4978 66.3046 68.329 62.9222C70.1602 59.5398 70.9469 55.6902 70.5896 51.8606C70.1138 46.7304 67.6199 41.9992 63.6564 38.7074C59.6929 35.4155 54.5843 33.8326 49.4539 34.3066V34.3066ZM52.8328 70.6524C49.4713 70.9671 46.0921 70.2778 43.1224 68.6717C40.1528 67.0656 37.7262 64.6147 36.1497 61.6293C34.5732 58.6438 33.9176 55.2578 34.2658 51.8997C34.614 48.5415 35.9503 45.3621 38.1058 42.7636C40.2613 40.1651 43.1391 38.2642 46.3751 37.3015C49.6111 36.3388 53.0599 36.3575 56.2852 37.3552C59.5106 38.3529 62.3676 40.2849 64.4948 42.9066C66.622 45.5283 67.9238 48.7221 68.2356 52.0838C68.6505 56.5866 67.2615 61.07 64.3736 64.5496C61.4857 68.0291 57.335 70.2204 52.8328 70.6422V70.6524ZM70.5896 51.8606C70.2319 48.0344 68.7477 44.4002 66.3247 41.4175C63.9017 38.4348 60.6486 36.2376 56.9769 35.1036C53.3052 33.9696 49.3797 33.9497 45.6967 35.0466C42.0137 36.1435 38.7386 38.3078 36.2856 41.2659C33.8326 44.224 32.3118 47.843 31.9155 51.6653C31.5192 55.4877 32.2651 59.3418 34.059 62.7402C35.853 66.1386 38.6143 68.9288 41.9939 70.758C45.3735 72.5871 49.2196 73.3731 53.0459 73.0166C55.5885 72.7811 58.0598 72.0465 60.3182 70.8548C62.5766 69.6632 64.5778 68.0378 66.2073 66.0718C67.8369 64.1059 69.0627 61.8378 69.8147 59.3975C70.5666 56.9572 70.83 54.3926 70.5896 51.8504V51.8606ZM52.8328 70.6524C49.4713 70.9671 46.0921 70.2778 43.1224 68.6717C40.1528 67.0656 37.7262 64.6147 36.1497 61.6293C34.5732 58.6438 33.9176 55.2578 34.2658 51.8997C34.614 48.5415 35.9503 45.3621 38.1058 42.7636C40.2613 40.1651 43.1391 38.2642 46.3751 37.3015C49.6111 36.3388 53.0599 36.3575 56.2852 37.3552C59.5106 38.3529 62.3676 40.2849 64.4948 42.9066C66.622 45.5283 67.9238 48.7221 68.2356 52.0838C68.6505 56.5866 67.2615 61.07 64.3736 64.5496C61.4857 68.0291 57.335 70.2204 52.8328 70.6422V70.6524ZM70.5896 51.8606C70.2319 48.0344 68.7477 44.4002 66.3247 41.4175C63.9017 38.4348 60.6486 36.2376 56.9769 35.1036C53.3052 33.9696 49.3797 33.9497 45.6967 35.0466C42.0137 36.1435 38.7386 38.3078 36.2856 41.2659C33.8326 44.224 32.3118 47.843 31.9155 51.6653C31.5192 55.4877 32.2651 59.3418 34.059 62.7402C35.853 66.1386 38.6143 68.9288 41.9939 70.758C45.3735 72.5871 49.2196 73.3731 53.0459 73.0166C55.5885 72.7811 58.0598 72.0465 60.3182 70.8548C62.5766 69.6632 64.5778 68.0378 66.2073 66.0718C67.8369 64.1059 69.0627 61.8378 69.8147 59.3975C70.5666 56.9572 70.83 54.3926 70.5896 51.8504V51.8606ZM52.8328 70.6524C49.4713 70.9671 46.0921 70.2778 43.1224 68.6717C40.1528 67.0656 37.7262 64.6147 36.1497 61.6293C34.5732 58.6438 33.9176 55.2578 34.2658 51.8997C34.614 48.5415 35.9503 45.3621 38.1058 42.7636C40.2613 40.1651 43.1391 38.2642 46.3751 37.3015C49.6111 36.3388 53.0599 36.3575 56.2852 37.3552C59.5106 38.3529 62.3676 40.2849 64.4948 42.9066C66.622 45.5283 67.9238 48.7221 68.2356 52.0838C68.6505 56.5866 67.2615 61.07 64.3736 64.5496C61.4857 68.0291 57.335 70.2204 52.8328 70.6422V70.6524Z" fill="#20ACE9"/>
<path d="M55.4528 13.8202L39.7659 15.2813L39.6035 4.09957L53.5553 2.80078L55.4528 13.8202Z" fill="#20ACE9"/>
<path d="M26.0874 21.886L16.032 34.0012L8.00586 26.2186L16.9553 15.4326L26.0874 21.886Z" fill="#20ACE9"/>
<path d="M11.0295 48.3496L12.4805 64.0264L1.29879 64.1989L0 50.2471L11.0295 48.3496Z" fill="#20ACE9"/>
<path d="M19.0862 77.7139L31.2014 87.7693L23.4087 95.7954L12.6328 86.846L19.0862 77.7139Z" fill="#20ACE9"/>
<path d="M45.5508 92.7718L61.2377 91.3208L61.4001 102.503L47.4483 103.801L45.5508 92.7718Z" fill="#20ACE9"/>
<path d="M74.9141 84.7152L84.9695 72.5898L92.9956 80.3826L84.0462 91.1686L74.9141 84.7152Z" fill="#20ACE9"/>
<path d="M89.9705 58.2526L88.5195 42.5657L99.7013 42.4033L101 56.3551L89.9705 58.2526Z" fill="#20ACE9"/>
<path d="M81.9144 28.8877L69.7891 18.8323L77.5818 10.8062L88.3678 19.7556L81.9144 28.8877Z" fill="#20ACE9"/>
<path d="M48.177 1.69451L47.7812 0.761008C48.4103 0.497192 49.0395 0.243523 49.6888 0L50.0541 0.953791C49.4149 1.18717 48.7959 1.44084 48.177 1.69451Z" fill="#263238"/>
</svg>
