<svg width="46" height="45" viewBox="0 0 46 45" fill="none" xmlns="http://www.w3.org/2000/svg">
<path d="M10.2584 37.2792C10.7318 36.9948 11.2737 36.8445 11.8261 36.8445C12.3784 36.8445 12.9203 36.9948 13.3937 37.2792L14.1953 37.7359L15.0274 38.1519C15.5382 38.383 15.9753 38.7507 16.2904 39.2144C16.6055 39.6781 16.7864 40.2199 16.8132 40.7799L16.9248 44.6357L29.4967 44.2399L29.3749 40.3842C29.3679 39.8314 29.5115 39.2872 29.7904 38.8099C30.0693 38.3326 30.4728 37.9403 30.9578 37.675C31.5069 37.3661 32.0388 37.0274 32.5508 36.6603C33.0034 36.3484 33.5319 36.1649 34.0804 36.1291C34.6288 36.0934 35.1767 36.2068 35.6659 36.4574L39.0651 38.2838L45.0111 27.1933L41.6119 25.3771C41.1264 25.1204 40.7215 24.7342 40.4421 24.2613C40.1627 23.7885 40.0197 23.2475 40.029 22.6983C40.0408 22.0718 40.0171 21.445 39.958 20.8212C39.9129 20.2706 40.0184 19.7182 40.2633 19.2231C40.5082 18.728 40.8832 18.3088 41.3481 18.0105L44.6255 15.9812L37.9997 5.29662L34.702 7.32597C34.232 7.61497 33.6911 7.76796 33.1394 7.76796C32.5876 7.76796 32.0467 7.61497 31.5768 7.32597L30.7752 6.86936L30.004 6.46349C29.5033 6.23048 29.0754 5.86564 28.7662 5.40806C28.457 4.95048 28.2781 4.4174 28.2486 3.86592L28.1269 0L15.5144 0.375426L15.6362 4.22105C15.6432 4.77379 15.4996 5.31802 15.2207 5.79532C14.9418 6.27261 14.5382 6.66496 14.0533 6.93025C13.5042 7.23932 12.9724 7.57805 12.4602 7.94493C12.0066 8.25874 11.4762 8.44338 10.9257 8.47913C10.3753 8.51487 9.82546 8.40037 9.33503 8.14786L5.94601 6.32144L0 17.4119L3.38902 19.2281C3.87021 19.4961 4.26968 19.8896 4.54486 20.3667C4.82004 20.8438 4.96062 21.3866 4.95163 21.9373C4.95163 22.5664 4.97192 23.1955 5.0125 23.8246C5.05196 24.3702 4.94369 24.9163 4.69907 25.4055C4.45445 25.8948 4.08252 26.3091 3.6224 26.6048L0.355137 28.6342L6.98098 39.3188L10.2584 37.2792ZM13.4039 17.4322C14.3665 15.6378 15.8394 14.169 17.6365 13.2115C19.4336 12.254 21.4742 11.8507 23.5004 12.0526C25.5266 12.2545 27.4475 13.0524 29.0204 14.3457C30.5932 15.6389 31.7474 17.3694 32.3371 19.3184C32.9268 21.2674 32.9254 23.3475 32.3333 25.2958C31.7411 27.244 30.5848 28.973 29.0103 30.2643C27.4358 31.5555 25.5139 32.3511 23.4874 32.5504C21.4609 32.7497 19.4208 32.3438 17.6249 31.384C15.2155 30.0932 13.4173 27.8983 12.6257 25.282C11.8342 22.6657 12.1141 19.8421 13.4039 17.4322V17.4322Z" fill="#EBEBEB"/>
</svg>
