<svg width="134" height="134" viewBox="0 0 134 134" fill="none" xmlns="http://www.w3.org/2000/svg">
<path d="M67.5163 12.5815C56.7271 12.5795 46.1796 15.7771 37.2077 21.7698C28.2358 27.7625 21.2425 36.2812 17.1123 46.2486C12.982 56.2159 11.9003 67.1842 14.004 77.7664C16.1076 88.3485 21.3021 98.0692 28.9305 105.699C36.559 113.329 46.2786 118.525 56.8604 120.631C67.4422 122.736 78.4107 121.657 88.3788 117.528C98.3469 113.4 106.867 106.408 112.861 97.4375C118.856 88.4667 122.055 77.9198 122.055 67.1306C122.055 52.6651 116.309 38.7918 106.082 28.5622C95.854 18.3325 81.9818 12.5842 67.5163 12.5815V12.5815ZM67.5163 92.599C62.4762 92.601 57.5488 91.1082 53.3573 88.3093C49.1658 85.5105 45.8986 81.5314 43.969 76.8754C42.0393 72.2194 41.5339 67.0956 42.5167 62.1523C43.4994 57.209 45.9262 52.6683 49.4901 49.1044C53.0539 45.5406 57.5947 43.1138 62.538 42.131C67.4813 41.1482 72.605 41.6536 77.261 43.5833C81.917 45.513 85.8962 48.7802 88.695 52.9717C91.4938 57.1631 92.9867 62.0906 92.9847 67.1306C92.982 73.8844 90.2978 80.3608 85.5222 85.1365C80.7465 89.9122 74.2701 92.5963 67.5163 92.599V92.599Z" fill="#455A64"/>
<path d="M78.0007 14.8447H57.0273L58.1942 0H76.844L78.0007 14.8447Z" fill="#455A64"/>
<path d="M38.083 21.9168L23.2484 36.7413L13.5684 25.4276L26.7592 12.2368L38.083 21.9168Z" fill="#455A64"/>
<path d="M14.8447 55.1372V76.1106L0 74.9539V56.2939L14.8447 55.1372Z" fill="#455A64"/>
<path d="M21.9183 95.0645L36.7428 109.889L25.4291 119.569L12.2383 106.378L21.9183 95.0645Z" fill="#455A64"/>
<path d="M55.1387 118.291H76.1121L74.9553 133.135H56.2954L55.1387 118.291Z" fill="#455A64"/>
<path d="M95.0645 111.229L109.889 96.394L119.569 107.718L106.378 120.909L95.0645 111.229Z" fill="#455A64"/>
<path d="M118.291 77.9978V57.0244L133.136 58.1811V76.8411L118.291 77.9978Z" fill="#455A64"/>
<path d="M111.231 38.0805L96.3965 23.2459L107.72 13.5659L120.911 26.7567L111.231 38.0805Z" fill="#455A64"/>
</svg>
