<svg width="31" height="32" viewBox="0 0 31 32" fill="none" xmlns="http://www.w3.org/2000/svg">
<path d="M12.9168 28.9386C13.1163 28.6061 13.4039 28.3354 13.7477 28.1563C14.0916 27.9772 14.4783 27.8968 14.865 27.9239H16.1638C16.5491 27.8975 16.9341 27.9784 17.2762 28.1575C17.6183 28.3366 17.9041 28.607 18.1018 28.9386L19.4108 31.2724L27.0411 26.8687L25.6916 24.5349C25.4999 24.1964 25.406 23.8113 25.4203 23.4225C25.4347 23.0337 25.5567 22.6565 25.7728 22.3331C26.0109 21.967 26.2278 21.5876 26.4222 21.1966C26.5973 20.851 26.8641 20.5603 27.1934 20.3563C27.5227 20.1522 27.9018 20.0428 28.2892 20.0399H30.9882V11.2325H28.3298C27.9511 11.2205 27.5826 11.1067 27.263 10.9032C26.9435 10.6997 26.6846 10.4138 26.5135 10.0758C26.3191 9.68477 26.1023 9.30533 25.8641 8.93932C25.6478 8.61782 25.5256 8.24228 25.5112 7.85503C25.4969 7.46779 25.591 7.08424 25.7829 6.74761L27.1325 4.40371L19.4108 0L18.0511 2.35406C17.8541 2.68409 17.5699 2.95341 17.2298 3.13242C16.8897 3.31143 16.5068 3.39321 16.1232 3.36874H14.865C14.4783 3.39588 14.0916 3.31546 13.7477 3.13637C13.4039 2.95728 13.1163 2.68651 12.9168 2.35406L11.5673 0.0101567L3.93695 4.41385L5.28647 6.74761C5.47767 7.08403 5.57221 7.46672 5.55968 7.85347C5.54715 8.24022 5.42802 8.61599 5.21544 8.93932C4.97395 9.30865 4.75374 9.69145 4.5559 10.0859C4.38084 10.4315 4.11403 10.7222 3.78471 10.9263C3.4554 11.1303 3.07628 11.2397 2.68889 11.2426H0V20.05H2.68889C3.07628 20.0529 3.4554 20.1624 3.78471 20.3664C4.11403 20.5704 4.38084 20.8612 4.5559 21.2068C4.75374 21.6012 4.97395 21.984 5.21544 22.3533C5.42802 22.6767 5.54715 23.0524 5.55968 23.4392C5.57221 23.8259 5.47767 24.2086 5.28647 24.545L3.93695 26.8788L11.5673 31.2825L12.9168 28.9386ZM8.24933 15.6362C8.24933 14.2098 8.67219 12.8153 9.46447 11.6292C10.2567 10.443 11.3829 9.51829 12.7005 8.97196C14.0182 8.42562 15.4682 8.28217 16.8674 8.55971C18.2666 8.83726 19.5521 9.52336 20.5614 10.5313C21.5708 11.5392 22.2587 12.8238 22.5382 14.2225C22.8177 15.6213 22.6763 17.0715 22.1318 18.39C21.5873 19.7084 20.6642 20.8358 19.4791 21.6298C18.2941 22.4237 16.9003 22.8485 15.4738 22.8505C13.5595 22.8505 11.7235 22.0908 10.3689 20.7381C9.01435 19.3855 8.25202 17.5505 8.24933 15.6362V15.6362Z" fill="#EBEBEB"/>
</svg>
