<svg width="209" height="209" viewBox="0 0 209 209" fill="none" xmlns="http://www.w3.org/2000/svg">
<path d="M104.023 53.0269C93.9396 53.0209 84.0807 56.0056 75.6935 61.6034C67.3063 67.2012 60.7677 75.1607 56.9046 84.475C53.0416 93.7894 52.0277 104.04 53.9913 113.931C55.9548 123.822 60.8075 132.908 67.9356 140.04C75.0637 147.172 84.147 152.031 94.0365 154C103.926 155.969 114.177 154.962 123.494 151.104C132.811 147.247 140.774 140.713 146.377 132.329C151.98 123.945 154.97 114.088 154.97 104.004C154.957 90.4937 149.586 77.5398 140.035 67.9834C130.485 58.4271 117.534 53.0484 104.023 53.0269V53.0269ZM104.023 144.125C96.0845 144.131 88.3223 141.782 81.7187 137.376C75.115 132.969 69.9666 126.703 66.9249 119.37C63.8831 112.037 63.0847 103.967 64.6305 96.18C66.1763 88.3932 69.997 81.2398 75.6091 75.6248C81.2213 70.0098 88.3728 66.1856 96.1588 64.6358C103.945 63.086 112.016 63.8804 119.35 66.9184C126.685 69.9565 132.953 75.1017 137.363 81.7031C141.773 88.3045 144.125 96.0655 144.123 104.004C144.125 109.272 143.089 114.488 141.074 119.355C139.06 124.222 136.106 128.644 132.383 132.369C128.659 136.095 124.238 139.051 119.372 141.068C114.506 143.085 109.291 144.123 104.023 144.125V144.125ZM104.023 53.0269C93.9396 53.0209 84.0807 56.0056 75.6935 61.6034C67.3063 67.2012 60.7677 75.1607 56.9046 84.475C53.0416 93.7894 52.0277 104.04 53.9913 113.931C55.9548 123.822 60.8075 132.908 67.9356 140.04C75.0637 147.172 84.147 152.031 94.0365 154C103.926 155.969 114.177 154.962 123.494 151.104C132.811 147.247 140.774 140.713 146.377 132.329C151.98 123.945 154.97 114.088 154.97 104.004C154.957 90.4937 149.586 77.5398 140.035 67.9834C130.485 58.4271 117.534 53.0484 104.023 53.0269ZM104.023 144.125C96.0845 144.131 88.3223 141.782 81.7187 137.376C75.115 132.969 69.9666 126.703 66.9249 119.37C63.8831 112.037 63.0847 103.967 64.6305 96.18C66.1763 88.3932 69.997 81.2398 75.6091 75.6248C81.2213 70.0098 88.3728 66.1856 96.1588 64.6358C103.945 63.086 112.016 63.8804 119.35 66.9184C126.685 69.9565 132.953 75.1017 137.363 81.7031C141.773 88.3045 144.125 96.0655 144.123 104.004C144.125 109.272 143.089 114.488 141.074 119.355C139.06 124.222 136.106 128.644 132.383 132.369C128.659 136.095 124.238 139.051 119.372 141.068C114.506 143.085 109.291 144.123 104.023 144.125V144.125ZM104.023 18.0713C87.0289 18.0673 70.415 23.1029 56.2826 32.5413C42.1502 41.9798 31.1341 55.3971 24.6274 71.0965C18.1207 86.7959 16.4156 104.072 19.7279 120.741C23.0401 137.409 31.2209 152.721 43.2356 164.74C55.2503 176.759 70.5593 184.945 87.2266 188.263C103.894 191.581 121.171 189.883 136.873 183.381C152.574 176.88 165.995 165.869 175.439 151.74C184.882 137.611 189.924 120.999 189.926 104.004C189.926 81.2187 180.876 59.3659 164.767 43.2512C148.658 27.1365 126.809 18.0794 104.023 18.0713V18.0713ZM104.023 159.862C92.9685 159.874 82.1585 156.606 72.9617 150.472C63.7649 144.338 56.5947 135.613 52.3587 125.402C48.1226 115.191 47.0111 103.953 49.1648 93.1098C51.3186 82.2668 56.6408 72.3064 64.4577 64.4895C72.2747 56.6725 82.235 51.3503 93.078 49.1966C103.921 47.0428 115.159 48.1544 125.37 52.3904C135.581 56.6265 144.306 63.7967 150.44 72.9935C156.575 82.1903 159.843 93.0002 159.831 104.055C159.798 118.846 153.908 133.022 143.449 143.481C132.991 153.94 118.814 159.83 104.023 159.862ZM104.023 53.0269C93.9396 53.0209 84.0807 56.0056 75.6935 61.6034C67.3063 67.2012 60.7677 75.1607 56.9046 84.475C53.0416 93.7894 52.0277 104.04 53.9913 113.931C55.9548 123.822 60.8075 132.908 67.9356 140.04C75.0637 147.172 84.147 152.031 94.0365 154C103.926 155.969 114.177 154.962 123.494 151.104C132.811 147.247 140.774 140.713 146.377 132.329C151.98 123.945 154.97 114.088 154.97 104.004C154.957 90.4937 149.586 77.5398 140.035 67.9834C130.485 58.4271 117.534 53.0484 104.023 53.0269V53.0269ZM104.023 144.125C96.0845 144.131 88.3223 141.782 81.7187 137.376C75.115 132.969 69.9666 126.703 66.9249 119.37C63.8831 112.037 63.0847 103.967 64.6305 96.18C66.1763 88.3932 69.997 81.2398 75.6091 75.6248C81.2213 70.0098 88.3728 66.1856 96.1588 64.6358C103.945 63.086 112.016 63.8804 119.35 66.9184C126.685 69.9565 132.953 75.1017 137.363 81.7031C141.773 88.3045 144.125 96.0655 144.123 104.004C144.125 109.272 143.089 114.488 141.074 119.355C139.06 124.222 136.106 128.644 132.383 132.369C128.659 136.095 124.238 139.051 119.372 141.068C114.506 143.085 109.291 144.123 104.023 144.125V144.125Z" fill="#20ACE9"/>
<path d="M114.098 19.634H94.4238L96.3822 0H112.14L114.098 19.634Z" fill="#20ACE9"/>
<path d="M70.5562 25.8947L53.5198 35.7269L45.4023 17.7468L59.0396 9.86279L70.5562 25.8947Z" fill="#20ACE9"/>
<path d="M35.9872 53.0779L26.1448 70.1143L10.123 58.5977L17.9969 44.9604L35.9872 53.0779Z" fill="#20ACE9"/>
<path d="M19.6442 93.9082V113.583L0 111.624V95.8665L19.6442 93.9082Z" fill="#20ACE9"/>
<path d="M25.8929 137.448L35.7352 154.485L17.745 162.602L9.87109 148.955L25.8929 137.448Z" fill="#20ACE9"/>
<path d="M53.0866 172.019L70.123 181.851L58.6064 197.883L44.959 190.009L53.0866 172.019Z" fill="#20ACE9"/>
<path d="M93.918 188.365H113.593L111.624 208.009H95.8763L93.918 188.365Z" fill="#20ACE9"/>
<path d="M137.447 182.104L154.484 172.271L162.611 190.262L148.964 198.136L137.447 182.104Z" fill="#20ACE9"/>
<path d="M172.027 154.921L181.86 137.884L197.891 149.401L190.007 163.048L172.027 154.921Z" fill="#20ACE9"/>
<path d="M188.373 114.09V94.415L208.007 96.3734V112.131L188.373 114.09Z" fill="#20ACE9"/>
<path d="M182.112 70.5503L172.279 53.5139L190.259 45.3965L198.143 59.0439L182.112 70.5503Z" fill="#20ACE9"/>
<path d="M154.929 35.9803L137.893 26.1481L149.399 10.1162L163.046 18.0002L154.929 35.9803Z" fill="#20ACE9"/>
</svg>
