<svg width="32" height="32" viewBox="0 0 32 32" fill="none" xmlns="http://www.w3.org/2000/svg">
<path d="M2.3439 12.9168C2.67636 13.1163 2.94713 13.4039 3.12621 13.7477C3.3053 14.0916 3.38573 14.4783 3.35858 14.865C3.35858 15.0781 3.35858 15.2912 3.35858 15.5144C3.35858 15.7376 3.35858 15.9507 3.35858 16.1638C3.38497 16.5491 3.30411 16.9341 3.12501 17.2762C2.9459 17.6183 2.67554 17.904 2.3439 18.1018L0 19.4514L4.4037 27.0817L6.73744 25.7322C7.07597 25.5405 7.4611 25.4466 7.84988 25.4609C8.23866 25.4752 8.61582 25.5973 8.93931 25.8134C9.30459 26.0468 9.68001 26.27 10.0757 26.4729C10.4213 26.6454 10.7122 26.9102 10.9164 27.2379C11.1206 27.5657 11.23 27.9436 11.2325 28.3298V31.0288H20.0399V28.3298C20.0423 27.9436 20.1517 27.5657 20.3559 27.2379C20.5601 26.9102 20.8511 26.6454 21.1966 26.4729C21.5923 26.27 21.9677 26.0468 22.333 25.8134C22.6565 25.5973 23.0337 25.4752 23.4225 25.4609C23.8112 25.4466 24.1964 25.5405 24.5349 25.7322L26.8686 27.0817L31.2723 19.4514L28.969 18.0917C28.639 17.8947 28.3697 17.6105 28.1906 17.2704C28.0116 16.9303 27.9299 16.5474 27.9543 16.1638C27.9543 15.9406 27.9543 15.7275 27.9543 15.5144C27.9543 15.3013 27.9543 15.0781 27.9543 14.865C27.9272 14.4783 28.0076 14.0916 28.1867 13.7477C28.3658 13.4039 28.6366 13.1163 28.969 12.9168L31.3129 11.5673L26.9092 3.93695L24.5755 5.28647C24.2398 5.47992 23.8567 5.57577 23.4695 5.56322C23.0823 5.55067 22.7062 5.43022 22.3838 5.21544C22.0145 4.97394 21.6316 4.75374 21.2372 4.5559C20.8837 4.38522 20.585 4.11888 20.3752 3.78708C20.1653 3.45528 20.0527 3.07132 20.05 2.67875V0H11.2426V2.67875C11.2409 3.06638 11.1319 3.44597 10.9277 3.77549C10.7236 4.10501 10.4322 4.3716 10.0859 4.54575C9.69145 4.74359 9.30863 4.9638 8.93931 5.2053C8.61685 5.42008 8.2408 5.54052 7.85356 5.55307C7.46633 5.56562 7.08329 5.46977 6.7476 5.27632L4.41382 3.9268L0.0101257 11.5572L2.3439 12.9168ZM15.6463 8.28991C17.0756 8.2879 18.4734 8.70991 19.6628 9.50253C20.8522 10.2951 21.7797 11.4228 22.3281 12.7427C22.8765 14.0626 23.021 15.5155 22.7434 16.9176C22.4658 18.3197 21.7785 19.6079 20.7686 20.6193C19.7586 21.6307 18.4713 22.3198 17.0696 22.5994C15.6679 22.8789 14.2148 22.7365 12.8941 22.19C11.5734 21.6434 10.4445 20.7175 9.65021 19.5292C8.85592 18.3409 8.43197 16.9437 8.43197 15.5144C8.43196 13.6001 9.19171 11.7641 10.5444 10.4095C11.897 9.05494 13.732 8.2926 15.6463 8.28991Z" fill="#EBEBEB"/>
</svg>
