<svg width="456" height="460" viewBox="0 0 456 460" fill="none" xmlns="http://www.w3.org/2000/svg">
<path d="M101.34 17.4017C100.133 27.6601 93.5373 29.5779 92.4313 32.2769C91.8691 33.997 91.4083 35.7487 91.0513 37.5228H80.3262C79.9742 35.7485 79.5167 33.9968 78.9564 32.2769C77.8605 29.5373 71.2651 27.6398 70.0779 17.3713C69.2966 10.6338 74.3802 -0.0101395 85.7243 7.24927e-06C97.0684 0.010154 102.091 10.6541 101.34 17.4017Z" fill="#20ACE9"/>
<path d="M80.2216 21.0759L79.5332 21.2036L82.6981 38.2635L83.3865 38.1358L80.2216 21.0759Z" fill="white"/>
<path d="M91.19 21.1051L87.9863 38.1577L88.6744 38.287L91.8781 21.2343L91.19 21.1051Z" fill="white"/>
<path d="M85.7025 26.8683C85.1463 26.7751 84.6239 26.539 84.1864 26.1833C83.7489 25.8276 83.4112 25.3644 83.2064 24.839C83.0963 24.9758 82.9594 25.0887 82.8041 25.1707C82.6488 25.2527 82.4784 25.3021 82.3033 25.3159C80.6697 25.3159 80.0203 21.9674 80 21.8254L80.345 21.7645C80.5073 22.6473 81.1872 24.9607 82.3033 24.9607C82.4518 24.9404 82.5944 24.8893 82.7219 24.8107C82.8495 24.732 82.9592 24.6276 83.044 24.5041C82.5677 23.5569 82.2979 22.5193 82.2526 21.4601C82.2526 20.5063 82.6179 19.9685 83.2673 19.9685C83.4539 19.9614 83.6388 20.006 83.8018 20.0973C83.9647 20.1886 84.0992 20.3231 84.1906 20.486C84.6878 21.3688 84.3124 23.0937 83.6833 24.1997C83.6089 24.3215 83.5378 24.4331 83.4702 24.5345C84.0384 25.6203 84.8502 26.4929 85.7228 26.4929C86.5041 26.4929 87.2042 25.7725 87.7521 24.8187C87.0809 24.01 86.721 22.9878 86.7375 21.937C86.7375 20.7194 87.1941 19.9685 87.9449 19.9685C88.5537 19.9685 88.8987 20.5672 88.8987 21.6021C88.86 22.6957 88.5976 23.7697 88.1276 24.7578C88.4012 25.0194 88.7637 25.168 89.1422 25.1738V25.1738C90.1569 25.1738 90.9585 22.8502 91.1716 21.9471L91.5064 22.0486C91.4151 22.4037 90.4918 25.5188 89.1016 25.5188C88.666 25.5131 88.246 25.3551 87.9145 25.0723C87.7411 25.5428 87.4442 25.9579 87.055 26.2739C86.6657 26.59 86.1985 26.7953 85.7025 26.8683V26.8683ZM87.884 20.3541C87.2448 20.3541 87.0216 21.2166 87.0216 21.9674C87.0151 22.8779 87.2917 23.7678 87.813 24.5143C88.2259 23.6079 88.4536 22.6281 88.4827 21.6326C88.4827 21.247 88.4218 20.3541 87.884 20.3541ZM83.2165 20.3541C82.6787 20.3541 82.5671 20.9832 82.5671 21.5007C82.6043 22.4398 82.8322 23.3615 83.2368 24.2099L83.3281 24.0678C83.9065 23.0531 84.2515 21.4398 83.8355 20.6991C83.7758 20.5886 83.6859 20.4975 83.5763 20.4364C83.4666 20.3753 83.3418 20.3467 83.2165 20.3541V20.3541Z" fill="white"/>
<path d="M92.3779 36.9346H79.1465V39.522H92.3779V36.9346Z" fill="#263238"/>
<path d="M92.2978 40.072L79.0664 40.0581L79.0637 42.6455L92.2951 42.6594L92.2978 40.072Z" fill="#263238"/>
<path d="M92.2939 43.0754L79.0625 43.0615L79.0598 45.649L92.2912 45.6628L92.2939 43.0754Z" fill="#263238"/>
<path d="M454.602 80.1593C454.602 80.1593 457.423 75.5222 453.323 73.4827C449.224 71.4432 447.367 76.5267 447.367 76.5267L454.602 80.1593Z" fill="#DD6A57"/>
<path d="M431 110.843L438.235 114.435L454.693 79.966L447.458 76.374L431 110.843Z" fill="#455A64"/>
<path d="M446.293 77.257L454.735 81.4578L455.395 80.088L446.953 75.8872L446.293 77.257Z" fill="#263238"/>
<path d="M445.57 78.7795L454.012 82.9701L454.672 81.6003L446.22 77.4097L445.57 78.7795Z" fill="#263238"/>
<path d="M431 110.853L431.69 116.464L431.903 118.311L433.486 117.357L438.235 114.445L437.92 113.227L436.794 113.734L436.469 112.507L435.343 113.014L435.038 111.796L433.892 112.293L433.587 111.076L432.451 111.573L432.136 110.355L431 110.853Z" fill="white"/>
<path d="M431.691 116.455L431.905 118.301L433.487 117.348L431.691 116.455Z" fill="#37474F"/>
<path d="M434.006 109.717C435.021 107.271 436.035 104.856 437.111 102.451C438.186 100.047 439.313 97.6825 440.419 95.2878C441.525 92.8932 442.712 90.5594 443.909 88.1851C445.106 85.8107 446.314 83.4973 447.613 81.2041C446.598 83.6596 445.583 86.0644 444.508 88.4692C443.432 90.874 442.306 93.2483 441.2 95.6328C440.094 98.0173 438.907 100.371 437.709 102.736C436.512 105.1 435.305 107.423 434.006 109.717Z" fill="#263238"/>
<path d="M437.281 111.289C438.296 108.834 439.311 106.429 440.376 104.024C441.441 101.62 442.588 99.2452 443.684 96.8607C444.78 94.4762 445.987 92.1221 447.174 89.7579C448.362 87.3937 449.579 85.0803 450.878 82.7871C449.914 85.2325 448.849 87.6474 447.783 90.0522C446.718 92.457 445.571 94.8212 444.465 97.2158C443.359 99.6105 442.172 101.944 440.975 104.319C439.777 106.693 438.57 108.986 437.281 111.289Z" fill="#263238"/>
<path d="M313.617 70.6835C317.12 70.6835 319.959 67.8442 319.959 64.3417C319.959 60.8393 317.12 58 313.617 58C310.115 58 307.275 60.8393 307.275 64.3417C307.275 67.8442 310.115 70.6835 313.617 70.6835Z" fill="#20ACE9"/>
<path d="M320.333 69.7095H306.889V71.6475H320.333V69.7095Z" fill="#20ACE9"/>
<path opacity="0.1" d="M320.333 69.7095H306.889V71.6475H320.333V69.7095Z" fill="black"/>
<path d="M327.234 96.396H300V98.334H327.234V96.396Z" fill="#20ACE9"/>
<path opacity="0.1" d="M327.234 96.396H300V98.334H327.234V96.396Z" fill="black"/>
<path d="M327.234 101.834H300V103.773H327.234V101.834Z" fill="#20ACE9"/>
<path opacity="0.1" d="M327.234 101.834H300V103.773H327.234V101.834Z" fill="black"/>
<path d="M326.218 98.3335H301.014V101.834H326.218V98.3335Z" fill="#20ACE9"/>
<path d="M319.096 71.6479H308.127V73.586H319.096V71.6479Z" fill="#20ACE9"/>
<path d="M324.76 96.3954H302.438C302.438 96.3954 307.511 91.322 308.576 85.2339C309.469 80.0997 309.895 73.5854 309.895 73.5854H317.252C317.252 73.5854 317.688 80.0997 318.581 85.2339C319.677 91.3119 324.76 96.3954 324.76 96.3954Z" fill="#20ACE9"/>
<path d="M289.041 207.659C287.661 207.659 286.291 207.598 284.982 207.517L285.043 206.503C286.352 206.584 287.712 206.624 289.102 206.645L289.041 207.659ZM293.1 207.578L293.049 206.563C294.398 206.503 295.748 206.391 297.037 206.229L297.158 207.243C295.9 207.385 294.541 207.507 293.161 207.578H293.1ZM280.873 207.172C279.513 207.02 278.164 206.827 276.814 206.604L276.987 205.589C278.296 205.813 279.625 206.005 280.974 206.158L280.873 207.172ZM301.166 206.604L300.963 205.589C302.293 205.325 303.602 205.001 304.85 204.635L305.134 205.65C303.936 206.005 302.607 206.371 301.217 206.604H301.166ZM272.826 205.792C271.487 205.468 270.168 205.112 268.89 204.707L269.184 203.692C270.442 204.077 271.751 204.433 273.06 204.707L272.826 205.792ZM309.071 204.341L308.695 203.398C309.929 202.906 311.135 202.347 312.308 201.723L312.784 202.626C311.587 203.215 310.349 203.783 309.071 204.341ZM265.115 203.327C263.847 202.829 262.588 202.312 261.371 201.703L261.807 200.79C263.004 201.358 264.242 201.896 265.48 202.383L265.115 203.327ZM316.295 200.455L315.727 199.613C316.835 198.873 317.902 198.073 318.923 197.218L319.573 198C318.523 198.887 317.429 199.72 316.295 200.496V200.455ZM257.748 199.816C256.571 199.146 255.404 198.426 254.268 197.665L254.836 196.822C255.942 197.563 257.099 198.273 258.246 198.933L257.748 199.816ZM250.95 195.28C249.935 194.468 248.829 193.596 247.805 192.693L248.464 191.932C249.479 192.815 250.493 193.677 251.569 194.479L250.95 195.28ZM322.586 195.229L321.866 194.519C322.779 193.596 323.682 192.591 324.545 191.546L325.326 192.185C324.443 193.302 323.54 194.326 322.586 195.27V195.229ZM244.811 189.923C243.868 188.989 242.914 188.005 241.97 186.99L242.711 186.3C243.644 187.315 244.588 188.33 245.521 189.192L244.811 189.923ZM327.792 188.908L326.959 188.33C327.71 187.254 328.441 186.118 329.141 184.951L330.014 185.468C329.293 186.716 328.553 187.873 327.792 188.969V188.908ZM239.261 183.906C238.419 182.891 237.556 181.876 236.694 180.74L237.485 180.111C238.348 181.207 239.21 182.262 240.042 183.246L239.261 183.906ZM331.992 181.876L331.099 181.41C331.688 180.263 332.287 179.045 332.855 177.787L333.778 178.203C333.2 179.563 332.601 180.801 331.992 181.957V181.876ZM234.248 177.564C233.447 176.478 232.655 175.372 231.864 174.266L232.696 173.678C233.477 174.784 234.269 175.88 235.06 176.965L234.248 177.564ZM335.422 174.52L334.488 174.134C334.975 172.927 335.503 171.658 335.939 170.36L336.893 170.715C336.386 172.044 335.889 173.323 335.391 174.54L335.422 174.52ZM229.54 170.897C228.779 169.781 228.028 168.665 227.267 167.529L228.12 166.971C228.871 168.097 229.621 169.213 230.383 170.329L229.54 170.897ZM338.233 166.839L337.269 166.524C337.695 165.246 338.101 163.967 338.507 162.658L339.47 162.963C339.044 164.312 338.628 165.601 338.202 166.879L338.233 166.839ZM225.025 164.13L222.772 160.73L223.625 160.172L225.867 163.572L225.025 164.13ZM340.627 159.056L339.613 158.772C339.988 157.483 340.343 156.185 340.708 154.866L341.723 155.129C341.351 156.476 340.976 157.798 340.597 159.097L340.627 159.056ZM220.52 157.352C219.759 156.235 218.998 155.109 218.227 154.003L219.059 153.425C219.83 154.541 220.601 155.657 221.352 156.783L220.52 157.352ZM342.768 151.192L341.753 150.939C342.085 149.64 342.423 148.331 342.768 147.012L343.783 147.256C343.407 148.615 343.073 149.934 342.738 151.233L342.768 151.192ZM215.933 150.685C215.142 149.589 214.34 148.493 213.529 147.418L214.34 146.809C215.162 147.895 215.964 148.991 216.755 150.086L215.933 150.685ZM211.043 144.222C210.19 143.146 209.318 142.101 208.465 141.107L209.237 140.447C210.099 141.462 210.972 142.476 211.844 143.593L211.043 144.222ZM344.798 143.308L343.783 143.065L344.798 139.118L345.812 139.361L344.798 143.308ZM205.787 138.083C204.863 137.068 203.91 136.114 202.976 135.181L203.686 134.46C204.64 135.394 205.594 136.388 206.527 137.393L205.787 138.083ZM346.756 135.435L345.741 135.181C346.066 133.872 346.401 132.563 346.756 131.244L347.771 131.498C347.334 132.847 346.999 134.156 346.675 135.475L346.756 135.435ZM53.5141 132.979C52.1544 132.979 50.7745 132.878 49.4554 132.756L49.5467 131.741C50.8759 131.853 52.2254 131.934 53.6054 131.954L53.5141 132.979ZM57.5728 132.908V131.893C58.902 131.812 60.2515 131.69 61.5706 131.518L61.7025 132.533C60.2921 132.746 58.9122 132.867 57.5525 132.949L57.5728 132.908ZM199.983 132.421C198.968 131.518 197.953 130.645 196.939 129.813L197.578 129.022C198.593 129.864 199.668 130.757 200.683 131.67L199.983 132.421ZM45.3053 132.299C43.966 132.076 42.6165 131.802 41.2466 131.487L41.48 130.473C42.7686 130.787 44.0979 131.051 45.417 131.264L45.3053 132.299ZM65.6699 131.903L65.467 130.889C66.7759 130.615 68.0849 130.29 69.3735 129.874L69.6475 130.889C68.3487 131.284 67.0093 131.609 65.6699 131.893V131.903ZM37.3401 130.412C36.0413 129.996 34.7426 129.539 33.4844 129.042L33.8598 128.098C35.0875 128.585 36.366 129.042 37.6445 129.438L37.3401 130.412ZM73.5438 129.732L73.2394 128.717L77.1155 127.5L77.4199 128.464C76.1414 128.92 74.8426 129.326 73.5438 129.722V129.732ZM348.684 127.611L347.669 127.348C348.014 126.039 348.369 124.72 348.734 123.411L349.749 123.685C349.384 124.973 349.029 126.292 348.684 127.601V127.611ZM193.661 127.419C192.576 126.637 191.459 125.876 190.333 125.166L190.871 124.314C192.018 125.034 193.154 125.805 194.26 126.597L193.661 127.419ZM29.7098 127.419C28.482 126.82 27.2644 126.181 26.0874 125.511L26.5947 124.628C27.7413 125.288 28.9386 125.917 30.1461 126.495L29.7098 127.419ZM81.2655 127.287L80.9611 126.323L84.8169 125.075L85.1314 126.039L81.2655 127.287ZM88.9872 124.78L88.6727 123.816L92.5386 122.558L92.8531 123.573L88.9872 124.78ZM22.607 123.34C21.4807 122.568 20.3747 121.757 19.3093 120.914L19.9384 120.113C20.9531 120.945 22.0692 121.747 23.1854 122.497L22.607 123.34ZM186.873 123.137C185.706 122.497 184.499 121.878 183.301 121.3L183.738 120.387C184.955 120.965 186.173 121.594 187.36 122.254L186.873 123.137ZM96.7089 122.284L96.4045 121.27L100.311 120.123L100.615 121.138L96.7089 122.284ZM104.461 119.88L104.167 118.865C105.476 118.469 106.774 118.094 108.073 117.728L108.347 118.743L104.461 119.88ZM350.825 119.788L349.81 119.504C350.185 118.205 350.581 116.896 350.977 115.608L351.992 115.912C351.606 117.17 351.22 118.469 350.845 119.768L350.825 119.788ZM179.618 119.666C178.502 119.21 177.355 118.784 176.209 118.378L175.854 118.256L176.189 117.292L176.452 117.383C177.711 117.83 178.877 118.266 180.004 118.733L179.618 119.666ZM16.2551 118.236C15.2405 117.302 14.2867 116.328 13.3734 115.324L14.1243 114.644C15.0172 115.658 15.971 116.582 16.9451 117.495L16.2551 118.236ZM112.305 117.678L112.051 116.663C113.37 116.318 114.679 115.983 115.998 115.648L116.231 116.663C114.902 116.978 113.593 117.312 112.274 117.657L112.305 117.678ZM172.059 117.008C170.77 116.612 169.461 116.247 168.173 115.912L168.426 114.897C169.725 115.242 171.044 115.608 172.353 116.003L172.059 117.008ZM120.178 115.77L119.965 114.755C121.295 114.471 122.624 114.197 123.953 113.944L124.146 114.958C122.796 115.192 121.467 115.466 120.148 115.75L120.178 115.77ZM164.246 114.979C162.937 114.705 161.598 114.441 160.278 114.218L160.451 113.203C161.79 113.436 163.13 113.69 164.459 113.984L164.246 114.979ZM128.133 114.268L127.971 113.254C129.331 113.041 130.69 112.848 132.03 112.685L132.152 113.7C130.751 113.842 129.442 114.035 128.103 114.248L128.133 114.268ZM156.291 113.629C154.951 113.457 153.602 113.315 152.232 113.213L152.313 112.198C153.663 112.31 155.022 112.452 156.372 112.614L156.291 113.629ZM136.149 113.284L136.058 112.269C137.418 112.158 138.788 112.066 140.117 112.006V113.02C138.869 113.02 137.468 113.152 136.119 113.264L136.149 113.284ZM148.244 112.97C147.067 112.929 145.9 112.909 144.744 112.909H144.206V111.894H144.744C145.911 111.894 147.098 111.894 148.285 111.955L148.244 112.97ZM10.7251 112.188C9.8931 111.113 9.09151 109.986 8.35079 108.85L9.20312 108.292C9.92354 109.408 10.715 110.514 11.5267 111.569L10.7251 112.188ZM353.28 112.046L352.316 111.732C352.742 110.433 353.189 109.154 353.646 107.876L354.599 108.221C354.112 109.469 353.676 110.747 353.25 112.006L353.28 112.046ZM6.26056 105.319C5.61117 104.122 5.01251 102.884 4.47473 101.636L5.39808 101.23C5.93586 102.457 6.52437 103.665 7.15347 104.842L6.26056 105.319ZM356.01 104.416L355.066 104.051C355.563 102.772 356.081 101.524 356.608 100.276L357.542 100.682C357.024 101.91 356.497 103.158 356.01 104.416ZM2.96286 97.8001C2.52655 96.5216 2.14097 95.2026 1.80612 93.8733L2.8208 93.6298C3.1455 94.9286 3.53108 96.2172 3.95724 97.4754L2.96286 97.8001ZM359.196 97.0087L358.283 96.5724C358.881 95.3142 359.49 94.0864 360.109 92.9195L361.002 93.3964C360.403 94.5329 359.794 95.7708 359.196 96.9985V97.0087ZM362.96 89.9059L362.088 89.3986C362.778 88.2114 363.508 87.0446 364.239 85.9183L365.091 86.4763C364.361 87.5316 363.65 88.668 362.96 89.8552V89.9059ZM0.974089 89.9059C0.852328 89.1754 0.740714 88.4448 0.649393 87.7041C0.558072 86.9634 0.497192 86.456 0.436312 85.8472L1.45099 85.7458C1.51187 86.3546 1.5829 86.9634 1.65393 87.5823C1.72495 88.2013 1.84672 89.0232 1.96848 89.7335L0.974089 89.9059ZM367.394 83.1685L366.573 82.5698C367.384 81.474 368.237 80.3883 369.089 79.3736L369.87 80.023C369.028 80.9768 368.186 82.0422 367.394 83.1178V83.1685ZM0.0811761 81.7682C0.0304422 80.6318 0 79.4852 0 78.3589V77.6892H1.01468V78.3589C1.01468 79.4751 1.01468 80.6014 1.09585 81.7276L0.0811761 81.7682ZM372.468 77.0195L371.737 76.3194C372.681 75.3047 373.655 74.3611 374.639 73.458L375.329 74.2089C374.436 75.0511 373.472 75.9947 372.539 76.9688L372.468 77.0195ZM1.22776 73.6204L0.213081 73.5493C0.304402 72.1897 0.446459 70.8199 0.618954 69.4906L1.63363 69.6225C1.46114 70.9315 1.32923 72.281 1.22776 73.6204ZM378.444 71.591L377.805 70.7996C378.82 69.9574 379.966 69.1355 381.082 68.3643L381.661 69.1964C380.565 69.9067 379.479 70.7083 378.444 71.5403V71.591ZM385.04 67.025L384.512 66.1523C385.679 65.4624 386.886 64.8028 388.104 64.194L388.561 65.0971C387.363 65.645 386.176 66.3451 385.04 66.9742V67.025ZM2.30332 65.645L1.28864 65.4421C1.5626 64.1027 1.8873 62.7633 2.24244 61.4645L3.25711 61.7385C2.90198 63.017 2.57728 64.3158 2.30332 65.645ZM4.44429 57.8929L3.49049 57.558C3.9471 56.2795 4.50517 55.001 4.99221 53.753L5.94601 54.169C5.38794 55.3765 4.93133 56.6347 4.44429 57.8929V57.8929ZM7.67096 50.5365L6.7679 50.1103C7.40715 48.9028 8.08698 47.7157 8.79726 46.5589L9.65973 47.0967C8.99004 48.1723 8.28992 49.3493 7.67096 50.5365V50.5365ZM11.9225 43.7178L11.1006 43.1192C11.9022 42.0132 12.7545 40.9376 13.6373 39.8925L14.4084 40.552C13.5459 41.5667 12.7139 42.6321 11.9225 43.7178V43.7178ZM17.1075 37.579L16.387 36.8688C17.351 35.8541 18.3555 34.9409 19.3702 34.0581L20.0399 34.8293C19.0658 35.6917 18.1221 36.6151 17.1075 37.579Z" fill="#263238"/>
<path d="M27.7214 38.4422C31.9445 36.7033 33.9584 31.87 32.2195 27.6468C30.4805 23.4236 25.6473 21.4098 21.4241 23.1487C17.2009 24.8877 15.187 29.7209 16.926 33.9441C18.6649 38.1673 23.4982 40.1812 27.7214 38.4422Z" fill="#263238"/>
<path d="M169.451 123.451C174.018 123.451 177.721 119.748 177.721 115.181C177.721 110.614 174.018 106.912 169.451 106.912C164.884 106.912 161.182 110.614 161.182 115.181C161.182 119.748 164.884 123.451 169.451 123.451Z" fill="#263238"/>
<path d="M394.346 70.2111C398.913 70.2111 402.615 66.5087 402.615 61.9415C402.615 57.3743 398.913 53.6719 394.346 53.6719C389.779 53.6719 386.076 57.3743 386.076 61.9415C386.076 66.5087 389.779 70.2111 394.346 70.2111Z" fill="#263238"/>
<path d="M289.916 217.055C294.483 217.055 298.186 213.352 298.186 208.785C298.186 204.218 294.483 200.516 289.916 200.516C285.349 200.516 281.646 204.218 281.646 208.785C281.646 213.352 285.349 217.055 289.916 217.055Z" fill="#263238"/>
<path d="M160.785 394.634H350.215L354.162 316.91H156.838L160.785 394.634Z" fill="#EBEBEB"/>
<path d="M341.238 352.485H262.093L260.611 325.504H343.023L341.238 352.485ZM262.945 351.531H340.345L341.958 326.458H261.565L262.945 351.531Z" fill="#DBDBDB"/>
<path d="M339.777 383.534H265.147L263.93 359.182H341.299L339.777 383.534ZM266.05 382.611H338.864L340.264 360.156H264.934L266.05 382.611Z" fill="#DBDBDB"/>
<path d="M309.266 341.921H295.963L295.121 335.407H310.108L309.266 341.921ZM296.805 341.008H308.423L309.012 336.412H296.247L296.805 341.008Z" fill="#DBDBDB"/>
<path d="M309.266 374.605H295.963L295.121 368.101H310.108L309.266 374.605ZM296.805 373.651H308.423L309.012 369.054H296.247L296.805 373.651Z" fill="#DBDBDB"/>
<path d="M248.078 352.485H168.933L167.381 325.504H249.793L248.078 352.485ZM169.786 351.531H247.185L248.799 326.458H168.396L169.786 351.531Z" fill="#DBDBDB"/>
<path d="M246.619 383.534H171.989L170.771 359.182H248.141L246.619 383.534ZM172.892 382.611H245.726L247.126 360.156H171.776L172.892 382.611Z" fill="#DBDBDB"/>
<path d="M216.087 341.921H202.805L201.963 335.407H216.95L216.087 341.921ZM203.647 341.008H215.265L215.864 336.412H203.049L203.647 341.008Z" fill="#DBDBDB"/>
<path d="M216.087 374.605H202.805L201.963 368.101H216.95L216.087 374.605ZM203.627 373.651H215.245L215.844 369.054H203.049L203.627 373.651Z" fill="#DBDBDB"/>
<path d="M177.771 394.634L176.584 403.106L174.189 420.122H169.512V394.634H177.771Z" fill="#EBEBEB"/>
<path d="M177.771 394.634L176.584 403.106H169.512V394.634H177.771Z" fill="#DBDBDB"/>
<path d="M333.23 394.634L334.418 403.106L336.812 420.122H341.49V394.634H333.23Z" fill="#EBEBEB"/>
<path d="M333.23 394.634L334.418 403.106H341.49V394.634H333.23Z" fill="#DBDBDB"/>
<path d="M343.265 459.121C402.806 459.121 451.074 450.74 451.074 440.4C451.074 430.061 402.806 421.68 343.265 421.68C283.723 421.68 235.455 430.061 235.455 440.4C235.455 450.74 283.723 459.121 343.265 459.121Z" fill="#EBEBEB"/>
<path d="M73.9068 452.222C100.133 452.222 121.394 447.124 121.394 440.837C121.394 434.549 100.133 429.452 73.9068 429.452C47.6805 429.452 26.4199 434.549 26.4199 440.837C26.4199 447.124 47.6805 452.222 73.9068 452.222Z" fill="#EBEBEB"/>
<path d="M7 410.529L62.8783 410.285L118.757 410.194L230.523 410.021L342.29 410.194L398.168 410.275L454.047 410.529L398.168 410.772L342.29 410.864L230.523 411.036L118.757 410.864L62.8783 410.772L7 410.529Z" fill="#263238"/>
<path d="M71.3208 326.493C72.1742 332.438 71.8675 338.492 70.4178 344.321C69.7299 347.021 68.8169 349.658 67.6883 352.205C66.2677 355.472 64.7863 358.658 65.1414 362.23C65.4864 362.453 64.2992 362.423 64.2688 362.068C54.7308 356.639 42.4938 355.645 35.1577 346.766C31.6774 342.565 29.922 337.238 29.0696 331.901C28.1666 326.097 27.9231 319.674 29.4146 313.952C30.683 309.112 33.4734 304.454 38.0495 302.08C42.6257 299.706 48.8863 299.848 53.8278 301.38C64.5123 304.677 69.8089 316.174 71.3208 326.493Z" fill="#20ACE9"/>
<path d="M76.215 397.094C74.9162 392.751 73.6174 388.419 72.2781 384.086C69.6602 375.614 66.9409 367.161 63.9273 358.821C62.1211 353.822 60.2203 348.87 58.2248 343.966C58.4434 340.874 58.8227 337.795 59.3612 334.742C60.1527 331.049 61.3195 327.477 62.4052 323.855C62.4661 323.632 62.111 323.52 62.0197 323.733C59.8787 328.715 57.0883 335.097 57.0173 340.983C54.6836 335.432 52.1976 329.963 49.5188 324.575C49.2058 320.024 49.3384 315.453 49.9146 310.928C49.9146 310.715 49.6305 310.654 49.6 310.867C48.7803 314.829 48.4667 318.88 48.6665 322.921C46.6372 318.863 44.4556 314.875 42.1523 310.938C41.9494 310.583 41.4522 310.938 41.6348 311.303C45.2268 318.203 48.5448 325.245 51.67 332.388C47.2814 328.58 42.2095 325.639 36.7238 323.723C36.4802 323.642 36.3077 323.987 36.5513 324.088C42.5385 326.662 48.0162 330.288 52.7252 334.793C54.971 340.029 57.1086 345.298 59.138 350.602C53.1615 344.757 45.0035 340.912 37.0992 338.842C36.8252 338.771 36.7542 339.187 37.018 339.268C46.1501 342.018 53.2529 347.203 60.2135 353.423C61.0253 355.574 61.8167 357.725 62.5879 359.876C65.544 368.054 68.3513 376.28 71.0097 384.553C72.2882 388.51 73.5498 392.477 74.7945 396.455C76.1237 400.727 77.1688 405.252 78.8532 409.382C79.0257 409.768 79.7258 409.686 79.6345 409.209C78.7009 405.116 77.5596 401.072 76.215 397.094V397.094Z" fill="#263238"/>
<path d="M60.3948 318.142C58.7015 320.746 57.533 323.655 56.9551 326.706C56.9551 326.777 57.0667 326.828 57.0971 326.706C58.1649 323.832 59.4085 321.026 60.821 318.304C60.9631 318.071 60.5572 317.888 60.3948 318.142Z" fill="#263238"/>
<path d="M43.378 337.999C40.722 336.535 37.8249 335.559 34.8243 335.118C34.7431 335.118 34.6924 335.219 34.7735 335.26C36.1535 335.828 37.5943 336.224 38.9845 336.761C40.3746 337.299 41.7951 337.999 43.1649 338.456C43.2255 338.484 43.2948 338.487 43.3576 338.464C43.4204 338.442 43.4715 338.395 43.4998 338.334C43.528 338.274 43.5311 338.204 43.5082 338.142C43.4854 338.079 43.4386 338.028 43.378 337.999V337.999Z" fill="#263238"/>
<path d="M38.5869 314.104C37.7221 313.454 36.7981 312.886 35.827 312.409C35.8006 312.408 35.7745 312.415 35.7515 312.428C35.7285 312.441 35.7097 312.46 35.697 312.483C35.6844 312.506 35.6785 312.533 35.6799 312.559C35.6813 312.585 35.6901 312.611 35.7052 312.633C36.5514 313.301 37.4585 313.889 38.4144 314.388C38.5565 314.51 38.7493 314.226 38.5869 314.104Z" fill="#263238"/>
<path d="M103.476 358.881C96.6065 360.911 89.6966 362.808 82.8272 364.827C82.2387 365 70.6511 342.748 74.8214 331.282C78.6975 320.679 87.5759 312.734 98.159 309.132C103.06 307.468 109.087 306.088 114.272 307.204C118.879 308.219 122.136 312.003 123.627 316.336C125.657 322.221 124.987 329.243 123.881 335.26C122.995 340.904 120.668 346.223 117.123 350.703C113.481 355.036 108.823 357.278 103.476 358.881Z" fill="#20ACE9"/>
<path d="M113.428 337.736C109.086 339.864 104.584 341.648 99.9636 343.073C96.8809 343.901 93.8736 344.987 90.9736 346.32C93.8755 339.857 97.0616 333.525 100.43 327.244C104.875 325.966 109.562 323.967 112.88 320.821C112.912 320.787 112.93 320.742 112.931 320.696C112.932 320.649 112.917 320.604 112.887 320.568C112.857 320.532 112.816 320.508 112.77 320.501C112.724 320.493 112.677 320.502 112.637 320.527C108.974 323.114 104.936 324.667 100.887 326.422C101.8 324.724 102.727 323.033 103.667 321.349C103.921 320.882 103.282 320.415 102.967 320.872C99.3566 326.117 96.0958 331.595 93.2059 337.269C92.4717 332.299 92.2338 327.269 92.4956 322.252C92.4889 322.232 92.476 322.214 92.4587 322.201C92.4414 322.189 92.4206 322.182 92.3992 322.182C92.3778 322.182 92.357 322.189 92.3397 322.201C92.3224 322.214 92.3095 322.232 92.3028 322.252C91.4433 327.726 91.4982 333.305 92.4651 338.761C90.0604 343.57 87.8686 348.491 85.89 353.484C85.1087 350.44 84.094 347.538 83.4142 344.514C82.3615 340.201 82.0188 335.746 82.3995 331.323C82.3995 331.296 82.3888 331.27 82.3698 331.251C82.3508 331.232 82.325 331.222 82.2981 331.222C82.2712 331.222 82.2453 331.232 82.2263 331.251C82.2073 331.27 82.1966 331.296 82.1966 331.323C80.9808 339.526 81.9756 347.904 85.0783 355.594C83.9317 358.638 82.8358 361.611 81.8313 364.635C76.6484 380.046 73.5765 396.089 72.6992 412.325C72.6992 412.403 72.7302 412.478 72.7854 412.533C72.8406 412.588 72.9154 412.619 72.9935 412.619C73.0715 412.619 73.1464 412.588 73.2015 412.533C73.2567 412.478 73.2877 412.403 73.2877 412.325C75.0831 396.316 78.5137 380.533 83.5258 365.223C85.5552 359.237 87.8078 353.423 90.3242 347.72C94.3829 346.523 98.4416 344.889 102.409 343.509C106.376 342.129 110.283 340.607 113.57 338.05C113.612 338.032 113.645 337.997 113.661 337.954C113.677 337.911 113.676 337.864 113.657 337.822C113.638 337.78 113.603 337.748 113.56 337.732C113.518 337.716 113.47 337.717 113.428 337.736V337.736Z" fill="#263238"/>
<path d="M119.834 331.272C115.634 332.764 111.656 334.854 107.455 336.345C107.262 336.416 107.374 336.721 107.577 336.68C112.011 335.767 116.415 334.397 119.997 331.485C120.139 331.404 119.987 331.221 119.834 331.272Z" fill="#263238"/>
<path d="M85.5388 322.211C85.5388 321.988 85.2547 321.856 85.1938 322.089C84.0371 325.955 83.2456 330.065 84.3618 334.022C84.3618 334.184 84.656 334.184 84.6662 334.022C84.859 330.024 84.6459 326.138 85.5388 322.211Z" fill="#263238"/>
<path d="M102.888 313.261C101.551 315.186 100.91 317.509 101.071 319.846C101.071 319.999 101.315 320.08 101.355 319.907C101.863 317.685 102.715 315.666 103.385 313.515C103.403 313.451 103.399 313.383 103.373 313.323C103.347 313.262 103.3 313.212 103.241 313.182C103.182 313.152 103.115 313.144 103.05 313.158C102.986 313.173 102.928 313.209 102.888 313.261V313.261Z" fill="#263238"/>
<path d="M21.7651 368.704C23.7945 375.086 28.5635 383.924 36.1431 383.995C41.0542 384.046 46.0058 383.457 50.927 383.386C56.2033 383.305 61.4898 383.325 66.7458 383.64C67.1821 383.64 66.1167 367.841 53.4434 360.14C49.892 357.989 45.5492 357.299 41.5209 356.426C36.9083 355.338 32.175 354.847 27.4372 354.965C24.5251 355.077 22.1 355.695 21.065 358.679C20.03 361.662 20.8012 365.66 21.7651 368.704Z" fill="#20ACE9"/>
<path d="M27.2154 360.697C30.2594 361.488 33.4049 362.402 36.4997 363.386C35.6931 362.508 34.8395 361.675 33.9427 360.89C32.6135 359.784 31.1524 358.911 29.7318 357.937C29.6101 357.856 29.7318 357.633 29.8333 357.693C32.8319 358.939 35.4223 360.999 37.3115 363.639C41.1672 364.877 44.9824 366.257 48.6555 367.759C51.1916 368.797 53.6212 370.078 55.9105 371.584C55.1721 369.984 54.2926 368.453 53.2825 367.008C51.5981 364.837 49.3252 363.619 47.1234 362.067C47.079 362.04 47.0471 361.996 47.0347 361.946C47.0223 361.896 47.0305 361.842 47.0574 361.798C47.0843 361.753 47.1278 361.722 47.1782 361.709C47.2286 361.697 47.2819 361.705 47.3263 361.732C49.6338 362.737 51.7053 364.214 53.4074 366.069C55.1095 367.923 56.4046 370.113 57.2093 372.498C59.8496 374.389 62.2605 376.582 64.3932 379.032C72.7846 388.55 79.3901 401.223 79.4104 414.16C79.4104 414.465 78.9132 414.556 78.8523 414.231C76.7053 401.553 71.1811 389.688 62.861 379.884C62.2624 379.184 61.6434 378.515 61.0245 377.855C58.7272 377.541 56.4127 377.368 54.0942 377.338C51.3952 377.338 48.7164 377.733 45.9768 377.946C41.5528 378.312 36.6621 378.362 32.6744 376.14C32.6343 376.119 32.6037 376.083 32.5886 376.04C32.5735 375.997 32.575 375.95 32.5928 375.908C32.6105 375.866 32.6433 375.832 32.6847 375.813C32.7261 375.794 32.7731 375.792 32.8164 375.805C41.705 379.042 51.0806 374.933 59.9591 376.82C56.1349 373.188 51.6597 370.31 46.7682 368.337L45.9464 368.013C40.2337 368.703 34.2065 370.184 28.6461 368.337C28.4838 368.277 28.5548 368.023 28.7171 368.074C34.0949 369.413 39.2495 367.729 44.5461 367.455C38.7726 365.212 32.8875 363.396 27.1038 361.184C26.7081 361.011 26.6878 360.565 27.2154 360.697Z" fill="#263238"/>
<path d="M24.6974 366.319C27.4539 366.68 30.2282 366.89 33.0076 366.948C33.0685 366.948 33.0888 367.049 33.0076 367.07C30.2088 367.582 27.3268 367.398 24.6163 366.532C24.5452 366.491 24.5452 366.299 24.6974 366.319Z" fill="#263238"/>
<path d="M43.4711 360.84C44.9879 361.537 46.3636 362.507 47.5299 363.701C47.6821 363.833 47.5299 364.087 47.3269 363.975C46.6268 363.468 45.9064 362.96 45.1859 362.514C44.4844 362.133 43.8067 361.709 43.1566 361.246C43.045 361.093 43.2479 360.758 43.4711 360.84Z" fill="#263238"/>
<path d="M88.2274 381.417C88.1259 381.63 88.4303 381.823 88.5521 381.61C88.5725 381.645 88.6004 381.675 88.6337 381.697C88.6671 381.72 88.705 381.735 88.7449 381.742C93.8459 382.958 99.017 383.86 104.229 384.441C108.419 384.816 113.249 385.05 116.922 382.614C121.894 379.317 125.162 370.509 122.473 364.908C119.297 358.262 109.718 361.864 104.909 364.228C97.5114 367.834 91.6097 373.915 88.2274 381.417Z" fill="#20ACE9"/>
<path d="M84.5027 384.492C87.298 381.791 90.4005 379.428 93.7464 377.45C96.1577 373.637 99.3539 370.382 103.122 367.902C103.305 367.77 103.467 368.064 103.294 368.186C100.302 370.589 97.6469 373.384 95.4003 376.496C99.1346 374.461 103.011 372.698 106.998 371.22C108.427 368.58 110.591 366.412 113.228 364.979C113.228 364.979 113.34 365.03 113.289 365.071C111.11 366.724 109.212 368.718 107.668 370.976C110.022 370.093 112.396 369.272 114.77 368.48C114.984 368.409 115.065 368.744 114.862 368.815C110.631 370.469 106.298 372.214 102.097 374.233C107.216 375.05 112.432 375.05 117.551 374.233C117.693 374.233 117.754 374.416 117.612 374.457C112.271 376.033 106.6 376.117 101.214 374.7C98.5433 376.003 95.9483 377.456 93.442 379.053C95.5498 378.888 97.6704 379.063 99.7228 379.571C103.354 380.4 107.069 380.802 110.793 380.768C110.821 380.776 110.845 380.792 110.862 380.815C110.879 380.838 110.889 380.866 110.889 380.895C110.889 380.923 110.879 380.951 110.862 380.974C110.845 380.997 110.821 381.014 110.793 381.022C104.39 382.128 98.3327 379.215 91.9808 380.007C89.6223 381.614 87.4087 383.423 85.3651 385.415C81.4035 389.373 78.1408 393.974 75.7155 399.022C73.0469 404.461 71.596 410.183 69.4347 415.855C69.4199 415.908 69.3849 415.952 69.3373 415.979C69.2897 416.006 69.2335 416.012 69.181 415.997C69.1285 415.983 69.0841 415.948 69.0575 415.9C69.0308 415.852 69.0242 415.796 69.039 415.744C70.906 404.623 76.4258 392.396 84.5027 384.492Z" fill="#263238"/>
<path d="M103.832 369.292C104.25 368.52 104.807 367.832 105.476 367.263C106.012 366.677 106.652 366.195 107.363 365.842C107.424 365.842 107.465 365.903 107.424 365.954C106.896 366.542 106.166 366.969 105.598 367.557C105.029 368.146 104.583 368.805 103.984 369.363C103.971 369.375 103.954 369.383 103.937 369.386C103.919 369.388 103.901 369.386 103.885 369.378C103.869 369.37 103.855 369.358 103.846 369.343C103.836 369.328 103.831 369.31 103.832 369.292V369.292Z" fill="#263238"/>
<path d="M114.394 372.732C115.348 372.489 116.353 372.509 117.317 372.316C118.278 372.083 119.227 371.799 120.158 371.464C120.28 371.464 120.351 371.606 120.239 371.677C118.49 372.752 116.438 373.226 114.394 373.026C114.362 373.018 114.333 372.999 114.313 372.972C114.292 372.946 114.281 372.913 114.281 372.879C114.281 372.846 114.292 372.813 114.313 372.786C114.333 372.76 114.362 372.741 114.394 372.732V372.732Z" fill="#263238"/>
<path d="M58.0996 402.046L58.9418 411.594L61.793 443.851H87.0484L90.62 411.594L91.6753 402.046H58.0996Z" fill="#455A64"/>
<path d="M58.0996 402.046L58.9418 411.594H90.62L91.6753 402.046H58.0996Z" fill="#263238"/>
<path d="M55.5938 407.19H94.1719V399.438H55.5938V407.19Z" fill="#455A64"/>
<path d="M209.984 168.456L203.896 173.043L192.674 158.238L188.615 152.82C189.46 152.493 190.253 152.045 190.969 151.491C192.346 150.437 193.418 149.037 194.074 147.432L198.437 153.175L209.984 168.456Z" fill="#263238"/>
<path d="M198.051 133.592C196.061 131.002 193.347 129.061 190.253 128.013C187.159 126.965 183.824 126.858 180.67 127.705C177.515 128.553 174.683 130.316 172.53 132.773C170.378 135.23 169.002 138.269 168.576 141.508C168.151 144.746 168.695 148.038 170.14 150.968C171.585 153.897 173.867 156.332 176.695 157.965C179.524 159.598 182.774 160.356 186.033 160.143C189.292 159.93 192.415 158.755 195.007 156.767C196.318 155.754 197.474 154.554 198.437 153.206C200.474 150.323 201.535 146.864 201.466 143.335C201.397 139.806 200.2 136.392 198.051 133.592ZM190.949 151.491C190.232 152.045 189.439 152.493 188.594 152.82C186.281 153.733 183.706 153.735 181.391 152.824C179.076 151.913 177.193 150.157 176.123 147.912C175.052 145.666 174.873 143.098 175.622 140.726C176.371 138.354 177.992 136.354 180.159 135.131C182.325 133.908 184.875 133.552 187.293 134.136C189.711 134.72 191.818 136.199 193.187 138.276C194.557 140.353 195.088 142.872 194.672 145.325C194.257 147.777 192.926 149.981 190.949 151.491V151.491Z" fill="#263238"/>
<path d="M316.283 443.334C318.312 443.993 376.423 443.232 378.615 441.801C379.457 441.274 379.842 432.801 380.005 422.522C380.005 422.411 380.005 422.309 380.005 422.198C380.005 420.087 380.066 417.906 380.066 415.704C380.066 415.399 380.066 415.095 380.066 414.801L342.208 414.902V416.089L342.441 422.269V422.898C342.441 422.898 320.332 433.136 318.089 434.973C315.847 436.809 314.244 442.684 316.283 443.334Z" fill="#EBEBEB"/>
<path d="M316.275 443.334C317.29 443.669 333.109 443.628 348.542 443.334C351.647 443.273 354.731 443.202 357.674 443.121C368.673 442.816 377.765 442.36 378.607 441.812C379.449 441.264 379.824 433.045 379.997 422.99C379.997 422.847 379.997 422.705 379.997 422.563C379.997 422.421 379.997 422.34 379.997 422.229H379.946L342.504 422.3V422.939C342.504 422.939 320.395 433.167 318.152 435.003C315.91 436.84 314.246 442.684 316.275 443.334Z" fill="#20ACE9"/>
<path d="M316.912 441.071C326.704 440.706 366.225 440.148 375.936 440.523C376.007 440.523 376.007 440.584 375.936 440.584C366.235 441.162 326.714 441.406 316.912 441.233C316.709 441.233 316.709 441.081 316.912 441.071Z" fill="#263238"/>
<path d="M338.353 422.451C342.198 421.69 346.917 422.217 349.9 424.927C350.011 425.028 349.9 425.19 349.737 425.15C346.038 424.012 342.229 423.271 338.373 422.938C338.308 422.941 338.245 422.917 338.198 422.874C338.15 422.83 338.122 422.769 338.119 422.704C338.117 422.64 338.14 422.577 338.183 422.529C338.227 422.482 338.288 422.453 338.353 422.451V422.451Z" fill="#263238"/>
<path d="M335.591 424.166C339.437 423.395 344.155 423.933 347.138 426.642C347.25 426.743 347.138 426.906 346.976 426.865C343.277 425.728 339.467 424.986 335.611 424.653C335.579 424.654 335.547 424.65 335.517 424.639C335.487 424.627 335.46 424.611 335.436 424.589C335.413 424.567 335.394 424.541 335.38 424.512C335.367 424.483 335.359 424.452 335.358 424.42C335.356 424.388 335.361 424.356 335.372 424.326C335.383 424.296 335.4 424.268 335.422 424.245C335.443 424.221 335.47 424.202 335.499 424.189C335.528 424.175 335.559 424.167 335.591 424.166V424.166Z" fill="#263238"/>
<path d="M332.833 425.881C336.679 425.11 341.397 425.648 344.38 428.347C344.492 428.458 344.38 428.621 344.218 428.58C340.52 427.438 336.71 426.696 332.853 426.368C332.822 426.37 332.79 426.365 332.76 426.354C332.729 426.343 332.702 426.326 332.678 426.304C332.655 426.282 332.636 426.256 332.622 426.227C332.609 426.198 332.601 426.167 332.6 426.135C332.598 426.103 332.603 426.071 332.614 426.041C332.625 426.011 332.642 425.983 332.664 425.96C332.686 425.936 332.712 425.917 332.741 425.904C332.77 425.89 332.801 425.882 332.833 425.881Z" fill="#263238"/>
<path d="M348.541 443.323C351.646 443.262 354.731 443.191 357.673 443.11C368.672 442.806 377.764 442.349 378.606 441.801C379.448 441.253 379.824 433.034 379.996 422.979C379.996 422.837 379.996 422.695 379.996 422.553C379.996 422.411 379.996 422.329 379.996 422.218H379.945C374.841 425.82 356.76 437.854 348.541 443.323Z" fill="#263238"/>
<path d="M339.976 422.421H381.811C381.811 422.421 373.389 324.697 373.694 322.982C374.11 320.791 376.575 310.898 379.863 297.981C380.878 293.922 382.004 289.6 383.161 285.105C386.286 272.928 389.726 259.656 392.719 248.089C397.214 230.769 400.725 217.314 400.725 217.314H365.292C365.292 217.314 361.163 230.413 355.957 247.46C347.464 275.161 336.12 313.292 335.004 322.546C333.188 337.543 339.976 422.421 339.976 422.421Z" fill="#37474F"/>
<path d="M341.822 415.288C348.214 415.156 346.378 415.105 352.77 415.034C355.895 415.034 376.453 414.831 379.375 415.318C379.391 415.318 379.407 415.325 379.418 415.336C379.429 415.347 379.436 415.363 379.436 415.379C379.436 415.395 379.429 415.411 379.418 415.422C379.407 415.434 379.391 415.44 379.375 415.44C376.453 415.927 355.895 415.744 352.77 415.714C346.378 415.653 348.214 415.602 341.822 415.47C341.798 415.47 341.774 415.461 341.757 415.444C341.74 415.427 341.73 415.403 341.73 415.379C341.73 415.355 341.74 415.332 341.757 415.315C341.774 415.297 341.798 415.288 341.822 415.288V415.288Z" fill="#263238"/>
<path d="M365.85 317.016C367.22 310.928 369.27 305.042 371.056 299.107C374.681 287.039 378.327 274.981 381.994 262.933C383.834 256.906 385.674 250.882 387.514 244.862C388.457 241.818 389.391 238.774 390.334 235.73C391.278 232.686 392.364 229.814 393.165 226.811C393.51 225.593 393.703 226.263 393.257 227.825C392.374 230.941 391.511 234.066 390.598 237.181C388.792 243.35 386.979 249.513 385.16 255.668C381.507 267.939 377.847 280.193 374.181 292.43L368.641 310.836C367.705 313.757 366.949 316.732 366.378 319.745C365.886 322.896 365.763 326.094 366.013 329.273C366.408 335.676 367.149 342.068 367.748 348.46C368.346 354.853 368.925 361.256 369.523 367.658C370.7 380.389 371.867 393.127 373.024 405.871C373.166 407.484 373.308 409.098 373.44 410.721C373.44 411.259 372.659 411.218 372.608 410.721C371.228 398.119 370.173 385.486 368.986 372.874L365.475 335.199C365.181 332.043 364.846 328.887 364.846 325.722C364.855 322.791 365.192 319.871 365.85 317.016V317.016Z" fill="#263238"/>
<path d="M369.32 217.324C371.786 236.369 376.423 272.116 379.893 297.991C387.899 266.596 400.755 217.324 400.755 217.324H369.32Z" fill="#263238"/>
<path d="M360.613 443.891C362.643 444.561 420.743 444.013 422.945 442.592C423.787 442.065 424.203 433.592 424.406 423.313C424.406 423.202 424.406 423.1 424.406 422.989C424.406 420.878 424.487 418.707 424.497 416.495C424.497 416.19 424.497 415.886 424.497 415.592H386.65V416.769L386.863 422.948V423.587C386.863 423.587 364.713 433.734 362.46 435.561C360.207 437.387 358.574 443.232 360.613 443.891Z" fill="#EBEBEB"/>
<path d="M360.615 443.891C362.644 444.561 420.745 444.013 422.946 442.593C423.789 442.065 424.205 433.592 424.408 423.314C424.408 423.202 424.408 423.101 424.408 422.989L386.915 422.918V423.557C386.915 423.557 364.765 433.704 362.512 435.53C360.26 437.357 358.575 443.232 360.615 443.891Z" fill="#20ACE9"/>
<path d="M361.244 441.628C371.036 441.304 410.567 440.888 420.268 441.304C420.349 441.304 420.349 441.364 420.268 441.364C410.567 441.902 371.046 442.004 361.244 441.791C361.041 441.791 361.041 441.638 361.244 441.628Z" fill="#263238"/>
<path d="M382.724 423.1C386.569 422.339 391.288 422.887 394.261 425.607C394.372 425.708 394.261 425.87 394.098 425.84C390.407 424.679 386.599 423.924 382.744 423.587C382.68 423.59 382.617 423.567 382.569 423.523C382.521 423.479 382.493 423.419 382.49 423.354C382.488 423.289 382.511 423.226 382.555 423.179C382.598 423.131 382.659 423.103 382.724 423.1V423.1Z" fill="#263238"/>
<path d="M379.985 424.795C383.831 424.044 388.559 424.592 391.522 427.312C391.644 427.413 391.522 427.576 391.359 427.535C387.666 426.376 383.86 425.614 380.005 425.262C379.954 425.249 379.909 425.221 379.875 425.18C379.842 425.139 379.823 425.089 379.821 425.036C379.818 424.984 379.833 424.932 379.863 424.889C379.892 424.845 379.935 424.812 379.985 424.795V424.795Z" fill="#263238"/>
<path d="M377.224 426.499C381.069 425.749 385.788 426.297 388.761 429.016C388.872 429.117 388.761 429.28 388.598 429.239C384.904 428.089 381.098 427.334 377.244 426.987C377.212 426.988 377.18 426.983 377.15 426.972C377.12 426.961 377.092 426.944 377.069 426.922C377.045 426.901 377.026 426.875 377.013 426.846C376.999 426.817 376.992 426.785 376.99 426.753C376.989 426.721 376.994 426.689 377.005 426.659C377.016 426.629 377.033 426.602 377.055 426.578C377.076 426.554 377.102 426.535 377.131 426.522C377.16 426.508 377.192 426.501 377.224 426.499V426.499Z" fill="#263238"/>
<path d="M366.488 217.324C366.488 217.324 367.31 234.289 371.186 247.764C371.501 248.88 371.836 249.976 372.201 251.021C375.762 252.46 379.186 254.219 382.429 256.277C382.429 256.277 382.835 269.925 383.241 285.155C383.697 302.171 384.164 321.156 384.073 325.184C383.717 340.242 385.95 423.08 385.95 423.08L427.785 423.242C427.785 423.242 420.226 330.744 420.276 325.225C420.358 316.356 418.247 277.149 416.623 248.555C415.609 230.941 414.807 217.364 414.807 217.364L366.488 217.324Z" fill="#37474F"/>
<path d="M387.341 415.592C393.724 415.491 391.897 415.43 398.279 415.399C401.415 415.399 421.962 415.288 424.884 415.785C424.955 415.785 424.945 415.907 424.884 415.917C421.962 416.384 401.405 416.12 398.279 416.079C391.887 415.988 393.724 415.947 387.341 415.785C387.321 415.778 387.303 415.765 387.291 415.748C387.278 415.731 387.271 415.71 387.271 415.689C387.271 415.667 387.278 415.646 387.291 415.629C387.303 415.612 387.321 415.599 387.341 415.592V415.592Z" fill="#263238"/>
<path d="M411.245 223.341C412.017 246.679 412.828 270.017 413.873 293.354C414.919 316.692 416.329 340.171 418.297 363.519C419.383 376.568 420.418 394.923 421.829 407.932C421.829 407.95 421.821 407.968 421.808 407.982C421.794 407.995 421.776 408.003 421.757 408.003C421.739 408.003 421.721 407.995 421.707 407.982C421.694 407.968 421.686 407.95 421.686 407.932C418.642 384.787 416.948 356.183 415.446 332.845C413.944 309.508 412.94 286.17 412.138 262.883C411.692 249.693 411.347 236.502 410.951 223.311C410.951 223.179 411.235 223.199 411.245 223.341Z" fill="#263238"/>
<path d="M370.417 249.966C374.578 251.709 378.58 253.807 382.38 256.237C382.405 256.258 382.421 256.287 382.426 256.318C382.432 256.35 382.427 256.383 382.411 256.411C382.396 256.439 382.372 256.462 382.342 256.474C382.312 256.487 382.279 256.489 382.248 256.48C378.19 254.522 374.131 252.635 370.174 250.453C370.117 250.416 370.076 250.36 370.058 250.295C370.041 250.23 370.048 250.161 370.078 250.101C370.108 250.04 370.159 249.993 370.222 249.969C370.284 249.944 370.354 249.943 370.417 249.966V249.966Z" fill="#263238"/>
<path d="M370.183 235.578C370.457 237.059 370.822 238.53 371.136 240.012C371.451 241.493 371.664 242.812 372.029 244.182C372.33 245.509 373.003 246.723 373.967 247.683C374.515 248.19 375.114 248.637 375.692 249.093C376.007 249.347 376.342 249.59 376.707 249.844C376.707 249.641 376.636 249.448 376.595 249.245C376.504 248.677 376.403 248.119 376.311 247.551C376.098 246.293 375.895 245.045 375.713 243.786C375.327 241.321 374.982 238.825 374.465 236.389C374.465 236.368 374.473 236.347 374.488 236.332C374.504 236.317 374.524 236.308 374.546 236.308C374.567 236.308 374.588 236.317 374.603 236.332C374.618 236.347 374.627 236.368 374.627 236.389C375.236 238.804 375.916 241.199 376.453 243.644C376.717 244.842 377.651 250.747 377.691 251.173C377.732 251.599 377.772 252.036 377.783 252.472C377.843 252.91 377.843 253.354 377.783 253.791C377.783 253.903 377.63 253.882 377.59 253.791C377.414 253.378 377.288 252.945 377.214 252.502C377.103 252.076 377.011 251.65 376.93 251.224C376.93 251.072 376.93 250.909 376.859 250.747C376.281 250.402 375.743 249.935 375.195 249.54C374.647 249.144 374.008 248.697 373.46 248.231C372.43 247.366 371.687 246.209 371.329 244.913C370.972 243.519 370.741 242.096 370.639 240.661C370.447 238.987 370.315 237.303 370.081 235.588C370.01 235.517 370.162 235.517 370.183 235.578Z" fill="#263238"/>
<path d="M388.966 173.55C383.192 183.17 358.526 203.991 349.85 204.437C343.569 204.803 321.764 187.563 315.909 181.495C310.257 175.651 330.754 159.761 334.305 162.967C339.318 167.483 350.297 180.511 352.722 180.927C354.416 181.211 364.898 176.3 381.133 167.026C390.184 161.892 392.416 167.807 388.966 173.55Z" fill="#AD6359"/>
<path d="M326.967 153.826C323.467 151.796 319.621 149.31 315.461 148.661C311.301 148.011 306.907 152.882 306.633 154.444C306.359 156.007 306.217 166.052 310.357 166.773C314.497 167.493 313.31 159.558 313.614 158.726C313.919 157.894 314.274 156.829 315.045 157.042C315.816 157.255 328.347 166.174 328.347 166.174L326.967 153.826Z" fill="#AD6359"/>
<path d="M326.602 154.343C326.369 154.343 316.039 147.981 311.879 147.342C307.719 146.703 303.325 151.553 303.051 153.115C302.777 154.678 302.635 164.723 306.775 165.454C310.915 166.184 309.728 158.24 310.032 157.407C310.337 156.575 310.692 155.5 311.463 155.713C312.234 155.926 324.765 164.845 324.765 164.845L326.602 154.343Z" fill="#AD6359"/>
<path d="M308.268 165.17C308.841 164.508 309.229 163.706 309.394 162.846C309.635 161.978 309.741 161.078 309.709 160.177C309.606 159.394 309.568 158.603 309.597 157.813C309.74 157.047 310.072 156.329 310.561 155.723C310.987 155.195 311.576 155.5 312.042 155.723C312.763 156.151 313.458 156.622 314.122 157.133L316.263 158.757C317.028 159.29 317.757 159.873 318.445 160.502C318.445 160.502 318.445 160.644 318.374 160.604C317.705 160.201 317.059 159.765 316.436 159.295C315.715 158.787 314.985 158.28 314.254 157.793C313.524 157.306 312.915 156.839 312.225 156.393C311.981 156.23 311.505 155.855 311.21 155.875C310.916 155.895 310.591 156.636 310.47 156.89C310.174 157.605 310.09 158.391 310.226 159.153C310.302 159.932 310.302 160.717 310.226 161.497C310.173 162.231 309.987 162.949 309.678 163.617C309.308 164.205 308.869 164.747 308.369 165.231C308.318 165.342 308.207 165.231 308.268 165.17Z" fill="#263238"/>
<path d="M337.835 167.534C337.835 167.534 328.185 155.053 326.166 152.557C322.107 147.555 303.356 135.774 300.596 134.983C297.836 134.191 295.807 139.782 308.46 148.173C315.126 152.597 315.695 156.95 315.147 159.223C314.599 161.496 311.677 165.382 307.841 164.601C304.006 163.82 302.484 157.752 299.054 156.484C295.624 155.215 296.822 162.146 298.668 166.336C300.655 170.429 303.766 173.871 307.638 176.26C310.753 178.086 320.291 184.377 320.291 184.377L337.835 167.534Z" fill="#AD6359"/>
<path d="M303.58 161.04C304.838 162.42 306.228 164.165 308.126 164.571C310.023 164.977 311.596 163.932 312.793 162.481C314.079 161.076 314.776 159.231 314.741 157.326C314.583 155.586 313.928 153.927 312.854 152.547C311.539 150.865 309.983 149.384 308.237 148.154C308.166 148.093 308.237 147.991 308.339 148.042C309.973 149.148 315.097 152.375 315.35 157.438C315.368 159.381 314.642 161.258 313.321 162.684C312.195 164.064 310.693 165.332 308.795 165.15C306.492 164.936 304.848 162.745 303.458 161.091C303.347 161 303.468 160.969 303.58 161.04Z" fill="#263238"/>
<path d="M334.709 163.323L318.799 191.977C318.799 191.977 342.552 205.98 350.254 205.168C357.955 204.356 380.288 186.254 389.035 174.383C394.362 167.158 390.608 161.04 380.238 166.458C369.563 172.019 354.607 179.649 353.541 179.862C352.476 180.075 334.709 163.323 334.709 163.323Z" fill="#20ACE9"/>
<path d="M351.271 184.307C351.034 185.663 350.45 186.936 349.576 188C349.683 187.321 349.888 186.662 350.185 186.042C350.467 185.417 350.833 184.834 351.271 184.307V184.307Z" fill="white"/>
<path d="M329.962 177.904C329.85 178.578 329.645 179.234 329.353 179.852C329.076 180.479 328.71 181.063 328.268 181.587C328.495 180.23 329.08 178.959 329.962 177.904V177.904Z" fill="white"/>
<path d="M373.441 173.297C373.334 173.972 373.128 174.629 372.832 175.245C372.562 175.876 372.196 176.462 371.746 176.98C371.853 176.305 372.058 175.648 372.355 175.032C372.633 174.405 372.998 173.821 373.441 173.297V173.297Z" fill="white"/>
<path d="M349.565 199.79C348.886 199.683 348.226 199.478 347.606 199.181C346.976 198.909 346.391 198.543 345.871 198.096C346.55 198.203 347.21 198.408 347.829 198.705C348.455 198.984 349.039 199.35 349.565 199.79V199.79Z" fill="white"/>
<path d="M326.137 191.612C325.458 191.505 324.798 191.3 324.178 191.003C323.553 190.723 322.969 190.358 322.443 189.917C323.122 190.025 323.782 190.23 324.402 190.526C325.028 190.805 325.612 191.17 326.137 191.612V191.612Z" fill="white"/>
<path d="M336.76 169.107C336.082 169.003 335.422 168.801 334.801 168.508C334.176 168.228 333.592 167.863 333.066 167.422C333.745 167.526 334.404 167.728 335.025 168.021C335.65 168.301 336.234 168.666 336.76 169.107V169.107Z" fill="white"/>
<path d="M363.049 181.587C363.453 182.143 363.774 182.755 364.003 183.404C364.26 184.053 364.417 184.737 364.469 185.433C364.066 184.875 363.741 184.264 363.505 183.617C363.257 182.966 363.103 182.282 363.049 181.587V181.587Z" fill="white"/>
<path d="M338.262 186.173C338.664 186.727 338.985 187.335 339.216 187.979C339.464 188.631 339.618 189.314 339.672 190.009C339.27 189.455 338.949 188.847 338.718 188.203C338.471 187.551 338.317 186.868 338.262 186.173V186.173Z" fill="white"/>
<path d="M382.197 174.474C382.6 175.027 382.921 175.635 383.151 176.28C383.4 176.931 383.554 177.614 383.608 178.309C382.816 177.184 382.331 175.873 382.197 174.504V174.474Z" fill="white"/>
<path d="M374.131 187.929C374.689 187.525 375.3 187.201 375.947 186.965C376.598 186.716 377.282 186.562 377.976 186.508C377.42 186.912 376.809 187.234 376.16 187.462C375.51 187.714 374.826 187.871 374.131 187.929V187.929Z" fill="white"/>
<path d="M341.014 177.681C341.572 177.28 342.183 176.959 342.83 176.727C343.481 176.478 344.164 176.325 344.859 176.271C344.301 176.671 343.69 176.992 343.043 177.224C342.392 177.473 341.709 177.627 341.014 177.681V177.681Z" fill="white"/>
<path d="M357.133 193.722C357.691 193.322 358.302 193.001 358.949 192.769C359.6 192.52 360.284 192.366 360.978 192.312C360.42 192.713 359.809 193.034 359.162 193.266C358.511 193.515 357.828 193.668 357.133 193.722V193.722Z" fill="white"/>
<path d="M332.174 197.801C332.73 197.402 333.337 197.082 333.98 196.847C334.631 196.598 335.314 196.445 336.009 196.391C335.458 196.797 334.849 197.118 334.203 197.344C333.552 197.592 332.869 197.746 332.174 197.801Z" fill="white"/>
<path d="M333.118 181.841C334.132 179.659 338.252 170.933 339.104 168.65C339.104 168.65 339.104 168.579 339.043 168.65C337.816 170.68 333.513 179.132 332.468 181.313C330.279 185.602 328.321 190.005 326.604 194.504C326.604 194.585 326.695 194.667 326.746 194.585C329.15 190.496 331.068 186.133 333.118 181.841Z" fill="#263238"/>
<path d="M389.047 174.434C381.945 184.053 365.923 197.771 356.02 203.068L386.399 164.51C391.858 164.013 393.126 168.893 389.047 174.434Z" fill="#263238"/>
<path d="M419.12 242.529C418.968 242.681 357.671 238.47 357.154 237.821C356.444 236.877 375.844 174.586 380.704 165.434C382.734 161.537 392.688 160.969 396.604 164.662C406.416 173.886 413.245 203.717 414.676 212.657C417.06 227.4 419.668 241.991 419.12 242.529Z" fill="#20ACE9"/>
<path d="M389.898 182.47C389.659 183.823 389.075 185.091 388.203 186.153C388.309 185.477 388.514 184.821 388.812 184.205C389.082 183.574 389.448 182.988 389.898 182.47V182.47Z" fill="white"/>
<path d="M382.878 207.807C382.771 208.482 382.566 209.138 382.269 209.755C381.996 210.384 381.63 210.969 381.184 211.49C381.291 210.814 381.496 210.158 381.792 209.542C382.072 208.916 382.438 208.332 382.878 207.807V207.807Z" fill="white"/>
<path d="M375.927 235.375C375.69 236.732 375.107 238.004 374.232 239.068C374.457 237.708 375.042 236.433 375.927 235.375V235.375Z" fill="white"/>
<path d="M404.265 201.749C404.028 203.105 403.445 204.378 402.57 205.442C402.676 204.763 402.881 204.103 403.179 203.484C403.451 202.854 403.817 202.269 404.265 201.749V201.749Z" fill="white"/>
<path d="M413.165 219.739C413.053 220.413 412.849 221.069 412.556 221.687C412.279 222.314 411.913 222.898 411.471 223.422C411.578 222.747 411.783 222.09 412.08 221.474C412.349 220.843 412.716 220.257 413.165 219.739V219.739Z" fill="white"/>
<path d="M389.046 229.744C388.938 230.421 388.736 231.08 388.447 231.702C388.165 232.329 387.796 232.913 387.352 233.437C387.588 232.08 388.172 230.808 389.046 229.744Z" fill="white"/>
<path d="M370.872 197.102C370.764 197.78 370.559 198.439 370.263 199.06C369.989 199.688 369.623 200.273 369.178 200.795C369.283 200.116 369.488 199.456 369.787 198.837C370.067 198.211 370.432 197.627 370.872 197.102V197.102Z" fill="white"/>
<path d="M397.223 193.915C395.866 193.679 394.593 193.095 393.529 192.221C394.886 192.457 396.159 193.041 397.223 193.915V193.915Z" fill="white"/>
<path d="M402.785 216.238C402.108 216.13 401.449 215.928 400.827 215.639C400.2 215.357 399.616 214.988 399.092 214.543C400.449 214.78 401.721 215.364 402.785 216.238V216.238Z" fill="white"/>
<path d="M399.832 241.291L398.747 241.22L398.331 241.037C397.705 240.757 397.121 240.392 396.596 239.951C397.274 240.058 397.934 240.263 398.554 240.56C399.003 240.762 399.431 241.007 399.832 241.291V241.291Z" fill="white"/>
<path d="M376.92 220.145C376.242 220.041 375.582 219.839 374.962 219.546C374.336 219.266 373.752 218.901 373.227 218.46C373.905 218.564 374.564 218.766 375.185 219.059C375.811 219.339 376.395 219.704 376.92 220.145Z" fill="white"/>
<path d="M397.223 174.494C396.545 174.386 395.886 174.185 395.264 173.896C394.636 173.616 394.052 173.247 393.529 172.8C394.886 173.036 396.159 173.62 397.223 174.494V174.494Z" fill="white"/>
<path d="M402.713 177.751C403.113 178.31 403.434 178.921 403.667 179.568C403.915 180.219 404.069 180.902 404.123 181.597C403.721 181.044 403.4 180.435 403.169 179.791C402.92 179.137 402.766 178.45 402.713 177.751V177.751Z" fill="white"/>
<path d="M410.93 206.386C411.332 206.939 411.653 207.547 411.883 208.192C412.132 208.843 412.286 209.526 412.34 210.221C411.94 209.663 411.619 209.052 411.386 208.405C411.139 207.757 410.985 207.077 410.93 206.386V206.386Z" fill="white"/>
<path d="M410.223 232.158C410.626 232.716 410.951 233.327 411.187 233.974C411.435 234.626 411.589 235.309 411.643 236.004C411.237 235.453 410.916 234.844 410.689 234.198C410.436 233.544 410.279 232.857 410.223 232.158V232.158Z" fill="white"/>
<path d="M381.07 194.281C381.471 194.839 381.792 195.45 382.024 196.097C382.274 196.748 382.428 197.431 382.481 198.126C381.685 197.003 381.199 195.691 381.07 194.321V194.281Z" fill="white"/>
<path d="M390 217.436C390.401 217.994 390.721 218.605 390.954 219.252C391.202 219.903 391.356 220.586 391.41 221.281C391.008 220.728 390.687 220.119 390.457 219.475C390.207 218.821 390.053 218.134 390 217.436V217.436Z" fill="white"/>
<path d="M365.738 226.882C366.137 227.438 366.458 228.045 366.692 228.688C366.941 229.339 367.095 230.022 367.149 230.717C366.353 229.594 365.867 228.282 365.738 226.912V226.882Z" fill="white"/>
<path d="M382.197 174.474C382.6 175.027 382.921 175.635 383.151 176.28C383.4 176.931 383.554 177.614 383.608 178.309C382.816 177.184 382.331 175.873 382.197 174.504V174.474Z" fill="white"/>
<path d="M374.131 187.929C374.689 187.525 375.3 187.201 375.947 186.965C376.598 186.716 377.282 186.562 377.976 186.508C377.42 186.912 376.809 187.234 376.16 187.462C375.51 187.714 374.826 187.871 374.131 187.929V187.929Z" fill="white"/>
<path d="M398.848 228.292C399.406 227.892 400.017 227.571 400.664 227.338C401.315 227.09 401.998 226.936 402.693 226.882C402.135 227.282 401.524 227.603 400.877 227.836C400.226 228.084 399.543 228.238 398.848 228.292V228.292Z" fill="white"/>
<path d="M366.309 210.982C366.865 210.578 367.476 210.257 368.125 210.028C368.776 209.779 369.459 209.625 370.154 209.572C369.601 209.974 368.992 210.295 368.348 210.526C367.694 210.775 367.007 210.929 366.309 210.982V210.982Z" fill="white"/>
<path d="M409.208 190.121C408.729 190.425 408.219 190.677 407.686 190.872C407.035 191.12 406.351 191.274 405.656 191.328C406.213 190.926 406.825 190.605 407.473 190.375C408.006 190.173 408.561 190.033 409.126 189.958C409.16 190.009 409.187 190.064 409.208 190.121V190.121Z" fill="white"/>
<path d="M379.811 228.292C380.369 227.892 380.98 227.571 381.627 227.338C382.278 227.09 382.961 226.936 383.656 226.882C383.098 227.282 382.487 227.603 381.84 227.836C381.189 228.084 380.505 228.238 379.811 228.292V228.292Z" fill="white"/>
<path d="M389.045 203.159C389.603 202.758 390.214 202.437 390.861 202.205C391.512 201.956 392.196 201.803 392.891 201.749C392.332 202.149 391.721 202.47 391.074 202.702C390.423 202.951 389.74 203.105 389.045 203.159Z" fill="white"/>
<path d="M380.329 166.428C380.329 166.428 380.38 166.428 380.329 166.428C379.974 169.198 379.314 175.631 383.698 175.56C385.479 175.364 387.166 174.659 388.558 173.53C390.002 172.512 391.329 171.338 392.515 170.03C393.897 168.61 395.159 167.08 396.29 165.453C396.29 165.382 396.442 165.453 396.391 165.535C395.245 167.158 394.261 168.873 392.952 170.385C391.707 171.868 390.267 173.176 388.67 174.271C387.187 175.422 385.389 176.094 383.515 176.199C382.703 176.183 381.921 175.887 381.303 175.359C380.685 174.832 380.269 174.107 380.126 173.307C379.677 171.028 379.746 168.677 380.329 166.428V166.428Z" fill="#263238"/>
<path d="M336.72 255.202L374.111 251.519L351.92 205.27L314.529 208.953L336.72 255.202Z" fill="#EBEBEB"/>
<path d="M334.16 255.455L371.551 251.772L349.36 205.523L311.969 209.206L334.16 255.455Z" fill="#C7C7C7"/>
<path d="M345.395 205.919C345.564 206.323 345.812 206.69 346.124 206.998C346.435 207.306 346.805 207.55 347.211 207.715C347.586 207.867 347.637 207.39 347.272 207.248C346.752 207.022 346.326 206.624 346.064 206.122C346.023 206.039 345.986 205.954 345.953 205.868C345.821 205.583 345.769 205.267 345.8 204.955C345.821 204.822 345.885 204.701 345.983 204.61V204.61H346.054C346.139 204.579 346.233 204.579 346.318 204.61C346.49 204.641 346.648 204.722 346.775 204.843C346.935 204.977 347.078 205.131 347.201 205.3C347.272 205.381 347.322 205.472 347.393 205.563V205.624C347.414 205.653 347.431 205.683 347.444 205.716C347.444 205.716 347.444 205.716 347.444 205.777L347.972 205.726C347.812 205.409 347.611 205.116 347.373 204.853C347.191 204.622 346.96 204.433 346.697 204.3C346.434 204.167 346.146 204.092 345.851 204.082C345.64 204.098 345.444 204.194 345.302 204.351C345.16 204.507 345.084 204.713 345.09 204.924C345.11 205.275 345.214 205.617 345.395 205.919V205.919Z" fill="#A6A6A6"/>
<path d="M342.462 206.204C342.801 207.015 343.446 207.66 344.258 208C344.633 208.162 344.684 207.685 344.308 207.533C343.788 207.307 343.362 206.91 343.101 206.407C343.101 206.326 343.02 206.234 342.989 206.153C342.865 205.869 342.816 205.558 342.847 205.25C342.866 205.117 342.927 204.992 343.02 204.895H343.152C343.238 204.869 343.329 204.869 343.415 204.895C343.583 204.937 343.739 205.017 343.872 205.128C344.032 205.264 344.172 205.421 344.288 205.595C344.36 205.673 344.425 205.758 344.481 205.849V205.91C344.505 205.937 344.525 205.968 344.542 206.001C344.542 206.001 344.542 206.001 344.542 206.062L345.079 206.011C344.92 205.694 344.719 205.401 344.481 205.138C344.297 204.906 344.065 204.716 343.8 204.583C343.536 204.45 343.245 204.376 342.949 204.367C342.738 204.388 342.542 204.487 342.401 204.645C342.26 204.803 342.184 205.008 342.188 205.22C342.202 205.564 342.295 205.901 342.462 206.204V206.204Z" fill="#A6A6A6"/>
<path d="M339.539 206.498C339.705 206.901 339.949 207.267 340.257 207.575C340.566 207.883 340.932 208.127 341.335 208.294C341.71 208.446 341.751 207.969 341.385 207.827C340.87 207.595 340.445 207.199 340.178 206.701C340.136 206.618 340.099 206.533 340.066 206.447C339.938 206.161 339.889 205.845 339.924 205.534C339.937 205.401 339.998 205.278 340.097 205.189V205.189H340.168C340.253 205.159 340.346 205.159 340.431 205.189C340.603 205.22 340.762 205.301 340.888 205.422C341.053 205.551 341.197 205.705 341.314 205.879C341.385 205.96 341.436 206.051 341.507 206.143V206.203C341.51 206.234 341.51 206.264 341.507 206.295C341.507 206.295 341.507 206.295 341.507 206.356L342.035 206.305C341.878 205.987 341.676 205.693 341.436 205.432C341.253 205.201 341.023 205.012 340.76 204.879C340.497 204.746 340.208 204.671 339.914 204.661C339.702 204.674 339.504 204.77 339.362 204.927C339.22 205.084 339.145 205.291 339.153 205.503C339.197 205.862 339.33 206.203 339.539 206.498V206.498Z" fill="#A6A6A6"/>
<path d="M336.608 206.781C336.948 207.593 337.593 208.238 338.404 208.577C338.78 208.73 338.83 208.253 338.455 208.111C337.938 207.885 337.515 207.487 337.258 206.984C337.212 206.904 337.175 206.819 337.146 206.731C337.015 206.449 336.963 206.137 336.994 205.828C337.011 205.691 337.075 205.565 337.176 205.472V205.472H337.247C337.334 205.452 337.424 205.452 337.511 205.472C337.679 205.515 337.835 205.595 337.968 205.706C338.13 205.839 338.27 205.996 338.384 206.173C338.456 206.251 338.521 206.336 338.577 206.426V206.487C338.6 206.515 338.621 206.546 338.638 206.578C338.638 206.578 338.638 206.578 338.638 206.639L339.165 206.589C339.006 206.272 338.804 205.979 338.567 205.716C338.384 205.485 338.153 205.296 337.89 205.163C337.628 205.03 337.339 204.955 337.045 204.945C336.834 204.96 336.637 205.057 336.495 205.213C336.354 205.37 336.278 205.576 336.284 205.787C336.308 206.14 336.419 206.482 336.608 206.781V206.781Z" fill="#A6A6A6"/>
<path d="M333.686 207.106C333.851 207.508 334.095 207.873 334.403 208.18C334.712 208.487 335.078 208.729 335.482 208.892C335.857 209.054 335.898 208.577 335.532 208.425C335.015 208.2 334.59 207.807 334.325 207.309C334.281 207.224 334.244 207.136 334.213 207.045C334.084 206.763 334.035 206.45 334.071 206.142C334.086 206.007 334.147 205.882 334.244 205.787V205.787H334.294H334.355C334.441 205.762 334.533 205.762 334.619 205.787C334.788 205.827 334.944 205.907 335.076 206.02C335.239 206.155 335.382 206.312 335.502 206.487C335.573 206.568 335.624 206.66 335.695 206.751V206.812C335.715 206.84 335.732 206.871 335.745 206.903C335.745 206.903 335.745 206.903 335.745 206.964H336.273C336.118 206.645 335.92 206.348 335.684 206.081C335.497 205.853 335.264 205.666 335 205.533C334.736 205.4 334.447 205.324 334.152 205.31C333.94 205.326 333.741 205.423 333.599 205.582C333.457 205.741 333.383 205.949 333.391 206.162C333.416 206.495 333.517 206.818 333.686 207.106V207.106Z" fill="#A6A6A6"/>
<path d="M330.753 207.36C331.092 208.171 331.737 208.816 332.549 209.156C332.924 209.308 332.975 208.831 332.61 208.689C332.09 208.463 331.664 208.065 331.402 207.562C331.357 207.482 331.319 207.397 331.291 207.309C331.159 207.024 331.106 206.708 331.138 206.396C331.155 206.262 331.22 206.139 331.321 206.051V206.051H331.392C331.478 206.025 331.57 206.025 331.656 206.051C331.824 206.091 331.981 206.171 332.112 206.284C332.273 206.418 332.416 206.572 332.539 206.741C332.605 206.824 332.666 206.913 332.721 207.004V207.065C332.745 207.093 332.765 207.124 332.782 207.157C332.782 207.157 332.782 207.157 332.782 207.218H333.31C333.15 206.901 332.949 206.607 332.711 206.345C332.529 206.114 332.298 205.925 332.035 205.792C331.772 205.658 331.484 205.584 331.189 205.574C330.978 205.589 330.782 205.686 330.64 205.842C330.498 205.999 330.422 206.205 330.428 206.416C330.46 206.752 330.572 207.075 330.753 207.36V207.36Z" fill="#A6A6A6"/>
<path d="M327.83 207.644C327.996 208.047 328.24 208.413 328.548 208.721C328.857 209.029 329.223 209.273 329.626 209.44C330.001 209.602 330.052 209.125 329.676 208.973C329.159 208.748 328.734 208.355 328.469 207.857L328.357 207.593C328.233 207.309 328.184 206.998 328.215 206.69C328.23 206.555 328.291 206.43 328.388 206.335V206.335H328.449C328.538 206.309 328.633 206.309 328.723 206.335C328.89 206.38 329.045 206.459 329.179 206.568C329.339 206.704 329.479 206.861 329.595 207.035C329.666 207.116 329.727 207.207 329.788 207.289V207.36C329.813 207.385 329.831 207.416 329.839 207.451C329.839 207.451 329.839 207.451 329.839 207.512L330.366 207.451C330.208 207.136 330.011 206.843 329.778 206.578C329.594 206.346 329.362 206.156 329.097 206.023C328.833 205.89 328.542 205.816 328.246 205.807C328.034 205.825 327.837 205.924 327.696 206.082C327.554 206.24 327.479 206.447 327.485 206.659C327.516 207.011 327.635 207.349 327.83 207.644V207.644Z" fill="#A6A6A6"/>
<path d="M324.885 207.938C325.227 208.748 325.872 209.392 326.681 209.734C327.057 209.886 327.107 209.409 326.742 209.267C326.223 209.041 325.796 208.644 325.535 208.141C325.493 208.058 325.456 207.974 325.423 207.887C325.291 207.602 325.239 207.287 325.271 206.974C325.287 206.841 325.352 206.718 325.453 206.629V206.629H325.524C325.611 206.604 325.702 206.604 325.788 206.629C325.96 206.661 326.119 206.742 326.245 206.863C326.405 206.997 326.548 207.15 326.671 207.319C326.742 207.4 326.793 207.492 326.864 207.583V207.644C326.888 207.672 326.908 207.703 326.925 207.735C326.925 207.735 326.925 207.735 326.925 207.796L327.452 207.745C327.293 207.429 327.092 207.135 326.854 206.873C326.671 206.641 326.44 206.453 326.178 206.319C325.915 206.186 325.626 206.112 325.332 206.102C325.121 206.117 324.924 206.213 324.782 206.37C324.641 206.527 324.565 206.732 324.571 206.944C324.597 207.295 324.705 207.635 324.885 207.938Z" fill="#A6A6A6"/>
<path d="M321.974 208.222C322.314 209.034 322.959 209.679 323.77 210.018C324.146 210.181 324.196 209.704 323.821 209.552C323.301 209.326 322.875 208.928 322.613 208.425C322.572 208.343 322.535 208.258 322.502 208.172C322.377 207.888 322.328 207.577 322.36 207.269C322.379 207.135 322.439 207.011 322.532 206.913H322.583H322.654C322.74 206.887 322.832 206.887 322.918 206.913C323.085 206.958 323.24 207.038 323.374 207.147C323.534 207.282 323.674 207.439 323.791 207.614C323.86 207.694 323.925 207.778 323.983 207.867V207.928C323.987 207.958 323.987 207.989 323.983 208.019C323.983 208.019 323.983 208.019 323.983 208.08H324.521C324.362 207.764 324.16 207.47 323.922 207.208C323.739 206.975 323.506 206.786 323.242 206.652C322.977 206.519 322.686 206.445 322.39 206.437C322.179 206.455 321.982 206.553 321.84 206.711C321.699 206.87 321.623 207.076 321.629 207.289C321.673 207.622 321.79 207.941 321.974 208.222Z" fill="#A6A6A6"/>
<path d="M319.052 208.517C319.388 209.327 320.029 209.973 320.838 210.313C321.214 210.465 321.264 209.988 320.899 209.846C320.381 209.617 319.956 209.22 319.692 208.72C319.65 208.637 319.613 208.552 319.58 208.466C319.448 208.181 319.396 207.865 319.428 207.553C319.448 207.421 319.513 207.299 319.61 207.208V207.208H319.681C319.767 207.178 319.86 207.178 319.945 207.208C320.117 207.239 320.276 207.32 320.402 207.441C320.564 207.573 320.708 207.727 320.828 207.898C320.899 207.979 320.95 208.07 321.021 208.162V208.222C321.041 208.251 321.058 208.281 321.071 208.314C321.071 208.314 321.071 208.314 321.071 208.375L321.599 208.324C321.442 208.006 321.241 207.712 321 207.451C320.818 207.22 320.587 207.031 320.324 206.898C320.062 206.765 319.773 206.691 319.478 206.68C319.267 206.693 319.068 206.789 318.926 206.946C318.784 207.104 318.709 207.31 318.717 207.522C318.746 207.876 318.861 208.217 319.052 208.517V208.517Z" fill="#A6A6A6"/>
<path d="M316.12 208.8C316.46 209.612 317.105 210.257 317.916 210.596C318.292 210.749 318.343 210.272 317.967 210.13C317.449 209.901 317.024 209.504 316.76 209.003C316.76 208.922 316.678 208.831 316.648 208.75C316.524 208.466 316.476 208.155 316.506 207.847C316.525 207.713 316.586 207.589 316.678 207.492V207.492H316.75C316.836 207.466 316.927 207.466 317.013 207.492C317.181 207.534 317.337 207.614 317.47 207.725C317.63 207.86 317.77 208.017 317.886 208.192C317.958 208.27 318.023 208.355 318.079 208.445V208.506C318.103 208.532 318.121 208.563 318.129 208.597C318.129 208.597 318.129 208.597 318.129 208.658L318.667 208.608C318.508 208.291 318.306 207.998 318.069 207.735C317.885 207.502 317.653 207.313 317.388 207.18C317.123 207.046 316.833 206.973 316.536 206.964C316.327 206.984 316.133 207.082 315.993 207.237C315.852 207.393 315.774 207.596 315.775 207.806C315.81 208.16 315.928 208.501 316.12 208.8Z" fill="#A6A6A6"/>
<path d="M313.197 209.136C313.363 209.539 313.607 209.905 313.916 210.213C314.224 210.521 314.59 210.766 314.993 210.932C315.368 211.084 315.409 210.607 315.044 210.465C314.528 210.233 314.104 209.837 313.836 209.339C313.793 209.254 313.755 209.165 313.724 209.075C313.595 208.793 313.546 208.48 313.582 208.172C313.595 208.04 313.657 207.917 313.755 207.827C313.755 207.827 313.755 207.827 313.755 207.827H313.826C313.912 207.802 314.004 207.802 314.09 207.827C314.26 207.867 314.418 207.951 314.546 208.07C314.711 208.2 314.855 208.354 314.973 208.527C315.044 208.608 315.094 208.7 315.165 208.791V208.852C315.186 208.88 315.203 208.911 315.216 208.943C315.216 208.943 315.216 208.943 315.216 209.004L315.744 208.953C315.585 208.634 315.383 208.337 315.145 208.07C314.963 207.839 314.732 207.65 314.469 207.517C314.206 207.384 313.917 207.31 313.623 207.299C313.41 207.315 313.212 207.413 313.07 207.572C312.928 207.731 312.854 207.939 312.862 208.152C312.893 208.502 313.008 208.84 313.197 209.136V209.136Z" fill="#A6A6A6"/>
<path d="M403.932 172.607C413.936 186.539 435.468 218.359 429.116 225.705C418.665 237.8 393.176 248.383 385.191 250.778C381.741 251.793 369.402 226.76 372.659 224.701C376.556 222.225 401.527 212.413 401.649 211.205C401.77 209.998 397.113 192.748 395.561 179.223C393.673 162.46 399.751 166.793 403.932 172.607Z" fill="#AD6359"/>
<path d="M385.209 222.945C385.209 222.945 374.707 219.901 367.746 218.176C363.86 217.233 357.052 216.208 353.886 216.817C349.137 217.73 329.889 224.589 331.451 229.297C332.862 233.559 348.701 225.563 348.701 225.563C348.701 225.563 332.05 232.219 334.698 237.029C337.347 241.839 353.977 230.444 353.977 230.444C353.977 230.444 337.032 237.668 340.543 242.204C343.201 245.623 358.858 236.116 358.858 236.116C358.858 236.116 344.328 242.427 346.905 246.06C349.756 250.118 364.753 242.244 364.753 242.244C372.87 250.362 379.902 251.478 385.229 250.747C386.427 250.605 385.209 222.945 385.209 222.945Z" fill="#AD6359"/>
<path d="M353.494 223.23C340.851 227.197 335.869 233.011 336.041 232.889C339.907 229.845 346.706 226.598 348.623 225.705C350.541 224.813 351.617 224.183 353.524 223.301C353.575 223.28 353.545 223.22 353.494 223.23Z" fill="#263238"/>
<path d="M357.59 229.744C352.411 231.128 347.521 233.427 343.151 236.532C342.999 236.654 343.09 236.694 343.273 236.603C345.678 235.406 355.195 230.9 357.651 229.835L357.59 229.744Z" fill="#263238"/>
<path d="M361.498 235.111C357.505 236.264 353.761 238.149 350.458 240.672C350.286 240.794 350.458 240.844 350.621 240.743C354.253 238.825 357.094 237.303 361.549 235.243C361.62 235.213 361.579 235.081 361.498 235.111Z" fill="#263238"/>
<path d="M380.34 220.825L394.393 250.809C394.393 250.809 427.877 232.747 430.445 224.254C433.012 215.762 410.151 178.442 403.261 170.822C396.372 163.201 394.129 166.326 394.282 175.022C394.434 183.718 401.313 210.79 401.141 211.287C400.968 211.784 380.34 220.825 380.34 220.825Z" fill="#20ACE9"/>
<path d="M404.265 201.749C404.028 203.105 403.445 204.378 402.57 205.442C402.676 204.763 402.881 204.103 403.179 203.484C403.451 202.854 403.817 202.269 404.265 201.749V201.749Z" fill="white"/>
<path d="M413.165 219.739C413.053 220.413 412.849 221.069 412.556 221.687C412.279 222.314 411.913 222.898 411.471 223.422C411.578 222.747 411.783 222.09 412.08 221.474C412.349 220.843 412.716 220.257 413.165 219.739V219.739Z" fill="white"/>
<path d="M389.046 229.744C388.938 230.421 388.736 231.08 388.447 231.702C388.165 232.329 387.796 232.913 387.352 233.437C387.588 232.08 388.172 230.808 389.046 229.744Z" fill="white"/>
<path d="M402.785 216.238C402.108 216.13 401.449 215.928 400.827 215.639C400.2 215.357 399.616 214.988 399.092 214.543C400.449 214.78 401.721 215.364 402.785 216.238V216.238Z" fill="white"/>
<path d="M400.289 241.605C399.61 241.498 398.951 241.293 398.331 240.996C397.705 240.716 397.121 240.351 396.596 239.911C397.953 240.147 399.225 240.731 400.289 241.605V241.605Z" fill="white"/>
<path d="M426.174 224.924C424.817 224.687 423.545 224.103 422.48 223.229C423.16 223.335 423.819 223.54 424.439 223.838C425.069 224.11 425.654 224.476 426.174 224.924V224.924Z" fill="white"/>
<path d="M418.625 196.391C417.946 196.284 417.287 196.079 416.667 195.782C416.037 195.51 415.452 195.144 414.932 194.697C416.288 194.933 417.561 195.517 418.625 196.391V196.391Z" fill="white"/>
<path d="M397.225 174.494C396.548 174.386 395.889 174.184 395.267 173.896C394.918 173.737 394.579 173.558 394.252 173.358C394.252 173.226 394.252 173.094 394.252 172.972C394.662 173.086 395.062 173.231 395.449 173.408C396.089 173.685 396.687 174.051 397.225 174.494Z" fill="white"/>
<path d="M402.713 177.751C403.113 178.31 403.434 178.921 403.667 179.568C403.915 180.219 404.069 180.902 404.123 181.597C403.721 181.044 403.4 180.435 403.169 179.791C402.92 179.137 402.766 178.45 402.713 177.751V177.751Z" fill="white"/>
<path d="M410.93 206.386C411.332 206.939 411.653 207.547 411.883 208.192C412.132 208.843 412.286 209.526 412.34 210.221C411.94 209.663 411.619 209.052 411.386 208.405C411.139 207.757 410.985 207.077 410.93 206.386V206.386Z" fill="white"/>
<path d="M410.223 232.158C410.626 232.716 410.951 233.327 411.187 233.974C411.435 234.626 411.589 235.309 411.643 236.004C411.237 235.453 410.916 234.844 410.689 234.198C410.436 233.544 410.279 232.857 410.223 232.158V232.158Z" fill="white"/>
<path d="M390 217.436C390.401 217.994 390.721 218.605 390.954 219.252C391.202 219.903 391.356 220.586 391.41 221.281C391.008 220.728 390.687 220.119 390.457 219.475C390.207 218.821 390.053 218.134 390 217.436V217.436Z" fill="white"/>
<path d="M398.848 228.292C399.406 227.892 400.017 227.571 400.664 227.338C401.315 227.09 401.998 226.936 402.693 226.882C402.135 227.282 401.524 227.603 400.877 227.836C400.226 228.084 399.543 228.238 398.848 228.292V228.292Z" fill="white"/>
<path d="M405.686 191.328C406.811 190.537 408.122 190.051 409.491 189.917C408.937 190.32 408.329 190.641 407.684 190.871C407.043 191.117 406.37 191.271 405.686 191.328Z" fill="white"/>
<path d="M421.83 212.18C422.384 211.778 422.992 211.456 423.636 211.226C424.287 210.977 424.971 210.824 425.666 210.77C425.112 211.172 424.504 211.493 423.859 211.723C423.208 211.971 422.525 212.125 421.83 212.18V212.18Z" fill="white"/>
<path d="M383.629 226.882C383.518 226.965 383.403 227.043 383.284 227.115L383.203 226.933C383.344 226.906 383.486 226.889 383.629 226.882V226.882Z" fill="white"/>
<path d="M398.644 198.502C398.197 196.472 397.751 194.443 397.315 192.413C397.101 191.399 396.878 190.293 396.645 189.238L396.31 187.776C396.259 187.543 396.178 187.299 396.138 187.056C395.995 186.163 396.138 186.954 395.894 186.092C395.894 186.031 395.793 186.092 395.793 186.092C395.853 186.65 395.742 186.427 395.843 186.853C395.945 187.279 395.965 187.482 396.016 187.807C396.087 188.304 396.168 188.821 396.239 189.288C396.401 190.303 396.584 191.318 396.777 192.332C396.777 192.464 396.777 192.596 396.858 192.728C396.862 192.694 396.862 192.66 396.858 192.627C396.493 191.531 396.107 190.455 395.722 189.369H395.64C395.904 190.496 396.198 191.602 396.564 192.698C396.767 193.327 397.02 193.946 397.264 194.554C397.528 195.894 397.791 197.233 398.065 198.613C398.938 202.743 399.841 206.893 401.038 210.941C399.283 211.743 397.497 212.463 395.742 213.275C393.986 214.087 392.241 214.919 390.486 215.751C388.73 216.583 386.995 217.405 385.26 218.257L382.723 219.465C381.831 219.921 380.978 220.479 380.075 220.916C379.984 220.916 380.075 221.088 380.156 221.048C381.1 220.611 382.105 220.307 383.048 219.891C383.992 219.475 384.722 219.181 385.554 218.805C387.32 218.014 389.075 217.192 390.831 216.37C392.586 215.548 394.342 214.736 396.087 213.894C397.832 213.052 399.527 212.129 401.262 211.286C401.368 211.19 401.439 211.062 401.465 210.921C400.633 206.771 399.577 202.641 398.644 198.502Z" fill="#263238"/>
<path d="M394.311 232.656C393.297 230.484 389.025 221.819 387.797 219.749H387.736C388.507 221.951 392.455 230.616 393.5 232.798C395.476 237.204 397.691 241.499 400.136 245.664C400.136 245.735 400.318 245.664 400.278 245.603C398.583 241.169 396.381 236.938 394.311 232.656Z" fill="#263238"/>
<path d="M418.523 235.974C417.751 236.421 417.031 236.989 416.3 237.466L414.028 239.038C412.56 240.109 411.039 241.104 409.472 242.022C409.38 242.022 409.472 242.204 409.553 242.153C411.156 241.24 412.79 240.388 414.342 239.383C415.882 238.447 417.311 237.341 418.604 236.086C418.614 236.074 418.62 236.058 418.621 236.042C418.621 236.027 418.616 236.011 418.607 235.998C418.598 235.985 418.584 235.976 418.569 235.971C418.554 235.967 418.537 235.968 418.523 235.974Z" fill="#263238"/>
<path d="M383.739 172.607C386.854 173.125 392.465 167.656 394.302 163.719C394.423 163.445 393.845 160.675 393.287 157.387C392.962 155.358 392.648 153.095 392.506 151.005C392.506 150.579 391.075 151.462 391.075 151.462L388.416 152.294L379.619 155.043C380.537 157.606 381.14 160.27 381.415 162.978C381.441 163.265 381.441 163.554 381.415 163.841C381.415 163.841 381.415 163.932 381.415 163.993C381.192 165.606 380.695 172.059 383.739 172.607Z" fill="#AD6359"/>
<path d="M381.354 163.81C381.354 163.81 381.354 163.902 381.354 163.962C381.806 163.997 382.261 163.997 382.713 163.962C391.511 163.181 391.846 151.898 391.846 151.898L388.375 152.284L379.578 155.033C380.496 157.596 381.099 160.26 381.374 162.968C381.392 163.249 381.385 163.531 381.354 163.81V163.81Z" fill="#263238"/>
<path d="M393.764 136.921C395.245 141.558 392.972 155.033 389.705 158.077C384.956 162.481 377.113 162.998 373.338 157.286C369.685 151.735 372.963 134.232 376.626 131.452C382.024 127.373 391.582 130.072 393.764 136.921Z" fill="#AD6359"/>
<path d="M380.693 145.82C380.693 145.82 380.764 145.881 380.754 145.912C380.572 146.815 380.521 147.88 381.292 148.316C381.292 148.316 381.292 148.377 381.292 148.367C380.247 148.063 380.328 146.652 380.693 145.82Z" fill="#263238"/>
<path d="M381.619 145.008C383.09 145.14 382.725 148.052 381.355 147.961C379.985 147.869 380.371 144.896 381.619 145.008Z" fill="#263238"/>
<path d="M375.48 145.007C375.48 145.007 375.409 145.007 375.409 145.078C375.317 145.992 375.064 147.037 374.201 147.229V147.29C375.236 147.24 375.551 145.89 375.48 145.007Z" fill="#263238"/>
<path d="M374.79 143.952C373.329 143.658 372.852 146.591 374.201 146.864C375.551 147.138 376.007 144.196 374.79 143.952Z" fill="#263238"/>
<path d="M382.946 143.801C382.571 143.64 382.206 143.46 381.85 143.263C381.435 143.126 381.078 142.855 380.835 142.492C380.779 142.364 380.768 142.222 380.803 142.088C380.838 141.954 380.917 141.835 381.028 141.751C381.266 141.612 381.538 141.539 381.814 141.539C382.09 141.539 382.362 141.612 382.601 141.751C383.126 141.97 383.55 142.379 383.788 142.897C383.847 143.018 383.869 143.153 383.85 143.286C383.83 143.419 383.771 143.542 383.679 143.641C383.588 143.739 383.469 143.807 383.337 143.835C383.206 143.864 383.07 143.852 382.946 143.801Z" fill="#263238"/>
<path d="M373.836 142.329C374.252 142.329 374.627 142.228 375.043 142.167C375.476 142.173 375.897 142.033 376.241 141.771C376.336 141.67 376.394 141.54 376.405 141.401C376.416 141.263 376.38 141.125 376.302 141.01C376.119 140.8 375.883 140.644 375.618 140.558C375.354 140.472 375.071 140.46 374.8 140.523C374.232 140.559 373.699 140.809 373.308 141.223C373.224 141.322 373.17 141.442 373.152 141.571C373.135 141.7 373.156 141.831 373.212 141.948C373.268 142.065 373.356 142.164 373.467 142.231C373.578 142.299 373.706 142.333 373.836 142.329V142.329Z" fill="#263238"/>
<path d="M380.837 154.099C380.583 154.292 380.329 154.556 379.995 154.546C379.655 154.496 379.33 154.375 379.041 154.191C379.041 154.191 378.98 154.191 379.041 154.191C379.146 154.388 379.304 154.553 379.498 154.666C379.691 154.779 379.913 154.835 380.137 154.83C380.327 154.801 380.505 154.72 380.651 154.594C380.796 154.468 380.903 154.304 380.958 154.12C380.938 154.099 380.867 154.079 380.837 154.099Z" fill="#263238"/>
<path d="M380.208 151.298C379.932 151.63 379.59 151.902 379.204 152.096C378.818 152.289 378.396 152.401 377.965 152.425C377.587 152.45 377.208 152.419 376.839 152.333C376.766 152.326 376.694 152.309 376.626 152.283H376.433C376.387 152.266 376.346 152.236 376.317 152.196C376.288 152.156 376.272 152.109 376.271 152.059V152.059C376.271 152.059 376.271 151.998 376.271 151.968V151.887C376.332 151.187 376.534 150.121 376.534 150.121C376.26 150.223 374.881 150.649 374.941 150.284C375.422 147.123 376.221 144.019 377.326 141.02C377.326 140.998 377.334 140.977 377.35 140.962C377.365 140.947 377.386 140.938 377.407 140.938C377.429 140.938 377.449 140.947 377.464 140.962C377.48 140.977 377.488 140.998 377.488 141.02C377.062 143.942 376.129 146.773 375.662 149.705C376.153 149.54 376.666 149.451 377.184 149.441C377.275 149.441 376.758 151.471 376.748 151.806C377.317 151.935 377.907 151.948 378.482 151.845C379.057 151.742 379.606 151.525 380.096 151.207C380.208 151.116 380.279 151.187 380.208 151.298Z" fill="#263238"/>
<path d="M377.297 151.979C377.625 152.542 378.098 153.008 378.667 153.328C378.975 153.5 379.331 153.567 379.681 153.521C380.442 153.419 380.544 152.75 380.473 152.161C380.443 151.849 380.371 151.542 380.26 151.248C379.378 151.807 378.338 152.064 377.297 151.979V151.979Z" fill="#263238"/>
<path d="M378.666 153.328C378.975 153.5 379.331 153.567 379.681 153.521C380.442 153.419 380.543 152.75 380.472 152.161C380.083 152.121 379.692 152.214 379.363 152.426C379.035 152.639 378.789 152.957 378.666 153.328V153.328Z" fill="#FF98B9"/>
<path d="M373.938 137.357C378.23 140.635 384.552 136.343 384.552 136.343C384.881 137.33 385.52 138.185 386.373 138.781C387.227 139.377 388.25 139.682 389.29 139.65C389.29 139.65 389.788 147.22 391.766 147.311C394.81 147.443 396.251 137.225 395.399 135.135C395.054 134.471 394.574 133.887 393.99 133.419C393.407 132.95 392.732 132.609 392.01 132.416C391.784 131.198 391.106 130.111 390.112 129.372C388.083 127.687 380.899 129.453 380.899 129.453C380.539 128.479 379.955 127.603 379.194 126.896C379.013 126.72 378.798 126.583 378.563 126.492C378.327 126.401 378.075 126.36 377.823 126.369C377.571 126.379 377.323 126.439 377.095 126.547C376.867 126.655 376.663 126.808 376.495 126.997C376.841 127.576 377.056 128.224 377.124 128.895C377.368 131.117 375.562 131.026 375.684 129.027C375.702 128.275 375.99 127.555 376.495 126.997C375.673 125.648 374.243 125.151 373.329 125.8C371.665 126.947 370.367 134.638 373.938 137.357Z" fill="#263238"/>
<path d="M391.046 147.91C391.046 147.91 394.09 143.588 396.12 144.683C398.149 145.779 395.754 152.07 393.431 152.912C393.141 153.043 392.827 153.113 392.509 153.118C392.191 153.123 391.875 153.064 391.581 152.943C391.287 152.823 391.02 152.644 390.797 152.417C390.575 152.19 390.4 151.92 390.285 151.624L391.046 147.91Z" fill="#AD6359"/>
<path d="M381.293 163.728L384.489 171.43L393.997 161.537L396.757 164.642C396.757 164.642 387.533 180.308 387.462 179.608L384.195 172.972L379.68 177.68L379.913 166.032L381.293 163.728Z" fill="white"/>
<path d="M379.437 171.896C379.548 169.968 379.599 168.03 379.792 166.123C379.792 166.052 379.903 166.021 379.924 166.123C380.33 167.969 379.924 175.316 379.924 177.081C380.117 176.878 384.145 172.951 384.185 173.023C384.896 174.037 387.29 178.897 387.453 179.344C388.914 176.858 394.505 167.807 396.24 165.453C396.291 165.382 396.402 165.453 396.362 165.514C395.073 168.142 387.666 180.318 387.554 180.288C386.294 178.011 385.153 175.671 384.135 173.276C383.455 174.129 379.396 178.563 379.376 178.268C379.288 176.145 379.308 174.018 379.437 171.896V171.896Z" fill="#263238"/>
</svg>
