<svg width="104" height="104" viewBox="0 0 104 104" fill="none" xmlns="http://www.w3.org/2000/svg">
<path d="M52.7239 9.82227C44.2952 9.82227 36.0557 12.3217 29.0475 17.0044C22.0392 21.6872 16.577 28.343 13.3514 36.1301C10.1259 43.9172 9.28194 52.486 10.9263 60.7528C12.5707 69.0196 16.6295 76.6131 22.5895 82.5731C28.5495 88.5331 36.1431 92.5919 44.4098 94.2363C52.6766 95.8807 61.2454 95.0367 69.0325 91.8112C76.8196 88.5856 83.4754 83.1234 88.1582 76.1151C92.8409 69.1069 95.3403 60.8675 95.3403 52.4387C95.3403 41.1361 90.8504 30.2965 82.8583 22.3043C74.8661 14.3122 64.0265 9.82227 52.7239 9.82227ZM52.7239 72.3061C48.788 72.3061 44.9406 71.1389 41.6682 68.952C38.3958 66.7652 35.8455 63.6569 34.3397 60.0205C32.834 56.3841 32.4406 52.3827 33.2091 48.5227C33.9777 44.6626 35.8738 41.1172 38.6576 38.3348C41.4414 35.5524 44.9878 33.6582 48.8482 32.8915C52.7087 32.1249 56.7098 32.5204 60.3455 34.028C63.9812 35.5356 67.0881 38.0875 69.2733 41.361C71.4584 44.6345 72.6237 48.4826 72.6217 52.4184C72.6163 57.6912 70.5173 62.746 66.786 66.4716C63.0547 70.1972 57.9967 72.2885 52.7239 72.2858V72.3061Z" fill="#455A64"/>
<path d="M60.9101 11.5876H44.5332L45.4363 0H60.007L60.9101 11.5876Z" fill="#455A64"/>
<path d="M29.7306 17.1077L18.1531 28.6953L10.5938 19.8575L20.8927 9.54834L29.7306 17.1077Z" fill="#455A64"/>
<path d="M11.5876 43.063V59.4399L0 58.5368V43.9661L11.5876 43.063Z" fill="#455A64"/>
<path d="M17.1082 74.2344L28.6958 85.822L19.858 93.3813L9.54883 83.0824L17.1082 74.2344Z" fill="#455A64"/>
<path d="M43.0527 92.3867H59.4398L58.5367 103.974H43.9659L43.0527 92.3867Z" fill="#455A64"/>
<path d="M74.2344 86.8664L85.822 75.2788L93.3813 84.1167L83.0722 94.4258L74.2344 86.8664Z" fill="#455A64"/>
<path d="M92.3789 60.9111V44.5342L103.977 45.4372V60.008L92.3789 60.9111Z" fill="#455A64"/>
<path d="M86.8689 29.7306L75.2812 18.1531L84.1191 10.5938L94.4181 20.8927L86.8689 29.7306Z" fill="#455A64"/>
</svg>
