<svg width="24" height="20" viewBox="0 0 24 20" fill="none" xmlns="http://www.w3.org/2000/svg">
<path fill-rule="evenodd" clip-rule="evenodd" d="M0 10C0 9.62119 0.158018 9.25789 0.439291 8.99003C0.720564 8.72217 1.10205 8.57169 1.49983 8.57169H18.8769L12.4366 2.44136C12.155 2.17317 11.9968 1.80941 11.9968 1.43012C11.9968 1.05083 12.155 0.687071 12.4366 0.418872C12.7182 0.150673 13.1002 0 13.4985 0C13.8968 0 14.2787 0.150673 14.5604 0.418872L23.5594 8.98875C23.699 9.12143 23.8099 9.27905 23.8855 9.45257C23.9611 9.6261 24 9.81213 24 10C24 10.1879 23.9611 10.3739 23.8855 10.5474C23.8099 10.721 23.699 10.8786 23.5594 11.0112L14.5604 19.5811C14.2787 19.8493 13.8968 20 13.4985 20C13.1002 20 12.7182 19.8493 12.4366 19.5811C12.155 19.3129 11.9968 18.9492 11.9968 18.5699C11.9968 18.1906 12.155 17.8268 12.4366 17.5586L18.8769 11.4283H1.49983C1.10205 11.4283 0.720564 11.2778 0.439291 11.01C0.158018 10.7421 0 10.3788 0 10Z" fill="#FF6551"/>
</svg>
