<svg width="448" height="432" viewBox="0 0 448 432" fill="none" xmlns="http://www.w3.org/2000/svg">
<path d="M12.0475 159.187C12.5209 158.903 13.0628 158.753 13.6151 158.753C14.1674 158.753 14.7094 158.903 15.1828 159.187L15.9844 159.644L16.8164 160.06C17.3273 160.291 17.7643 160.659 18.0794 161.123C18.3946 161.586 18.5755 162.128 18.6023 162.688L18.7139 166.544L31.2857 166.148L31.164 162.292C31.157 161.74 31.3006 161.195 31.5795 160.718C31.8583 160.241 32.2619 159.848 32.7469 159.583C33.296 159.274 33.8278 158.936 34.3399 158.568C34.7925 158.257 35.321 158.073 35.8694 158.037C36.4179 158.002 36.9658 158.115 37.455 158.366L40.8541 160.192L46.8001 149.102L43.401 147.285C42.9155 147.029 42.5105 146.642 42.2311 146.17C41.9517 145.697 41.8087 145.156 41.8181 144.607C41.8299 143.98 41.8062 143.353 41.7471 142.729C41.7019 142.179 41.8075 141.626 42.0524 141.131C42.2973 140.636 42.6722 140.217 43.1372 139.919L46.4146 137.889L39.7887 127.205L36.491 129.234C36.021 129.523 35.4801 129.676 34.9284 129.676C34.3767 129.676 33.8358 129.523 33.3658 129.234L32.5642 128.778L31.7931 128.372C31.2924 128.139 30.8645 127.774 30.5553 127.316C30.246 126.859 30.0671 126.326 30.0377 125.774L29.9159 121.908L17.3035 122.284L17.4252 126.129C17.4323 126.682 17.2886 127.226 17.0098 127.704C16.7309 128.181 16.3273 128.573 15.8423 128.838C15.2933 129.148 14.7615 129.486 14.2493 129.853C13.7956 130.167 13.2653 130.352 12.7148 130.387C12.1643 130.423 11.6145 130.309 11.1241 130.056L7.73507 128.23L1.78906 139.32L5.17808 141.136C5.65927 141.404 6.05874 141.798 6.33392 142.275C6.6091 142.752 6.74969 143.295 6.74069 143.846C6.74069 144.475 6.76098 145.104 6.80157 145.733C6.84102 146.278 6.73275 146.824 6.48813 147.314C6.24351 147.803 5.87158 148.217 5.41146 148.513L2.1442 150.542L8.77004 161.227L12.0475 159.187ZM15.1929 139.34C16.1556 137.546 17.6285 136.077 19.4256 135.12C21.2226 134.162 23.2632 133.759 25.2895 133.961C27.3157 134.163 29.2366 134.961 30.8095 136.254C32.3823 137.547 33.5365 139.278 34.1261 141.227C34.7158 143.176 34.7145 145.256 34.1223 147.204C33.5302 149.152 32.3738 150.881 30.7993 152.172C29.2248 153.464 27.3029 154.259 25.2764 154.459C23.25 154.658 21.2099 154.252 19.414 153.292C17.0045 152.001 15.2063 149.807 14.4148 147.19C13.6232 144.574 13.9031 141.75 15.1929 139.34V139.34Z" fill="#EBEBEB"/>
<path d="M47.6219 114.451C47.8214 114.118 48.1089 113.848 48.4528 113.668C48.7967 113.489 49.1834 113.409 49.5701 113.436H50.8689C51.2541 113.41 51.6391 113.491 51.9812 113.67C52.3233 113.849 52.6091 114.119 52.8069 114.451L54.1159 116.785L61.7462 112.381L60.3967 110.047C60.205 109.709 60.1111 109.323 60.1254 108.935C60.1397 108.546 60.2618 108.169 60.4779 107.845C60.716 107.479 60.9328 107.1 61.1273 106.709C61.3023 106.363 61.5691 106.073 61.8985 105.868C62.2278 105.664 62.6069 105.555 62.9943 105.552H65.6933V96.7447H63.0349C62.6562 96.7327 62.2877 96.6189 61.9681 96.4154C61.6485 96.2119 61.3896 95.926 61.2186 95.588C61.0242 95.197 60.8073 94.8175 60.5692 94.4515C60.3529 94.13 60.2306 93.7545 60.2163 93.3672C60.2019 92.98 60.2961 92.5964 60.488 92.2598L61.8376 89.9159L54.1159 85.5122L52.7562 87.8663C52.5592 88.1963 52.275 88.4656 51.9349 88.6446C51.5948 88.8236 51.2119 88.9054 50.8283 88.8809H49.5701C49.1834 88.9081 48.7967 88.8277 48.4528 88.6486C48.1089 88.4695 47.8214 88.1987 47.6219 87.8663L46.2724 85.5224L38.642 89.9261L39.9915 92.2598C40.1827 92.5962 40.2773 92.9789 40.2648 93.3657C40.2522 93.7524 40.1331 94.1282 39.9205 94.4515C39.679 94.8209 39.4588 95.2037 39.261 95.5981C39.0859 95.9437 38.8191 96.2344 38.4898 96.4385C38.1605 96.6425 37.7814 96.7519 37.394 96.7548H34.7051V105.562H37.394C37.7814 105.565 38.1605 105.675 38.4898 105.879C38.8191 106.083 39.0859 106.373 39.261 106.719C39.4588 107.113 39.679 107.496 39.9205 107.866C40.1331 108.189 40.2522 108.565 40.2648 108.951C40.2773 109.338 40.1827 109.721 39.9915 110.057L38.642 112.391L46.2724 116.795L47.6219 114.451ZM42.9544 101.148C42.9544 99.722 43.3773 98.3275 44.1695 97.1414C44.9618 95.9552 46.088 95.0305 47.4056 94.4842C48.7233 93.9378 50.1733 93.7944 51.5725 94.0719C52.9717 94.3495 54.2571 95.0356 55.2665 96.0435C56.2758 97.0514 56.9637 98.336 57.2433 99.7347C57.5228 101.134 57.3813 102.584 56.8369 103.902C56.2924 105.221 55.3693 106.348 54.1842 107.142C52.9992 107.936 51.6053 108.361 50.1789 108.363C48.2646 108.363 46.4286 107.603 45.074 106.25C43.7194 104.898 42.9571 103.063 42.9544 101.148V101.148Z" fill="#EBEBEB"/>
<path d="M355.233 13.8045C355.565 14.004 355.836 14.2916 356.015 14.6354C356.194 14.9793 356.274 15.366 356.247 15.7527C356.247 15.9658 356.247 16.1789 356.247 16.4021C356.247 16.6253 356.247 16.8384 356.247 17.0515C356.274 17.4367 356.193 17.8218 356.014 18.1639C355.835 18.506 355.564 18.7917 355.233 18.9895L352.889 20.3391L357.292 27.9694L359.626 26.6199C359.965 26.4282 360.35 26.3343 360.739 26.3486C361.127 26.3629 361.504 26.485 361.828 26.7011C362.193 26.9345 362.569 27.1577 362.964 27.3606C363.31 27.5331 363.601 27.7979 363.805 28.1256C364.009 28.4534 364.119 28.8313 364.121 29.2175V31.9165H372.929V29.2175C372.931 28.8313 373.04 28.4534 373.245 28.1256C373.449 27.7979 373.74 27.5331 374.085 27.3606C374.481 27.1577 374.856 26.9345 375.222 26.7011C375.545 26.485 375.922 26.3629 376.311 26.3486C376.7 26.3343 377.085 26.4282 377.424 26.6199L379.757 27.9694L384.161 20.3391L381.858 18.9794C381.528 18.7824 381.258 18.4982 381.079 18.1581C380.9 17.818 380.819 17.4351 380.843 17.0515C380.843 16.8283 380.843 16.6152 380.843 16.4021C380.843 16.189 380.843 15.9658 380.843 15.7527C380.816 15.366 380.896 14.9793 381.075 14.6354C381.254 14.2916 381.525 14.004 381.858 13.8045L384.202 12.455L379.798 4.82464L377.464 6.17416C377.128 6.36761 376.745 6.46347 376.358 6.45092C375.971 6.43837 375.595 6.31792 375.272 6.10314C374.903 5.86164 374.52 5.64143 374.126 5.44359C373.772 5.27292 373.474 5.00657 373.264 4.67478C373.054 4.34298 372.941 3.95902 372.939 3.56644V0.887695H364.131V3.56644C364.13 3.95408 364.021 4.33367 363.816 4.66319C363.612 4.99271 363.321 5.2593 362.975 5.43345C362.58 5.63129 362.197 5.85149 361.828 6.09299C361.506 6.30777 361.129 6.42822 360.742 6.44077C360.355 6.45332 359.972 6.35747 359.636 6.16402L357.302 4.8145L352.899 12.4449L355.233 13.8045ZM368.535 9.17761C369.964 9.1756 371.362 9.5976 372.551 10.3902C373.741 11.1828 374.668 12.3104 375.217 13.6304C375.765 14.9503 375.91 16.4032 375.632 17.8053C375.354 19.2074 374.667 20.4956 373.657 21.507C372.647 22.5184 371.36 23.2075 369.958 23.4871C368.557 23.7666 367.103 23.6242 365.783 23.0776C364.462 22.5311 363.333 21.6052 362.539 20.4169C361.745 19.2286 361.321 17.8314 361.321 16.4021C361.321 14.4878 362.08 12.6518 363.433 11.2972C364.786 9.94263 366.621 9.1803 368.535 9.17761V9.17761Z" fill="#EBEBEB"/>
<path d="M189.574 356.522H379.004L382.951 278.798H185.627L189.574 356.522Z" fill="#EBEBEB"/>
<path d="M370.027 314.372H290.882L289.4 287.392H371.812L370.027 314.372ZM291.734 313.419H369.134L370.747 288.346H290.354L291.734 313.419Z" fill="#DBDBDB"/>
<path d="M368.566 345.422H293.936L292.719 321.069H370.088L368.566 345.422ZM294.839 344.498H367.653L369.053 322.043H293.723L294.839 344.498Z" fill="#DBDBDB"/>
<path d="M338.055 303.809H324.752L323.91 297.295H338.897L338.055 303.809ZM325.594 302.896H337.213L337.801 298.299H325.036L325.594 302.896Z" fill="#DBDBDB"/>
<path d="M338.055 336.492H324.752L323.91 329.988H338.897L338.055 336.492ZM325.594 335.539H337.213L337.801 330.942H325.036L325.594 335.539Z" fill="#DBDBDB"/>
<path d="M276.867 314.372H197.722L196.17 287.392H278.582L276.867 314.372ZM198.575 313.419H275.974L277.588 288.346H197.185L198.575 313.419Z" fill="#DBDBDB"/>
<path d="M275.408 345.422H200.778L199.561 321.069H276.93L275.408 345.422ZM201.681 344.498H274.515L275.915 322.043H200.565L201.681 344.498Z" fill="#DBDBDB"/>
<path d="M244.876 303.809H231.594L230.752 297.295H245.739L244.876 303.809ZM232.436 302.896H244.054L244.653 298.299H231.838L232.436 302.896Z" fill="#DBDBDB"/>
<path d="M244.876 336.492H231.594L230.752 329.988H245.739L244.876 336.492ZM232.416 335.539H244.034L244.633 330.942H231.838L232.416 335.539Z" fill="#DBDBDB"/>
<path d="M206.56 356.522L205.373 364.995L202.978 382.011H198.301V356.522H206.56Z" fill="#EBEBEB"/>
<path d="M206.56 356.522L205.373 364.995H198.301V356.522H206.56Z" fill="#DBDBDB"/>
<path d="M362.02 356.522L363.207 364.995L365.601 382.011H370.279V356.522H362.02Z" fill="#EBEBEB"/>
<path d="M362.02 356.522L363.207 364.995H370.279V356.522H362.02Z" fill="#DBDBDB"/>
<path d="M336.311 431.121C395.853 431.121 444.121 422.74 444.121 412.4C444.121 402.061 395.853 393.68 336.311 393.68C276.77 393.68 228.502 402.061 228.502 412.4C228.502 422.74 276.77 431.121 336.311 431.121Z" fill="#EBEBEB"/>
<path d="M66.9537 424.222C93.18 424.222 114.441 419.125 114.441 412.837C114.441 406.55 93.18 401.453 66.9537 401.453C40.7274 401.453 19.4668 406.55 19.4668 412.837C19.4668 419.125 40.7274 424.222 66.9537 424.222Z" fill="#EBEBEB"/>
<path d="M0.046875 382.529L55.9252 382.285L111.803 382.194L223.57 382.021L335.337 382.194L391.215 382.275L447.093 382.529L391.215 382.772L335.337 382.864L223.57 383.036L111.803 382.864L55.9252 382.772L0.046875 382.529Z" fill="#263238"/>
<path d="M64.3677 298.493C65.221 304.438 64.9144 310.492 63.4646 316.321C62.7768 319.021 61.8638 321.658 60.7351 324.205C59.3146 327.472 57.8332 330.658 58.1883 334.23C58.5333 334.453 57.3461 334.423 57.3157 334.068C47.7777 328.639 35.5407 327.645 28.2046 318.766C24.7242 314.565 22.9689 309.238 22.1165 303.901C21.2135 298.097 20.9699 291.674 22.4615 285.952C23.7299 281.112 26.5202 276.454 31.0964 274.08C35.6726 271.706 41.9332 271.848 46.8747 273.38C57.5592 276.677 62.8558 288.174 64.3677 298.493Z" fill="#20ACE9"/>
<path d="M69.2619 369.094C67.9631 364.751 66.6643 360.419 65.3249 356.086C62.7071 347.614 59.9877 339.161 56.9741 330.821C55.168 325.822 53.2672 320.87 51.2717 315.966C51.4903 312.874 51.8696 309.795 52.4081 306.742C53.1995 303.049 54.3664 299.477 55.4521 295.855C55.513 295.632 55.1579 295.52 55.0665 295.733C52.9256 300.715 50.1352 307.097 50.0642 312.983C47.7304 307.432 45.2445 301.963 42.5657 296.575C42.2527 292.024 42.3852 287.453 42.9614 282.928C42.9614 282.715 42.6773 282.654 42.6469 282.867C41.8272 286.829 41.5135 290.88 41.7134 294.921C39.684 290.863 37.5025 286.875 35.1992 282.938C34.9962 282.583 34.499 282.938 34.6817 283.303C38.2736 290.203 41.5916 297.245 44.7168 304.388C40.3283 300.58 35.2564 297.639 29.7706 295.723C29.5271 295.642 29.3546 295.987 29.5981 296.088C35.5853 298.662 41.0631 302.288 45.7721 306.793C48.0179 312.029 50.1555 317.298 52.1849 322.602C46.2084 316.757 38.0504 312.912 30.1461 310.842C29.8721 310.771 29.8011 311.187 30.0649 311.268C39.197 314.018 46.2997 319.203 53.2604 325.423C54.0722 327.574 54.8636 329.725 55.6348 331.876C58.5909 340.054 61.3981 348.28 64.0566 356.553C65.3351 360.51 66.5967 364.477 67.8413 368.455C69.1706 372.727 70.2157 377.252 71.9 381.382C72.0725 381.768 72.7727 381.686 72.6814 381.209C71.7477 377.116 70.6064 373.072 69.2619 369.094V369.094Z" fill="#263238"/>
<path d="M53.4417 290.142C51.7484 292.746 50.5799 295.655 50.002 298.706C50.002 298.777 50.1136 298.828 50.144 298.706C51.2118 295.832 52.4554 293.026 53.8679 290.304C54.0099 290.071 53.6041 289.888 53.4417 290.142Z" fill="#263238"/>
<path d="M36.4249 309.999C33.7688 308.535 30.8717 307.559 27.8711 307.118C27.79 307.118 27.7392 307.219 27.8204 307.26C29.2004 307.828 30.6412 308.224 32.0313 308.761C33.4214 309.299 34.842 309.999 36.2118 310.456C36.2723 310.484 36.3416 310.487 36.4044 310.464C36.4672 310.442 36.5184 310.395 36.5466 310.334C36.5749 310.274 36.5779 310.204 36.5551 310.142C36.5323 310.079 36.4854 310.028 36.4249 309.999V309.999Z" fill="#263238"/>
<path d="M31.6338 286.104C30.769 285.454 29.8449 284.886 28.8739 284.409C28.8475 284.408 28.8213 284.415 28.7984 284.428C28.7754 284.441 28.7566 284.46 28.7439 284.483C28.7313 284.506 28.7253 284.533 28.7268 284.559C28.7282 284.585 28.737 284.611 28.7521 284.633C29.5983 285.301 30.5053 285.889 31.4613 286.388C31.6033 286.51 31.7961 286.226 31.6338 286.104Z" fill="#263238"/>
<path d="M96.5228 330.881C89.6534 332.911 82.7434 334.808 75.8741 336.827C75.2856 337 63.6979 314.748 67.8683 303.282C71.7443 292.679 80.6228 284.734 91.2058 281.132C96.1067 279.468 102.134 278.088 107.319 279.204C111.926 280.219 115.183 284.003 116.674 288.336C118.704 294.221 118.034 301.243 116.928 307.26C116.042 312.904 113.715 318.223 110.17 322.703C106.527 327.036 101.87 329.278 96.5228 330.881Z" fill="#20ACE9"/>
<path d="M106.475 309.736C102.133 311.864 97.6313 313.648 93.0105 315.073C89.9278 315.901 86.9205 316.987 84.0204 318.32C86.9224 311.857 90.1085 305.525 93.4772 299.244C97.9215 297.966 102.609 295.967 105.927 292.821C105.959 292.787 105.977 292.742 105.978 292.696C105.979 292.649 105.963 292.604 105.934 292.568C105.904 292.532 105.862 292.508 105.816 292.501C105.771 292.493 105.723 292.502 105.684 292.527C102.021 295.114 97.9824 296.667 93.9338 298.422C94.847 296.724 95.7738 295.033 96.7141 293.349C96.9677 292.882 96.3285 292.415 96.0139 292.872C92.4035 298.117 89.1427 303.595 86.2527 309.269C85.5186 304.299 85.2806 299.269 85.5425 294.252C85.5358 294.232 85.5229 294.214 85.5056 294.201C85.4882 294.189 85.4674 294.182 85.4461 294.182C85.4247 294.182 85.4039 294.189 85.3866 294.201C85.3692 294.214 85.3563 294.232 85.3497 294.252C84.4902 299.726 84.545 305.305 85.512 310.761C83.1072 315.57 80.9155 320.491 78.9369 325.484C78.1556 322.44 77.1409 319.538 76.4611 316.514C75.4084 312.201 75.0657 307.746 75.4464 303.323C75.4464 303.296 75.4357 303.27 75.4167 303.251C75.3977 303.232 75.3719 303.222 75.3449 303.222C75.318 303.222 75.2922 303.232 75.2732 303.251C75.2542 303.27 75.2435 303.296 75.2435 303.323C74.0277 311.526 75.0224 319.904 78.1252 327.594C76.9786 330.638 75.8827 333.611 74.8782 336.635C69.6953 352.046 66.6234 368.089 65.7461 384.325C65.7461 384.403 65.7771 384.478 65.8323 384.533C65.8875 384.588 65.9623 384.619 66.0404 384.619C66.1184 384.619 66.1932 384.588 66.2484 384.533C66.3036 384.478 66.3346 384.403 66.3346 384.325C68.13 368.316 71.5606 352.533 76.5727 337.223C78.6021 331.237 80.8546 325.423 83.371 319.72C87.4298 318.523 91.4885 316.889 95.4559 315.509C99.4232 314.129 103.33 312.607 106.617 310.05C106.659 310.032 106.692 309.997 106.708 309.954C106.724 309.911 106.722 309.864 106.704 309.822C106.685 309.78 106.65 309.748 106.607 309.732C106.564 309.716 106.517 309.717 106.475 309.736V309.736Z" fill="#263238"/>
<path d="M112.881 303.272C108.68 304.764 104.703 306.854 100.502 308.345C100.309 308.416 100.421 308.721 100.624 308.68C105.058 307.767 109.462 306.397 113.044 303.485C113.186 303.404 113.033 303.221 112.881 303.272Z" fill="#263238"/>
<path d="M78.5857 294.211C78.5857 293.988 78.3015 293.856 78.2407 294.089C77.0839 297.955 76.2925 302.065 77.4086 306.022C77.4086 306.184 77.7029 306.184 77.713 306.022C77.9058 302.024 77.6927 298.138 78.5857 294.211Z" fill="#263238"/>
<path d="M95.9345 285.261C94.5975 287.186 93.9568 289.509 94.1182 291.846C94.1182 291.999 94.3617 292.08 94.4023 291.907C94.9097 289.685 95.762 287.666 96.4317 285.515C96.4502 285.451 96.4459 285.383 96.4197 285.323C96.3935 285.262 96.3469 285.212 96.288 285.182C96.2291 285.152 96.1616 285.144 96.0971 285.158C96.0325 285.173 95.975 285.209 95.9345 285.261V285.261Z" fill="#263238"/>
<path d="M14.812 340.704C16.8414 347.086 21.6104 355.924 29.19 355.995C34.101 356.046 39.0527 355.457 43.9738 355.386C49.2502 355.305 54.5366 355.325 59.7927 355.64C60.229 355.64 59.1636 339.841 46.4902 332.14C42.9389 329.989 38.5961 329.299 34.5678 328.426C29.9551 327.338 25.2218 326.847 20.4841 326.965C17.5719 327.077 15.1469 327.695 14.1119 330.679C13.0769 333.662 13.8481 337.66 14.812 340.704Z" fill="#20ACE9"/>
<path d="M20.2623 332.697C23.3063 333.488 26.4518 334.402 29.5466 335.386C28.74 334.508 27.8864 333.675 26.9896 332.89C25.6604 331.784 24.1992 330.911 22.7787 329.937C22.6569 329.856 22.7787 329.633 22.8802 329.693C25.8788 330.939 28.4692 332.999 30.3583 335.639C34.2141 336.877 38.0293 338.257 41.7024 339.759C44.2384 340.797 46.6681 342.078 48.9574 343.584C48.219 341.984 47.3395 340.453 46.3293 339.008C44.645 336.837 42.3721 335.619 40.1703 334.067C40.1259 334.04 40.094 333.996 40.0816 333.946C40.0692 333.896 40.0774 333.842 40.1043 333.798C40.1312 333.753 40.1747 333.722 40.2251 333.709C40.2755 333.697 40.3288 333.705 40.3732 333.732C42.6807 334.737 44.7521 336.214 46.4543 338.069C48.1564 339.923 49.4515 342.113 50.2562 344.498C52.8965 346.389 55.3073 348.582 57.4401 351.032C65.8314 360.55 72.437 373.223 72.4573 386.16C72.4573 386.465 71.9601 386.556 71.8992 386.231C69.7521 373.553 64.228 361.688 55.9079 351.884C55.3092 351.184 54.6903 350.515 54.0713 349.855C51.774 349.541 49.4596 349.368 47.1411 349.338C44.4421 349.338 41.7633 349.733 39.0237 349.946C34.5997 350.312 29.7089 350.362 25.7213 348.14C25.6812 348.119 25.6506 348.083 25.6355 348.04C25.6204 347.997 25.6219 347.95 25.6396 347.908C25.6574 347.866 25.6902 347.832 25.7316 347.813C25.773 347.794 25.8199 347.792 25.8633 347.805C34.7519 351.042 44.1275 346.933 53.0059 348.82C49.1818 345.188 44.7066 342.31 39.8151 340.337L38.9932 340.013C33.2806 340.703 27.2534 342.184 21.693 340.337C21.5306 340.277 21.6017 340.023 21.764 340.074C27.1418 341.413 32.2964 339.729 37.593 339.455C31.8195 337.212 25.9343 335.396 20.1507 333.184C19.755 333.011 19.7347 332.565 20.2623 332.697Z" fill="#263238"/>
<path d="M17.7443 338.319C20.5008 338.68 23.275 338.89 26.0545 338.948C26.1154 338.948 26.1357 339.049 26.0545 339.07C23.2557 339.582 20.3736 339.398 17.6631 338.532C17.5921 338.491 17.5921 338.299 17.7443 338.319Z" fill="#263238"/>
<path d="M36.518 332.84C38.0348 333.537 39.4105 334.507 40.5767 335.701C40.7289 335.833 40.5767 336.087 40.3738 335.975C39.6737 335.468 38.9532 334.96 38.2328 334.514C37.5313 334.133 36.8536 333.709 36.2035 333.246C36.0919 333.093 36.2948 332.758 36.518 332.84Z" fill="#263238"/>
<path d="M81.2743 353.417C81.1728 353.63 81.4772 353.823 81.599 353.61C81.6194 353.645 81.6473 353.675 81.6806 353.697C81.7139 353.72 81.7519 353.735 81.7918 353.742C86.8928 354.958 92.0639 355.86 97.2757 356.441C101.466 356.816 106.296 357.05 109.969 354.614C114.941 351.317 118.209 342.509 115.52 336.908C112.344 330.262 102.765 333.864 97.9556 336.228C90.5583 339.834 84.6565 345.915 81.2743 353.417Z" fill="#20ACE9"/>
<path d="M77.5495 356.492C80.3449 353.791 83.4473 351.428 86.7932 349.45C89.2046 345.637 92.4008 342.382 96.1689 339.902C96.3515 339.77 96.5139 340.064 96.3414 340.186C93.349 342.589 90.6938 345.384 88.4472 348.496C92.1815 346.461 96.0574 344.698 100.045 343.22C101.473 340.58 103.638 338.412 106.275 336.979C106.275 336.979 106.387 337.03 106.336 337.071C104.157 338.724 102.259 340.718 100.715 342.976C103.069 342.093 105.443 341.272 107.817 340.48C108.03 340.409 108.112 340.744 107.909 340.815C103.677 342.469 99.3448 344.214 95.144 346.233C100.263 347.05 105.479 347.05 110.598 346.233C110.74 346.233 110.801 346.416 110.658 346.457C105.317 348.033 99.6467 348.117 94.2613 346.7C91.5902 348.003 88.9952 349.456 86.4888 351.053C88.5967 350.888 90.7173 351.063 92.7697 351.571C96.4004 352.4 100.116 352.802 103.84 352.768C103.867 352.776 103.892 352.792 103.909 352.815C103.926 352.838 103.936 352.866 103.936 352.895C103.936 352.923 103.926 352.951 103.909 352.974C103.892 352.997 103.867 353.014 103.84 353.022C97.4372 354.128 91.3796 351.215 85.0277 352.007C82.6692 353.614 80.4556 355.423 78.412 357.415C74.4503 361.373 71.1877 365.974 68.7624 371.022C66.0938 376.461 64.6428 382.183 62.4816 387.855C62.4668 387.908 62.4317 387.952 62.3842 387.979C62.3366 388.006 62.2804 388.012 62.2279 387.997C62.1754 387.983 62.131 387.948 62.1043 387.9C62.0777 387.852 62.071 387.796 62.0858 387.744C63.9529 376.623 69.4727 364.396 77.5495 356.492Z" fill="#263238"/>
<path d="M96.879 341.292C97.2967 340.52 97.8541 339.832 98.5227 339.263C99.0586 338.677 99.6985 338.195 100.41 337.842C100.471 337.842 100.511 337.903 100.471 337.954C99.9433 338.542 99.2127 338.969 98.6445 339.557C98.0763 340.146 97.6298 340.805 97.0312 341.363C97.0178 341.375 97.0013 341.383 96.9836 341.386C96.9659 341.388 96.9478 341.386 96.9316 341.378C96.9154 341.37 96.9018 341.358 96.8924 341.343C96.883 341.328 96.8784 341.31 96.879 341.292V341.292Z" fill="#263238"/>
<path d="M107.441 344.732C108.395 344.489 109.4 344.509 110.364 344.316C111.325 344.083 112.274 343.799 113.205 343.464C113.326 343.464 113.398 343.606 113.286 343.677C111.537 344.752 109.485 345.226 107.441 345.026C107.409 345.018 107.38 344.999 107.36 344.972C107.339 344.946 107.328 344.913 107.328 344.879C107.328 344.846 107.339 344.813 107.36 344.786C107.38 344.76 107.409 344.741 107.441 344.732V344.732Z" fill="#263238"/>
<path d="M51.1465 374.045L51.9887 383.594L54.8399 415.85H80.0952L83.6669 383.594L84.7222 374.045H51.1465Z" fill="#455A64"/>
<path d="M51.1465 374.045L51.9887 383.594H83.6669L84.7222 374.045H51.1465Z" fill="#263238"/>
<path d="M48.6407 379.191H87.2188V371.439H48.6407V379.191Z" fill="#455A64"/>
<path d="M309.33 415.334C311.359 415.993 369.47 415.232 371.662 413.801C372.504 413.274 372.889 404.801 373.052 394.522C373.052 394.411 373.052 394.309 373.052 394.198C373.052 392.087 373.113 389.906 373.113 387.704C373.113 387.399 373.113 387.095 373.113 386.801L335.255 386.902V388.089L335.488 394.269V394.898C335.488 394.898 313.379 405.136 311.136 406.973C308.894 408.809 307.29 414.684 309.33 415.334Z" fill="#EBEBEB"/>
<path d="M309.322 415.333C310.337 415.668 326.155 415.628 341.589 415.333C344.694 415.272 347.778 415.201 350.721 415.12C361.72 414.816 370.811 414.359 371.654 413.811C372.496 413.263 372.871 405.044 373.044 394.989C373.044 394.847 373.044 394.705 373.044 394.563C373.044 394.421 373.044 394.34 373.044 394.228H372.993L335.551 394.299V394.938C335.551 394.938 313.442 405.166 311.199 407.003C308.957 408.839 307.293 414.684 309.322 415.333Z" fill="#20ACE9"/>
<path d="M309.959 413.07C319.75 412.705 359.272 412.147 368.983 412.523C369.054 412.523 369.054 412.583 368.983 412.583C359.282 413.162 319.761 413.405 309.959 413.233C309.756 413.233 309.756 413.081 309.959 413.07Z" fill="#263238"/>
<path d="M331.4 394.451C335.245 393.69 339.963 394.217 342.947 396.927C343.058 397.028 342.947 397.19 342.784 397.15C339.085 396.012 335.276 395.271 331.42 394.938C331.355 394.941 331.292 394.917 331.245 394.874C331.197 394.83 331.169 394.769 331.166 394.704C331.164 394.64 331.187 394.577 331.23 394.529C331.274 394.482 331.335 394.453 331.4 394.451V394.451Z" fill="#263238"/>
<path d="M328.638 396.166C332.483 395.395 337.202 395.933 340.185 398.642C340.297 398.743 340.185 398.906 340.023 398.865C336.323 397.728 332.514 396.986 328.658 396.653C328.626 396.654 328.594 396.65 328.564 396.639C328.534 396.627 328.507 396.611 328.483 396.589C328.459 396.567 328.44 396.541 328.427 396.512C328.413 396.483 328.406 396.452 328.405 396.42C328.403 396.388 328.408 396.356 328.419 396.326C328.43 396.296 328.447 396.268 328.469 396.245C328.49 396.221 328.516 396.202 328.545 396.189C328.574 396.175 328.606 396.167 328.638 396.166V396.166Z" fill="#263238"/>
<path d="M325.88 397.881C329.726 397.11 334.444 397.648 337.427 400.347C337.539 400.458 337.427 400.621 337.265 400.58C333.567 399.438 329.757 398.696 325.9 398.368C325.868 398.37 325.836 398.365 325.806 398.354C325.776 398.343 325.749 398.326 325.725 398.304C325.702 398.282 325.683 398.256 325.669 398.227C325.656 398.198 325.648 398.167 325.647 398.135C325.645 398.103 325.65 398.071 325.661 398.041C325.672 398.011 325.689 397.983 325.711 397.96C325.733 397.936 325.759 397.917 325.788 397.904C325.817 397.89 325.848 397.882 325.88 397.881Z" fill="#263238"/>
<path d="M341.588 415.323C344.693 415.262 347.777 415.191 350.72 415.11C361.719 414.806 370.811 414.349 371.653 413.801C372.495 413.253 372.87 405.034 373.043 394.979C373.043 394.837 373.043 394.695 373.043 394.553C373.043 394.411 373.043 394.329 373.043 394.218H372.992C367.888 397.82 349.807 409.854 341.588 415.323Z" fill="#263238"/>
<path d="M333.023 394.421H374.858C374.858 394.421 366.436 296.697 366.741 294.982C367.157 292.791 369.622 282.898 372.91 269.981C373.925 265.922 375.051 261.6 376.208 257.105C379.333 244.928 382.773 231.656 385.766 220.089C390.261 202.769 393.772 189.314 393.772 189.314H358.339C358.339 189.314 354.209 202.413 349.004 219.46C340.511 247.161 329.167 285.292 328.051 294.546C326.235 309.543 333.023 394.421 333.023 394.421Z" fill="#37474F"/>
<path d="M334.869 387.287C341.261 387.155 339.425 387.105 345.817 387.034C348.942 387.034 369.5 386.831 372.422 387.318C372.438 387.318 372.454 387.324 372.465 387.336C372.476 387.347 372.483 387.362 372.483 387.379C372.483 387.395 372.476 387.41 372.465 387.422C372.454 387.433 372.438 387.439 372.422 387.439C369.5 387.927 348.942 387.744 345.817 387.713C339.425 387.653 341.261 387.602 334.869 387.47C334.844 387.47 334.821 387.46 334.804 387.443C334.787 387.426 334.777 387.403 334.777 387.379C334.777 387.354 334.787 387.331 334.804 387.314C334.821 387.297 334.844 387.287 334.869 387.287V387.287Z" fill="#263238"/>
<path d="M358.897 289.016C360.267 282.928 362.317 277.042 364.102 271.107C367.728 259.039 371.374 246.981 375.041 234.933C376.881 228.906 378.721 222.882 380.56 216.862C381.504 213.818 382.438 210.774 383.381 207.73C384.325 204.686 385.411 201.814 386.212 198.811C386.557 197.593 386.75 198.263 386.304 199.825C385.421 202.941 384.558 206.066 383.645 209.181C381.839 215.35 380.026 221.513 378.206 227.668C374.554 239.939 370.894 252.193 367.228 264.43L361.687 282.836C360.751 285.757 359.996 288.732 359.425 291.745C358.933 294.896 358.81 298.094 359.059 301.273C359.455 307.676 360.196 314.068 360.795 320.46C361.393 326.853 361.972 333.256 362.57 339.658C363.747 352.389 364.914 365.127 366.071 377.871C366.213 379.484 366.355 381.098 366.487 382.721C366.487 383.259 365.706 383.218 365.655 382.721C364.275 370.119 363.22 357.486 362.032 344.874L358.522 307.199C358.227 304.043 357.893 300.887 357.893 297.722C357.901 294.791 358.238 291.871 358.897 289.016V289.016Z" fill="#263238"/>
<path d="M362.367 189.324C364.833 208.369 369.47 244.116 372.94 269.991C380.946 238.596 393.802 189.324 393.802 189.324H362.367Z" fill="#263238"/>
<path d="M353.66 415.891C355.689 416.561 413.79 416.013 415.992 414.592C416.834 414.065 417.25 405.592 417.453 395.313C417.453 395.202 417.453 395.1 417.453 394.989C417.453 392.878 417.534 390.707 417.544 388.495C417.544 388.19 417.544 387.886 417.544 387.592H379.697V388.769L379.91 394.948V395.587C379.91 395.587 357.759 405.734 355.507 407.561C353.254 409.387 351.621 415.232 353.66 415.891Z" fill="#EBEBEB"/>
<path d="M353.662 415.891C355.691 416.561 413.791 416.013 415.993 414.593C416.835 414.065 417.251 405.592 417.454 395.314C417.454 395.202 417.454 395.101 417.454 394.989L379.962 394.918V395.557C379.962 395.557 357.812 405.704 355.559 407.53C353.306 409.357 351.622 415.232 353.662 415.891Z" fill="#20ACE9"/>
<path d="M354.291 413.628C364.083 413.304 403.614 412.888 413.315 413.304C413.396 413.304 413.396 413.364 413.315 413.364C403.614 413.902 364.093 414.004 354.291 413.791C354.088 413.791 354.088 413.638 354.291 413.628Z" fill="#263238"/>
<path d="M375.771 395.1C379.616 394.339 384.335 394.887 387.308 397.607C387.419 397.708 387.308 397.87 387.145 397.84C383.453 396.679 379.646 395.924 375.791 395.587C375.726 395.59 375.663 395.567 375.616 395.523C375.568 395.479 375.54 395.419 375.537 395.354C375.535 395.289 375.558 395.226 375.601 395.179C375.645 395.131 375.706 395.103 375.771 395.1V395.1Z" fill="#263238"/>
<path d="M373.032 396.795C376.877 396.044 381.606 396.592 384.569 399.311C384.69 399.413 384.569 399.575 384.406 399.534C380.713 398.376 376.907 397.614 373.052 397.262C373.001 397.249 372.955 397.22 372.922 397.179C372.889 397.139 372.87 397.088 372.867 397.036C372.865 396.983 372.88 396.931 372.91 396.888C372.939 396.845 372.982 396.812 373.032 396.795V396.795Z" fill="#263238"/>
<path d="M370.271 398.499C374.116 397.749 378.835 398.297 381.808 401.016C381.919 401.117 381.808 401.28 381.645 401.239C377.951 400.089 374.145 399.334 370.291 398.987C370.259 398.988 370.227 398.983 370.197 398.972C370.167 398.961 370.139 398.944 370.116 398.922C370.092 398.901 370.073 398.875 370.06 398.846C370.046 398.817 370.039 398.785 370.037 398.753C370.036 398.721 370.041 398.689 370.052 398.659C370.063 398.629 370.08 398.602 370.101 398.578C370.123 398.554 370.149 398.535 370.178 398.522C370.207 398.508 370.239 398.501 370.271 398.499V398.499Z" fill="#263238"/>
<path d="M359.535 189.324C359.535 189.324 360.357 206.289 364.233 219.764C364.548 220.88 364.883 221.976 365.248 223.021C368.809 224.46 372.233 226.219 375.476 228.277C375.476 228.277 375.882 241.925 376.287 257.155C376.744 274.171 377.211 293.156 377.119 297.184C376.764 312.242 378.997 395.08 378.997 395.08L420.832 395.242C420.832 395.242 413.272 302.744 413.323 297.225C413.404 288.356 411.294 249.149 409.67 220.555C408.656 202.941 407.854 189.364 407.854 189.364L359.535 189.324Z" fill="#37474F"/>
<path d="M380.388 387.592C386.77 387.491 384.944 387.43 391.326 387.399C394.462 387.399 415.009 387.288 417.931 387.785C418.002 387.785 417.992 387.907 417.931 387.917C415.009 388.384 394.452 388.12 391.326 388.079C384.934 387.988 386.77 387.947 380.388 387.785C380.368 387.778 380.35 387.765 380.338 387.748C380.325 387.731 380.318 387.71 380.318 387.689C380.318 387.667 380.325 387.646 380.338 387.629C380.35 387.612 380.368 387.599 380.388 387.592V387.592Z" fill="#263238"/>
<path d="M404.292 195.341C405.063 218.679 405.875 242.017 406.92 265.354C407.965 288.692 409.376 312.171 411.344 335.519C412.43 348.568 413.465 366.923 414.875 379.932C414.875 379.95 414.868 379.968 414.855 379.982C414.841 379.995 414.823 380.003 414.804 380.003C414.786 380.003 414.767 379.995 414.754 379.982C414.741 379.968 414.733 379.95 414.733 379.932C411.689 356.787 409.995 328.183 408.493 304.845C406.991 281.508 405.987 258.17 405.185 234.883C404.739 221.693 404.394 208.502 403.998 195.311C403.998 195.179 404.282 195.199 404.292 195.341Z" fill="#263238"/>
<path d="M363.464 221.966C367.625 223.709 371.627 225.807 375.427 228.237C375.451 228.258 375.468 228.287 375.473 228.318C375.479 228.35 375.474 228.383 375.458 228.411C375.443 228.439 375.419 228.462 375.389 228.474C375.359 228.487 375.326 228.489 375.295 228.48C371.237 226.522 367.178 224.635 363.221 222.453C363.164 222.416 363.123 222.36 363.105 222.295C363.088 222.23 363.094 222.161 363.125 222.101C363.155 222.04 363.206 221.993 363.269 221.969C363.331 221.944 363.401 221.943 363.464 221.966V221.966Z" fill="#263238"/>
<path d="M363.23 207.578C363.504 209.059 363.869 210.53 364.183 212.012C364.498 213.493 364.711 214.812 365.076 216.182C365.377 217.509 366.049 218.723 367.014 219.683C367.562 220.19 368.161 220.637 368.739 221.093C369.054 221.347 369.389 221.59 369.754 221.844C369.754 221.641 369.683 221.448 369.642 221.245C369.551 220.677 369.45 220.119 369.358 219.551C369.145 218.293 368.942 217.045 368.76 215.786C368.374 213.321 368.029 210.825 367.512 208.389C367.512 208.368 367.52 208.347 367.535 208.332C367.551 208.317 367.571 208.308 367.593 208.308C367.614 208.308 367.635 208.317 367.65 208.332C367.665 208.347 367.674 208.368 367.674 208.389C368.283 210.804 368.963 213.199 369.5 215.644C369.764 216.842 370.698 222.747 370.738 223.173C370.779 223.599 370.819 224.036 370.83 224.472C370.89 224.91 370.89 225.354 370.83 225.791C370.83 225.903 370.677 225.882 370.637 225.791C370.461 225.378 370.335 224.945 370.261 224.502C370.15 224.076 370.058 223.65 369.977 223.224C369.977 223.072 369.977 222.909 369.906 222.747C369.328 222.402 368.79 221.935 368.242 221.54C367.694 221.144 367.055 220.697 366.507 220.231C365.477 219.366 364.734 218.209 364.376 216.913C364.019 215.519 363.788 214.096 363.686 212.661C363.493 210.987 363.362 209.303 363.128 207.588C363.057 207.517 363.209 207.517 363.23 207.578Z" fill="#263238"/>
<path d="M382.013 145.55C376.239 155.17 351.573 175.991 342.897 176.437C336.616 176.803 314.811 159.563 308.956 153.495C303.304 147.651 323.801 131.761 327.352 134.967C332.365 139.483 343.343 152.511 345.769 152.927C347.463 153.211 357.945 148.3 374.18 139.026C383.23 133.892 385.463 139.807 382.013 145.55Z" fill="#AD6359"/>
<path d="M320.014 125.826C316.514 123.796 312.668 121.31 308.508 120.661C304.348 120.011 299.954 124.882 299.68 126.444C299.406 128.007 299.264 138.052 303.404 138.773C307.544 139.493 306.357 131.558 306.661 130.726C306.966 129.894 307.321 128.829 308.092 129.042C308.863 129.255 321.394 138.174 321.394 138.174L320.014 125.826Z" fill="#AD6359"/>
<path d="M319.649 126.343C319.415 126.343 309.086 119.981 304.926 119.342C300.766 118.703 296.372 123.553 296.098 125.115C295.824 126.678 295.682 136.723 299.822 137.454C303.962 138.184 302.775 130.24 303.079 129.407C303.383 128.575 303.739 127.5 304.51 127.713C305.281 127.926 317.812 136.845 317.812 136.845L319.649 126.343Z" fill="#AD6359"/>
<path d="M301.315 137.17C301.888 136.508 302.276 135.706 302.441 134.846C302.682 133.978 302.788 133.078 302.755 132.177C302.653 131.394 302.615 130.603 302.644 129.813C302.787 129.047 303.118 128.329 303.608 127.723C304.034 127.195 304.622 127.5 305.089 127.723C305.81 128.151 306.505 128.622 307.169 129.133L309.31 130.757C310.075 131.29 310.804 131.873 311.492 132.502C311.492 132.502 311.492 132.644 311.421 132.604C310.752 132.201 310.105 131.765 309.483 131.295C308.762 130.787 308.032 130.28 307.301 129.793C306.571 129.306 305.962 128.839 305.272 128.393C305.028 128.23 304.551 127.855 304.257 127.875C303.963 127.895 303.638 128.636 303.516 128.89C303.221 129.605 303.137 130.391 303.273 131.153C303.349 131.932 303.349 132.717 303.273 133.497C303.22 134.231 303.034 134.949 302.725 135.617C302.355 136.205 301.915 136.747 301.416 137.231C301.365 137.342 301.254 137.231 301.315 137.17Z" fill="#263238"/>
<path d="M330.882 139.534C330.882 139.534 321.232 127.053 319.213 124.557C315.154 119.555 296.403 107.774 293.643 106.983C290.883 106.191 288.854 111.782 301.507 120.173C308.173 124.597 308.742 128.95 308.194 131.223C307.646 133.496 304.723 137.382 300.888 136.601C297.053 135.82 295.53 129.752 292.101 128.484C288.671 127.215 289.869 134.146 291.715 138.336C293.702 142.429 296.813 145.871 300.685 148.26C303.8 150.086 313.338 156.377 313.338 156.377L330.882 139.534Z" fill="#AD6359"/>
<path d="M296.627 133.04C297.885 134.42 299.275 136.165 301.173 136.571C303.07 136.977 304.643 135.932 305.84 134.481C307.126 133.076 307.823 131.231 307.788 129.326C307.63 127.586 306.975 125.927 305.901 124.547C304.586 122.865 303.03 121.384 301.284 120.154C301.213 120.093 301.284 119.991 301.386 120.042C303.019 121.148 308.144 124.375 308.397 129.438C308.414 131.381 307.688 133.258 306.368 134.684C305.242 136.064 303.74 137.332 301.842 137.15C299.539 136.936 297.895 134.745 296.505 133.091C296.394 133 296.515 132.969 296.627 133.04Z" fill="#263238"/>
<path d="M327.756 135.323L311.846 163.977C311.846 163.977 335.599 177.98 343.301 177.168C351.002 176.356 373.335 158.254 382.082 146.383C387.409 139.158 383.654 133.04 373.284 138.458C362.61 144.019 347.654 151.649 346.588 151.862C345.523 152.075 327.756 135.323 327.756 135.323Z" fill="#20ACE9"/>
<path d="M344.318 156.307C344.081 157.663 343.497 158.936 342.623 160C342.73 159.321 342.935 158.662 343.232 158.042C343.514 157.417 343.879 156.834 344.318 156.307V156.307Z" fill="white"/>
<path d="M323.009 149.904C322.897 150.578 322.692 151.234 322.4 151.852C322.123 152.479 321.757 153.063 321.314 153.587C321.542 152.23 322.127 150.959 323.009 149.904V149.904Z" fill="white"/>
<path d="M366.487 145.297C366.38 145.972 366.175 146.629 365.879 147.245C365.609 147.876 365.243 148.462 364.793 148.98C364.9 148.305 365.105 147.648 365.402 147.032C365.679 146.405 366.045 145.821 366.487 145.297V145.297Z" fill="white"/>
<path d="M342.611 171.79C341.933 171.683 341.273 171.478 340.653 171.181C340.023 170.909 339.438 170.543 338.918 170.096C339.597 170.203 340.256 170.408 340.876 170.705C341.502 170.984 342.086 171.35 342.611 171.79V171.79Z" fill="white"/>
<path d="M319.184 163.612C318.505 163.505 317.845 163.3 317.225 163.003C316.6 162.723 316.016 162.358 315.49 161.917C316.169 162.025 316.829 162.23 317.449 162.526C318.075 162.805 318.659 163.17 319.184 163.612V163.612Z" fill="white"/>
<path d="M329.807 141.107C329.128 141.003 328.469 140.801 327.848 140.508C327.223 140.228 326.639 139.863 326.113 139.422C326.792 139.526 327.451 139.728 328.072 140.021C328.697 140.301 329.281 140.666 329.807 141.107V141.107Z" fill="white"/>
<path d="M356.096 153.587C356.5 154.143 356.821 154.755 357.05 155.404C357.306 156.053 357.464 156.737 357.516 157.433C357.113 156.875 356.788 156.264 356.552 155.617C356.304 154.966 356.15 154.282 356.096 153.587V153.587Z" fill="white"/>
<path d="M331.309 158.173C331.711 158.727 332.032 159.335 332.262 159.979C332.511 160.631 332.665 161.314 332.719 162.009C332.317 161.455 331.995 160.847 331.765 160.203C331.518 159.551 331.364 158.868 331.309 158.173V158.173Z" fill="white"/>
<path d="M375.244 146.474C375.646 147.027 375.968 147.635 376.198 148.28C376.447 148.931 376.6 149.614 376.655 150.309C375.863 149.184 375.377 147.873 375.244 146.504V146.474Z" fill="white"/>
<path d="M367.178 159.929C367.736 159.525 368.347 159.201 368.994 158.965C369.645 158.716 370.329 158.562 371.023 158.508C370.467 158.912 369.855 159.234 369.207 159.462C368.557 159.714 367.873 159.871 367.178 159.929V159.929Z" fill="white"/>
<path d="M334.061 149.681C334.619 149.28 335.23 148.959 335.877 148.727C336.528 148.478 337.211 148.325 337.906 148.271C337.348 148.671 336.737 148.992 336.09 149.224C335.439 149.473 334.755 149.627 334.061 149.681V149.681Z" fill="white"/>
<path d="M350.18 165.722C350.738 165.322 351.349 165.001 351.996 164.769C352.647 164.52 353.33 164.366 354.025 164.312C353.467 164.713 352.856 165.034 352.209 165.266C351.558 165.515 350.875 165.668 350.18 165.722V165.722Z" fill="white"/>
<path d="M325.221 169.801C325.777 169.402 326.384 169.082 327.027 168.847C327.678 168.598 328.361 168.445 329.056 168.391C328.505 168.797 327.896 169.118 327.25 169.344C326.599 169.592 325.915 169.746 325.221 169.801Z" fill="white"/>
<path d="M326.165 153.841C327.179 151.659 331.299 142.933 332.151 140.65C332.151 140.65 332.151 140.579 332.09 140.65C330.863 142.68 326.56 151.132 325.515 153.313C323.326 157.602 321.368 162.005 319.65 166.504C319.65 166.585 319.742 166.667 319.792 166.585C322.197 162.496 324.115 158.133 326.165 153.841Z" fill="#263238"/>
<path d="M382.094 146.434C374.991 156.053 358.97 169.771 349.066 175.068L379.446 136.51C384.905 136.013 386.173 140.893 382.094 146.434Z" fill="#263238"/>
<path d="M412.167 214.529C412.015 214.681 350.718 210.47 350.201 209.821C349.49 208.877 368.891 146.586 373.751 137.434C375.781 133.537 385.735 132.969 389.651 136.662C399.463 145.886 406.292 175.717 407.723 184.657C410.107 199.4 412.715 213.991 412.167 214.529Z" fill="#20ACE9"/>
<path d="M382.945 154.47C382.706 155.823 382.122 157.091 381.25 158.153C381.356 157.477 381.561 156.821 381.859 156.205C382.129 155.574 382.495 154.988 382.945 154.47V154.47Z" fill="white"/>
<path d="M375.925 179.807C375.818 180.482 375.613 181.138 375.316 181.755C375.042 182.384 374.676 182.969 374.23 183.49C374.338 182.814 374.543 182.158 374.839 181.542C375.119 180.916 375.485 180.332 375.925 179.807V179.807Z" fill="white"/>
<path d="M368.974 207.375C368.737 208.732 368.154 210.004 367.279 211.068C367.504 209.708 368.089 208.433 368.974 207.375V207.375Z" fill="white"/>
<path d="M397.312 173.749C397.075 175.105 396.491 176.378 395.617 177.442C395.723 176.763 395.928 176.103 396.226 175.484C396.498 174.854 396.864 174.269 397.312 173.749V173.749Z" fill="white"/>
<path d="M406.212 191.739C406.1 192.413 405.895 193.069 405.603 193.687C405.326 194.314 404.96 194.898 404.518 195.422C404.625 194.747 404.83 194.09 405.126 193.474C405.396 192.843 405.763 192.257 406.212 191.739V191.739Z" fill="white"/>
<path d="M382.093 201.744C381.985 202.421 381.783 203.08 381.494 203.702C381.212 204.329 380.843 204.913 380.398 205.437C380.635 204.08 381.219 202.808 382.093 201.744Z" fill="white"/>
<path d="M363.919 169.102C363.811 169.78 363.606 170.439 363.31 171.06C363.036 171.688 362.67 172.273 362.225 172.795C362.33 172.116 362.535 171.456 362.833 170.837C363.113 170.211 363.479 169.627 363.919 169.102V169.102Z" fill="white"/>
<path d="M390.27 165.915C388.913 165.679 387.64 165.095 386.576 164.221C387.933 164.457 389.205 165.041 390.27 165.915V165.915Z" fill="white"/>
<path d="M395.832 188.238C395.155 188.13 394.496 187.928 393.874 187.639C393.247 187.357 392.663 186.988 392.139 186.543C393.495 186.78 394.768 187.364 395.832 188.238V188.238Z" fill="white"/>
<path d="M392.879 213.291L391.794 213.22L391.378 213.037C390.752 212.757 390.168 212.392 389.643 211.951C390.321 212.058 390.981 212.263 391.601 212.56C392.05 212.762 392.478 213.007 392.879 213.291V213.291Z" fill="white"/>
<path d="M369.967 192.145C369.289 192.041 368.629 191.839 368.009 191.546C367.383 191.266 366.799 190.901 366.273 190.46C366.952 190.564 367.611 190.766 368.232 191.059C368.858 191.339 369.441 191.704 369.967 192.145Z" fill="white"/>
<path d="M390.27 146.494C389.592 146.386 388.933 146.185 388.311 145.896C387.683 145.616 387.098 145.247 386.576 144.8C387.933 145.036 389.205 145.62 390.27 146.494V146.494Z" fill="white"/>
<path d="M395.76 149.751C396.16 150.31 396.481 150.921 396.714 151.568C396.962 152.219 397.116 152.902 397.17 153.597C396.768 153.044 396.447 152.435 396.216 151.791C395.967 151.137 395.813 150.45 395.76 149.751V149.751Z" fill="white"/>
<path d="M403.977 178.386C404.379 178.939 404.7 179.547 404.93 180.192C405.179 180.843 405.333 181.526 405.387 182.221C404.986 181.663 404.665 181.052 404.433 180.405C404.186 179.757 404.032 179.077 403.977 178.386V178.386Z" fill="white"/>
<path d="M403.27 204.158C403.673 204.716 403.998 205.327 404.233 205.974C404.482 206.626 404.636 207.309 404.69 208.004C404.284 207.453 403.962 206.844 403.736 206.198C403.483 205.544 403.326 204.857 403.27 204.158V204.158Z" fill="white"/>
<path d="M374.117 166.281C374.518 166.839 374.839 167.45 375.071 168.097C375.321 168.748 375.475 169.431 375.528 170.126C374.732 169.003 374.246 167.691 374.117 166.321V166.281Z" fill="white"/>
<path d="M383.047 189.436C383.447 189.994 383.768 190.605 384.001 191.252C384.249 191.903 384.403 192.586 384.457 193.281C384.055 192.728 383.734 192.119 383.503 191.475C383.254 190.821 383.1 190.134 383.047 189.436V189.436Z" fill="white"/>
<path d="M358.785 198.882C359.184 199.438 359.505 200.045 359.739 200.688C359.988 201.339 360.141 202.022 360.196 202.717C359.4 201.594 358.914 200.282 358.785 198.912V198.882Z" fill="white"/>
<path d="M375.244 146.474C375.646 147.027 375.968 147.635 376.198 148.28C376.447 148.931 376.6 149.614 376.655 150.309C375.863 149.184 375.377 147.873 375.244 146.504V146.474Z" fill="white"/>
<path d="M367.178 159.929C367.736 159.525 368.347 159.201 368.994 158.965C369.645 158.716 370.329 158.562 371.023 158.508C370.467 158.912 369.855 159.234 369.207 159.462C368.557 159.714 367.873 159.871 367.178 159.929V159.929Z" fill="white"/>
<path d="M391.895 200.292C392.453 199.892 393.064 199.571 393.711 199.338C394.362 199.09 395.045 198.936 395.74 198.882C395.182 199.282 394.571 199.603 393.924 199.836C393.273 200.084 392.589 200.238 391.895 200.292V200.292Z" fill="white"/>
<path d="M359.355 182.982C359.912 182.578 360.523 182.257 361.172 182.028C361.822 181.779 362.506 181.625 363.201 181.572C362.648 181.974 362.039 182.295 361.395 182.526C360.741 182.775 360.054 182.929 359.355 182.982V182.982Z" fill="white"/>
<path d="M402.254 162.121C401.776 162.425 401.265 162.677 400.732 162.872C400.081 163.12 399.398 163.274 398.703 163.328C399.26 162.926 399.872 162.605 400.519 162.375C401.053 162.173 401.608 162.033 402.173 161.958C402.207 162.009 402.234 162.064 402.254 162.121V162.121Z" fill="white"/>
<path d="M372.857 200.292C373.416 199.892 374.027 199.571 374.674 199.338C375.325 199.09 376.008 198.936 376.703 198.882C376.145 199.282 375.533 199.603 374.887 199.836C374.236 200.084 373.552 200.238 372.857 200.292V200.292Z" fill="white"/>
<path d="M382.092 175.159C382.65 174.758 383.261 174.437 383.908 174.205C384.559 173.956 385.243 173.803 385.937 173.749C385.379 174.149 384.768 174.47 384.121 174.702C383.47 174.951 382.787 175.105 382.092 175.159Z" fill="white"/>
<path d="M373.376 138.428C373.376 138.428 373.427 138.428 373.376 138.428C373.021 141.198 372.361 147.631 376.745 147.56C378.526 147.364 380.213 146.659 381.605 145.53C383.049 144.512 384.376 143.338 385.562 142.03C386.944 140.61 388.206 139.08 389.337 137.453C389.337 137.382 389.489 137.453 389.438 137.535C388.292 139.158 387.307 140.873 385.998 142.385C384.754 143.868 383.313 145.176 381.717 146.271C380.234 147.422 378.436 148.094 376.562 148.199C375.75 148.183 374.968 147.887 374.35 147.359C373.732 146.832 373.316 146.107 373.173 145.307C372.724 143.028 372.793 140.677 373.376 138.428V138.428Z" fill="#263238"/>
<path d="M329.767 227.202L367.158 223.519L344.967 177.27L307.576 180.953L329.767 227.202Z" fill="#EBEBEB"/>
<path d="M327.207 227.455L364.597 223.772L342.406 177.523L305.016 181.206L327.207 227.455Z" fill="#C7C7C7"/>
<path d="M338.441 177.919C338.611 178.323 338.859 178.69 339.17 178.998C339.482 179.306 339.852 179.55 340.258 179.715C340.633 179.867 340.684 179.39 340.319 179.248C339.799 179.022 339.373 178.624 339.111 178.122C339.07 178.039 339.032 177.954 339 177.868C338.868 177.583 338.815 177.267 338.847 176.955C338.868 176.822 338.932 176.701 339.03 176.61V176.61H339.101C339.186 176.579 339.279 176.579 339.365 176.61C339.537 176.641 339.695 176.722 339.821 176.843C339.982 176.977 340.125 177.131 340.248 177.3C340.319 177.381 340.369 177.472 340.44 177.563V177.624C340.461 177.653 340.478 177.683 340.491 177.716C340.491 177.716 340.491 177.716 340.491 177.777L341.019 177.726C340.859 177.409 340.658 177.116 340.42 176.853C340.238 176.622 340.007 176.433 339.744 176.3C339.481 176.167 339.193 176.092 338.898 176.082C338.687 176.098 338.491 176.194 338.349 176.351C338.207 176.507 338.131 176.713 338.137 176.924C338.157 177.275 338.261 177.617 338.441 177.919V177.919Z" fill="#A6A6A6"/>
<path d="M335.508 178.204C335.848 179.015 336.493 179.66 337.304 180C337.68 180.162 337.731 179.685 337.355 179.533C336.835 179.307 336.409 178.91 336.148 178.407C336.148 178.326 336.067 178.234 336.036 178.153C335.912 177.869 335.863 177.558 335.894 177.25C335.913 177.117 335.974 176.992 336.067 176.895H336.198C336.284 176.869 336.376 176.869 336.462 176.895C336.63 176.937 336.786 177.017 336.919 177.128C337.079 177.264 337.219 177.421 337.335 177.595C337.407 177.673 337.472 177.758 337.528 177.849V177.91C337.551 177.937 337.572 177.968 337.589 178.001C337.589 178.001 337.589 178.001 337.589 178.062L338.126 178.011C337.967 177.694 337.766 177.401 337.528 177.138C337.344 176.906 337.112 176.716 336.847 176.583C336.582 176.45 336.292 176.376 335.996 176.367C335.785 176.388 335.589 176.487 335.448 176.645C335.307 176.803 335.231 177.008 335.234 177.22C335.248 177.564 335.342 177.901 335.508 178.204V178.204Z" fill="#A6A6A6"/>
<path d="M332.585 178.498C332.752 178.901 332.996 179.267 333.304 179.575C333.612 179.883 333.978 180.127 334.381 180.294C334.757 180.446 334.797 179.969 334.432 179.827C333.917 179.595 333.492 179.199 333.225 178.701C333.183 178.618 333.146 178.533 333.113 178.447C332.984 178.161 332.935 177.845 332.971 177.534C332.984 177.401 333.045 177.278 333.143 177.189V177.189H333.215C333.3 177.159 333.393 177.159 333.478 177.189C333.65 177.22 333.809 177.301 333.935 177.422C334.1 177.551 334.243 177.705 334.361 177.879C334.432 177.96 334.483 178.051 334.554 178.143V178.203C334.557 178.234 334.557 178.264 334.554 178.295C334.554 178.295 334.554 178.295 334.554 178.356L335.082 178.305C334.925 177.987 334.723 177.693 334.483 177.432C334.3 177.201 334.07 177.012 333.807 176.879C333.544 176.746 333.255 176.671 332.961 176.661C332.749 176.674 332.551 176.77 332.409 176.927C332.266 177.084 332.191 177.291 332.2 177.503C332.244 177.862 332.377 178.203 332.585 178.498V178.498Z" fill="#A6A6A6"/>
<path d="M329.655 178.781C329.995 179.593 330.64 180.238 331.451 180.577C331.826 180.73 331.877 180.253 331.502 180.111C330.985 179.885 330.562 179.487 330.304 178.984C330.259 178.904 330.221 178.819 330.193 178.731C330.062 178.449 330.01 178.137 330.041 177.828C330.057 177.691 330.122 177.565 330.223 177.472V177.472H330.294C330.381 177.452 330.471 177.452 330.558 177.472C330.726 177.515 330.882 177.595 331.015 177.706C331.177 177.839 331.317 177.996 331.431 178.173C331.503 178.251 331.568 178.336 331.624 178.426V178.487C331.647 178.515 331.668 178.546 331.684 178.578C331.684 178.578 331.684 178.578 331.684 178.639L332.212 178.589C332.053 178.272 331.851 177.979 331.613 177.716C331.431 177.485 331.2 177.296 330.937 177.163C330.675 177.03 330.386 176.955 330.091 176.945C329.881 176.96 329.684 177.057 329.542 177.213C329.4 177.37 329.325 177.576 329.33 177.787C329.355 178.14 329.466 178.482 329.655 178.781V178.781Z" fill="#A6A6A6"/>
<path d="M326.732 179.106C326.898 179.508 327.142 179.873 327.45 180.18C327.759 180.487 328.125 180.729 328.528 180.892C328.904 181.054 328.944 180.577 328.579 180.425C328.062 180.2 327.637 179.807 327.372 179.309C327.328 179.224 327.291 179.136 327.26 179.045C327.131 178.763 327.082 178.45 327.118 178.142C327.133 178.007 327.194 177.882 327.29 177.787V177.787H327.341H327.402C327.488 177.762 327.58 177.762 327.666 177.787C327.835 177.827 327.991 177.907 328.123 178.02C328.286 178.155 328.429 178.312 328.549 178.487C328.62 178.568 328.67 178.66 328.741 178.751V178.812C328.762 178.84 328.779 178.871 328.792 178.903C328.792 178.903 328.792 178.903 328.792 178.964H329.32C329.164 178.645 328.966 178.348 328.731 178.081C328.544 177.853 328.311 177.666 328.047 177.533C327.783 177.4 327.494 177.324 327.199 177.31C326.987 177.326 326.788 177.423 326.646 177.582C326.504 177.741 326.43 177.949 326.438 178.162C326.463 178.495 326.563 178.818 326.732 179.106V179.106Z" fill="#A6A6A6"/>
<path d="M323.8 179.36C324.139 180.171 324.784 180.816 325.596 181.156C325.971 181.308 326.022 180.831 325.656 180.689C325.137 180.463 324.711 180.065 324.449 179.562C324.403 179.482 324.366 179.397 324.337 179.309C324.206 179.024 324.153 178.708 324.185 178.396C324.202 178.262 324.267 178.139 324.368 178.051V178.051H324.439C324.525 178.025 324.617 178.025 324.703 178.051C324.871 178.091 325.028 178.171 325.159 178.284C325.319 178.418 325.463 178.572 325.585 178.741C325.652 178.824 325.713 178.913 325.768 179.004V179.065C325.792 179.093 325.812 179.124 325.829 179.157C325.829 179.157 325.829 179.157 325.829 179.218H326.357C326.197 178.901 325.996 178.607 325.758 178.345C325.575 178.114 325.345 177.925 325.082 177.792C324.819 177.658 324.53 177.584 324.236 177.574C324.025 177.589 323.828 177.686 323.687 177.842C323.545 177.999 323.469 178.205 323.475 178.416C323.507 178.752 323.619 179.075 323.8 179.36V179.36Z" fill="#A6A6A6"/>
<path d="M320.877 179.644C321.043 180.047 321.287 180.413 321.595 180.721C321.904 181.029 322.27 181.273 322.673 181.44C323.048 181.602 323.099 181.125 322.723 180.973C322.206 180.748 321.781 180.355 321.516 179.857L321.404 179.593C321.28 179.309 321.231 178.998 321.262 178.69C321.277 178.555 321.338 178.43 321.435 178.335V178.335H321.496C321.585 178.309 321.68 178.309 321.769 178.335C321.936 178.38 322.092 178.459 322.226 178.568C322.386 178.704 322.526 178.861 322.642 179.035C322.713 179.116 322.774 179.207 322.835 179.289V179.36C322.86 179.385 322.877 179.416 322.886 179.451C322.886 179.451 322.886 179.451 322.886 179.512L323.413 179.451C323.255 179.136 323.057 178.843 322.825 178.578C322.641 178.346 322.409 178.156 322.144 178.023C321.879 177.89 321.589 177.816 321.293 177.807C321.081 177.825 320.884 177.924 320.743 178.082C320.601 178.24 320.526 178.447 320.532 178.659C320.563 179.011 320.681 179.349 320.877 179.644V179.644Z" fill="#A6A6A6"/>
<path d="M317.932 179.938C318.274 180.748 318.919 181.392 319.728 181.734C320.103 181.886 320.154 181.409 319.789 181.267C319.269 181.041 318.843 180.644 318.581 180.141C318.54 180.058 318.503 179.974 318.47 179.887C318.338 179.602 318.286 179.287 318.318 178.974C318.334 178.841 318.399 178.718 318.5 178.629V178.629H318.571C318.657 178.604 318.749 178.604 318.835 178.629C319.007 178.661 319.166 178.742 319.292 178.863C319.452 178.997 319.595 179.15 319.718 179.319C319.789 179.4 319.84 179.492 319.911 179.583V179.644C319.934 179.672 319.955 179.703 319.972 179.735C319.972 179.735 319.972 179.735 319.972 179.796L320.499 179.745C320.34 179.429 320.138 179.135 319.901 178.873C319.718 178.641 319.487 178.453 319.224 178.319C318.962 178.186 318.673 178.112 318.379 178.102C318.168 178.117 317.971 178.213 317.829 178.37C317.688 178.527 317.612 178.732 317.617 178.944C317.644 179.295 317.752 179.635 317.932 179.938Z" fill="#A6A6A6"/>
<path d="M315.021 180.222C315.361 181.034 316.006 181.679 316.817 182.018C317.192 182.181 317.243 181.704 316.868 181.552C316.348 181.326 315.921 180.928 315.66 180.425C315.619 180.343 315.582 180.258 315.549 180.172C315.424 179.888 315.375 179.577 315.407 179.269C315.426 179.135 315.486 179.011 315.579 178.913H315.63H315.701C315.787 178.887 315.879 178.887 315.965 178.913C316.132 178.958 316.287 179.038 316.421 179.147C316.581 179.282 316.721 179.439 316.837 179.614C316.907 179.694 316.972 179.778 317.03 179.867V179.928C317.033 179.958 317.033 179.989 317.03 180.019C317.03 180.019 317.03 180.019 317.03 180.08H317.568C317.409 179.764 317.207 179.47 316.969 179.208C316.786 178.975 316.553 178.786 316.289 178.652C316.024 178.519 315.733 178.445 315.437 178.437C315.225 178.455 315.029 178.553 314.887 178.711C314.746 178.87 314.67 179.076 314.676 179.289C314.719 179.622 314.837 179.941 315.021 180.222Z" fill="#A6A6A6"/>
<path d="M312.099 180.517C312.434 181.327 313.076 181.973 313.885 182.313C314.26 182.465 314.311 181.988 313.946 181.846C313.428 181.617 313.003 181.22 312.738 180.72C312.697 180.637 312.66 180.552 312.627 180.466C312.495 180.181 312.443 179.865 312.475 179.553C312.495 179.421 312.559 179.299 312.657 179.208V179.208H312.728C312.814 179.178 312.907 179.178 312.992 179.208C313.164 179.239 313.323 179.32 313.449 179.441C313.611 179.573 313.755 179.727 313.875 179.898C313.946 179.979 313.997 180.07 314.068 180.162V180.222C314.088 180.251 314.105 180.281 314.118 180.314C314.118 180.314 314.118 180.314 314.118 180.375L314.646 180.324C314.489 180.006 314.288 179.712 314.047 179.451C313.865 179.22 313.634 179.031 313.371 178.898C313.108 178.765 312.82 178.691 312.525 178.68C312.314 178.693 312.115 178.789 311.973 178.946C311.831 179.104 311.756 179.31 311.764 179.522C311.793 179.876 311.908 180.217 312.099 180.517V180.517Z" fill="#A6A6A6"/>
<path d="M309.167 180.8C309.507 181.612 310.152 182.257 310.963 182.596C311.339 182.749 311.389 182.272 311.014 182.13C310.496 181.901 310.071 181.504 309.807 181.003C309.807 180.922 309.725 180.831 309.695 180.75C309.571 180.466 309.522 180.155 309.553 179.847C309.572 179.713 309.632 179.589 309.725 179.492V179.492H309.796C309.882 179.466 309.974 179.466 310.06 179.492C310.228 179.534 310.384 179.614 310.517 179.725C310.676 179.86 310.817 180.017 310.933 180.192C311.005 180.27 311.07 180.355 311.126 180.445V180.506C311.15 180.532 311.168 180.563 311.176 180.597C311.176 180.597 311.176 180.597 311.176 180.658L311.714 180.608C311.555 180.291 311.353 179.998 311.115 179.735C310.932 179.502 310.7 179.313 310.435 179.18C310.17 179.046 309.879 178.973 309.583 178.964C309.374 178.984 309.18 179.082 309.04 179.237C308.899 179.393 308.821 179.596 308.822 179.806C308.857 180.16 308.975 180.501 309.167 180.8Z" fill="#A6A6A6"/>
<path d="M306.244 181.136C306.41 181.539 306.654 181.905 306.962 182.213C307.271 182.521 307.637 182.766 308.04 182.932C308.415 183.084 308.456 182.607 308.09 182.465C307.575 182.233 307.15 181.837 306.883 181.339C306.84 181.254 306.802 181.165 306.771 181.075C306.642 180.793 306.593 180.48 306.629 180.172C306.642 180.04 306.704 179.917 306.802 179.827C306.802 179.827 306.802 179.827 306.802 179.827H306.873C306.959 179.802 307.05 179.802 307.137 179.827C307.307 179.867 307.465 179.951 307.593 180.07C307.758 180.2 307.902 180.354 308.019 180.527C308.09 180.608 308.141 180.7 308.212 180.791V180.852C308.233 180.88 308.25 180.911 308.263 180.943C308.263 180.943 308.263 180.943 308.263 181.004L308.791 180.953C308.631 180.634 308.43 180.337 308.192 180.07C308.009 179.839 307.779 179.65 307.516 179.517C307.253 179.384 306.964 179.31 306.67 179.299C306.457 179.315 306.259 179.413 306.117 179.572C305.975 179.731 305.9 179.939 305.909 180.152C305.94 180.502 306.054 180.84 306.244 181.136V181.136Z" fill="#A6A6A6"/>
<path d="M396.979 144.607C406.983 158.539 428.515 190.359 422.163 197.705C411.712 209.8 386.223 220.383 378.238 222.778C374.788 223.793 362.449 198.76 365.706 196.701C369.603 194.225 394.574 184.413 394.696 183.205C394.817 181.998 390.16 164.748 388.608 151.223C386.72 134.46 392.798 138.793 396.979 144.607Z" fill="#AD6359"/>
<path d="M378.256 194.945C378.256 194.945 367.754 191.901 360.793 190.176C356.907 189.233 350.098 188.208 346.933 188.817C342.184 189.73 322.936 196.589 324.498 201.297C325.909 205.559 341.748 197.563 341.748 197.563C341.748 197.563 325.097 204.219 327.745 209.029C330.393 213.839 347.024 202.444 347.024 202.444C347.024 202.444 330.079 209.668 333.59 214.204C336.248 217.623 351.905 208.116 351.905 208.116C351.905 208.116 337.374 214.427 339.952 218.06C342.803 222.118 357.8 214.244 357.8 214.244C365.917 222.362 372.949 223.478 378.276 222.747C379.473 222.605 378.256 194.945 378.256 194.945Z" fill="#AD6359"/>
<path d="M346.541 195.23C333.898 199.197 328.916 205.011 329.088 204.889C332.954 201.845 339.753 198.598 341.67 197.705C343.588 196.813 344.664 196.183 346.571 195.301C346.622 195.28 346.591 195.22 346.541 195.23Z" fill="#263238"/>
<path d="M350.637 201.744C345.458 203.128 340.568 205.427 336.198 208.532C336.046 208.654 336.137 208.694 336.32 208.603C338.724 207.406 348.242 202.9 350.698 201.835L350.637 201.744Z" fill="#263238"/>
<path d="M354.545 207.111C350.552 208.264 346.808 210.149 343.505 212.672C343.333 212.794 343.505 212.844 343.668 212.743C347.3 210.825 350.141 209.303 354.596 207.243C354.667 207.213 354.626 207.081 354.545 207.111Z" fill="#263238"/>
<path d="M373.387 192.825L387.44 222.809C387.44 222.809 420.924 204.747 423.491 196.254C426.059 187.762 403.198 150.442 396.308 142.822C389.419 135.201 387.176 138.326 387.328 147.022C387.481 155.718 394.36 182.79 394.188 183.287C394.015 183.784 373.387 192.825 373.387 192.825Z" fill="#20ACE9"/>
<path d="M397.312 173.749C397.075 175.105 396.491 176.378 395.617 177.442C395.723 176.763 395.928 176.103 396.226 175.484C396.498 174.854 396.864 174.269 397.312 173.749V173.749Z" fill="white"/>
<path d="M406.212 191.739C406.1 192.413 405.895 193.069 405.603 193.687C405.326 194.314 404.96 194.898 404.518 195.422C404.625 194.747 404.83 194.09 405.126 193.474C405.396 192.843 405.763 192.257 406.212 191.739V191.739Z" fill="white"/>
<path d="M382.093 201.744C381.985 202.421 381.783 203.08 381.494 203.702C381.212 204.329 380.843 204.913 380.398 205.437C380.635 204.08 381.219 202.808 382.093 201.744Z" fill="white"/>
<path d="M395.832 188.238C395.155 188.13 394.496 187.928 393.874 187.639C393.247 187.357 392.663 186.988 392.139 186.543C393.495 186.78 394.768 187.364 395.832 188.238V188.238Z" fill="white"/>
<path d="M393.336 213.605C392.657 213.498 391.998 213.293 391.378 212.996C390.752 212.716 390.168 212.351 389.643 211.911C390.999 212.147 392.272 212.731 393.336 213.605V213.605Z" fill="white"/>
<path d="M419.221 196.924C417.864 196.687 416.592 196.103 415.527 195.229C416.206 195.335 416.866 195.54 417.486 195.838C418.116 196.11 418.701 196.476 419.221 196.924V196.924Z" fill="white"/>
<path d="M411.672 168.391C410.993 168.284 410.334 168.079 409.714 167.782C409.084 167.51 408.499 167.144 407.979 166.697C409.335 166.933 410.608 167.517 411.672 168.391V168.391Z" fill="white"/>
<path d="M390.272 146.494C389.595 146.386 388.936 146.184 388.314 145.896C387.964 145.737 387.626 145.558 387.299 145.358C387.299 145.226 387.299 145.094 387.299 144.972C387.709 145.086 388.109 145.231 388.496 145.408C389.136 145.685 389.734 146.051 390.272 146.494Z" fill="white"/>
<path d="M395.76 149.751C396.16 150.31 396.481 150.921 396.714 151.568C396.962 152.219 397.116 152.902 397.17 153.597C396.768 153.044 396.447 152.435 396.216 151.791C395.967 151.137 395.813 150.45 395.76 149.751V149.751Z" fill="white"/>
<path d="M403.977 178.386C404.379 178.939 404.7 179.547 404.93 180.192C405.179 180.843 405.333 181.526 405.387 182.221C404.986 181.663 404.665 181.052 404.433 180.405C404.186 179.757 404.032 179.077 403.977 178.386V178.386Z" fill="white"/>
<path d="M403.27 204.158C403.673 204.716 403.998 205.327 404.233 205.974C404.482 206.626 404.636 207.309 404.69 208.004C404.284 207.453 403.962 206.844 403.736 206.198C403.483 205.544 403.326 204.857 403.27 204.158V204.158Z" fill="white"/>
<path d="M383.047 189.436C383.447 189.994 383.768 190.605 384.001 191.252C384.249 191.903 384.403 192.586 384.457 193.281C384.055 192.728 383.734 192.119 383.503 191.475C383.254 190.821 383.1 190.134 383.047 189.436V189.436Z" fill="white"/>
<path d="M391.895 200.292C392.453 199.892 393.064 199.571 393.711 199.338C394.362 199.09 395.045 198.936 395.74 198.882C395.182 199.282 394.571 199.603 393.924 199.836C393.273 200.084 392.589 200.238 391.895 200.292V200.292Z" fill="white"/>
<path d="M398.732 163.328C399.858 162.537 401.169 162.051 402.537 161.917C401.984 162.32 401.376 162.641 400.731 162.871C400.09 163.117 399.417 163.271 398.732 163.328Z" fill="white"/>
<path d="M414.877 184.18C415.43 183.778 416.039 183.456 416.683 183.226C417.334 182.977 418.018 182.824 418.712 182.77C418.159 183.172 417.551 183.493 416.906 183.723C416.255 183.971 415.572 184.125 414.877 184.18V184.18Z" fill="white"/>
<path d="M376.676 198.882C376.565 198.965 376.45 199.043 376.331 199.115L376.25 198.933C376.391 198.906 376.533 198.889 376.676 198.882V198.882Z" fill="white"/>
<path d="M391.691 170.502C391.244 168.472 390.798 166.443 390.361 164.413C390.148 163.399 389.925 162.293 389.692 161.238L389.357 159.776C389.306 159.543 389.225 159.299 389.184 159.056C389.042 158.163 389.184 158.954 388.941 158.092C388.941 158.031 388.839 158.092 388.839 158.092C388.9 158.65 388.789 158.427 388.89 158.853C388.992 159.279 389.012 159.482 389.063 159.807C389.134 160.304 389.215 160.821 389.286 161.288C389.448 162.303 389.631 163.318 389.824 164.332C389.824 164.464 389.824 164.596 389.905 164.728C389.909 164.694 389.909 164.66 389.905 164.627C389.54 163.531 389.154 162.455 388.768 161.369H388.687C388.951 162.496 389.245 163.602 389.611 164.698C389.814 165.327 390.067 165.946 390.311 166.554C390.574 167.894 390.838 169.233 391.112 170.613C391.985 174.743 392.888 178.893 394.085 182.941C392.33 183.743 390.544 184.463 388.789 185.275C387.033 186.087 385.288 186.919 383.533 187.751C381.777 188.583 380.042 189.405 378.307 190.257L375.77 191.465C374.877 191.921 374.025 192.479 373.122 192.916C373.031 192.916 373.122 193.088 373.203 193.048C374.147 192.611 375.151 192.307 376.095 191.891C377.039 191.475 377.769 191.181 378.601 190.805C380.367 190.014 382.122 189.192 383.878 188.37C385.633 187.548 387.388 186.736 389.134 185.894C390.879 185.052 392.573 184.129 394.309 183.286C394.415 183.19 394.486 183.062 394.511 182.921C393.679 178.771 392.624 174.641 391.691 170.502Z" fill="#263238"/>
<path d="M387.358 204.656C386.344 202.484 382.072 193.819 380.844 191.749H380.783C381.554 193.951 385.501 202.616 386.547 204.798C388.522 209.204 390.738 213.499 393.183 217.664C393.183 217.735 393.365 217.664 393.325 217.603C391.63 213.169 389.428 208.938 387.358 204.656Z" fill="#263238"/>
<path d="M411.569 207.974C410.798 208.421 410.078 208.989 409.347 209.466L407.074 211.038C405.607 212.109 404.086 213.104 402.519 214.022C402.427 214.022 402.519 214.204 402.6 214.153C404.203 213.24 405.837 212.388 407.389 211.383C408.929 210.447 410.358 209.341 411.651 208.086C411.661 208.074 411.667 208.058 411.667 208.042C411.668 208.027 411.663 208.011 411.654 207.998C411.645 207.985 411.631 207.976 411.616 207.971C411.601 207.967 411.584 207.968 411.569 207.974Z" fill="#263238"/>
<path d="M376.786 144.607C379.901 145.125 385.512 139.656 387.348 135.719C387.47 135.445 386.892 132.675 386.334 129.387C386.009 127.358 385.694 125.095 385.552 123.005C385.552 122.579 384.122 123.462 384.122 123.462L381.463 124.294L372.666 127.043C373.584 129.606 374.187 132.27 374.462 134.978C374.488 135.265 374.488 135.554 374.462 135.841C374.462 135.841 374.462 135.932 374.462 135.993C374.239 137.606 373.742 144.059 376.786 144.607Z" fill="#AD6359"/>
<path d="M374.401 135.81C374.401 135.81 374.401 135.902 374.401 135.962C374.853 135.997 375.308 135.997 375.76 135.962C384.558 135.181 384.892 123.898 384.892 123.898L381.422 124.284L372.625 127.033C373.543 129.596 374.146 132.26 374.421 134.968C374.439 135.249 374.432 135.531 374.401 135.81V135.81Z" fill="#263238"/>
<path d="M386.811 108.921C388.292 113.558 386.019 127.033 382.752 130.077C378.003 134.481 370.16 134.998 366.385 129.286C362.732 123.735 366.01 106.232 369.673 103.452C375.071 99.373 384.629 102.072 386.811 108.921Z" fill="#AD6359"/>
<path d="M373.74 117.82C373.74 117.82 373.811 117.881 373.801 117.912C373.619 118.815 373.568 119.88 374.339 120.316C374.339 120.316 374.339 120.377 374.339 120.367C373.294 120.063 373.375 118.652 373.74 117.82Z" fill="#263238"/>
<path d="M374.666 117.008C376.137 117.14 375.772 120.052 374.402 119.961C373.032 119.869 373.418 116.896 374.666 117.008Z" fill="#263238"/>
<path d="M368.527 117.007C368.527 117.007 368.456 117.007 368.456 117.078C368.364 117.992 368.111 119.037 367.248 119.229V119.29C368.283 119.24 368.598 117.89 368.527 117.007Z" fill="#263238"/>
<path d="M367.837 115.952C366.375 115.658 365.899 118.591 367.248 118.864C368.598 119.138 369.054 116.196 367.837 115.952Z" fill="#263238"/>
<path d="M375.992 115.801C375.618 115.64 375.253 115.46 374.897 115.263C374.482 115.126 374.125 114.855 373.882 114.492C373.826 114.364 373.815 114.222 373.85 114.088C373.885 113.954 373.964 113.835 374.075 113.751C374.313 113.612 374.585 113.539 374.861 113.539C375.137 113.539 375.409 113.612 375.647 113.751C376.173 113.97 376.597 114.379 376.835 114.897C376.894 115.018 376.916 115.153 376.896 115.286C376.877 115.419 376.818 115.542 376.726 115.641C376.635 115.739 376.515 115.807 376.384 115.835C376.253 115.864 376.116 115.852 375.992 115.801Z" fill="#263238"/>
<path d="M366.883 114.329C367.299 114.329 367.674 114.228 368.09 114.167C368.523 114.173 368.944 114.033 369.288 113.771C369.383 113.67 369.441 113.54 369.452 113.401C369.463 113.263 369.427 113.125 369.349 113.01C369.166 112.8 368.93 112.644 368.665 112.558C368.401 112.472 368.118 112.46 367.847 112.523C367.279 112.559 366.746 112.809 366.355 113.223C366.271 113.322 366.216 113.442 366.199 113.571C366.182 113.7 366.203 113.831 366.259 113.948C366.315 114.065 366.403 114.164 366.514 114.231C366.625 114.299 366.753 114.333 366.883 114.329V114.329Z" fill="#263238"/>
<path d="M373.884 126.099C373.63 126.292 373.376 126.556 373.041 126.546C372.702 126.496 372.377 126.375 372.088 126.191C372.088 126.191 372.027 126.191 372.088 126.191C372.193 126.388 372.351 126.553 372.545 126.666C372.738 126.779 372.959 126.835 373.183 126.83C373.374 126.801 373.552 126.72 373.697 126.594C373.843 126.468 373.95 126.304 374.005 126.12C373.985 126.099 373.914 126.079 373.884 126.099Z" fill="#263238"/>
<path d="M373.254 123.298C372.978 123.63 372.637 123.902 372.251 124.096C371.865 124.289 371.443 124.401 371.012 124.425C370.634 124.45 370.255 124.419 369.886 124.333C369.813 124.326 369.741 124.309 369.673 124.283H369.48C369.433 124.266 369.393 124.236 369.364 124.196C369.335 124.156 369.319 124.109 369.318 124.059V124.059C369.318 124.059 369.318 123.998 369.318 123.968V123.887C369.378 123.187 369.581 122.121 369.581 122.121C369.307 122.223 367.927 122.649 367.988 122.284C368.469 119.123 369.268 116.019 370.373 113.02C370.373 112.998 370.381 112.977 370.397 112.962C370.412 112.947 370.432 112.938 370.454 112.938C370.476 112.938 370.496 112.947 370.511 112.962C370.527 112.977 370.535 112.998 370.535 113.02C370.109 115.942 369.175 118.773 368.709 121.705C369.2 121.54 369.713 121.451 370.231 121.441C370.322 121.441 369.805 123.471 369.794 123.806C370.364 123.935 370.954 123.948 371.529 123.845C372.104 123.742 372.653 123.525 373.143 123.207C373.254 123.116 373.325 123.187 373.254 123.298Z" fill="#263238"/>
<path d="M370.344 123.979C370.672 124.542 371.145 125.008 371.714 125.328C372.022 125.5 372.378 125.567 372.728 125.521C373.489 125.419 373.591 124.75 373.52 124.161C373.49 123.849 373.418 123.542 373.307 123.248C372.425 123.807 371.385 124.064 370.344 123.979V123.979Z" fill="#263238"/>
<path d="M371.713 125.328C372.022 125.5 372.377 125.567 372.728 125.521C373.489 125.419 373.59 124.75 373.519 124.161C373.13 124.121 372.739 124.214 372.41 124.426C372.082 124.639 371.836 124.957 371.713 125.328V125.328Z" fill="#FF98B9"/>
<path d="M366.985 109.357C371.277 112.635 377.599 108.343 377.599 108.343C377.928 109.33 378.566 110.185 379.42 110.781C380.274 111.377 381.297 111.682 382.337 111.65C382.337 111.65 382.834 119.22 384.813 119.311C387.857 119.443 389.298 109.225 388.446 107.135C388.1 106.471 387.621 105.887 387.037 105.419C386.454 104.95 385.779 104.609 385.057 104.416C384.831 103.198 384.153 102.111 383.159 101.372C381.13 99.6873 373.946 101.453 373.946 101.453C373.586 100.479 373.002 99.6026 372.241 98.8959C372.06 98.7199 371.845 98.5825 371.61 98.492C371.374 98.4015 371.122 98.3597 370.87 98.3692C370.618 98.3786 370.37 98.4392 370.142 98.5472C369.913 98.6552 369.709 98.8083 369.542 98.9973C369.888 99.5762 370.103 100.224 370.171 100.895C370.415 103.117 368.609 103.026 368.73 101.027C368.749 100.275 369.037 99.5545 369.542 98.9973C368.72 97.6478 367.29 97.1506 366.376 97.8C364.712 98.9466 363.413 106.638 366.985 109.357Z" fill="#263238"/>
<path d="M384.093 119.91C384.093 119.91 387.137 115.588 389.166 116.683C391.196 117.779 388.801 124.07 386.478 124.912C386.187 125.043 385.874 125.113 385.556 125.118C385.238 125.123 384.922 125.064 384.628 124.943C384.334 124.823 384.067 124.644 383.844 124.417C383.622 124.19 383.447 123.92 383.332 123.624L384.093 119.91Z" fill="#AD6359"/>
<path d="M374.34 135.728L377.536 143.43L387.044 133.537L389.804 136.642C389.804 136.642 380.58 152.308 380.509 151.608L377.242 144.972L372.727 149.68L372.96 138.032L374.34 135.728Z" fill="white"/>
<path d="M372.484 143.896C372.595 141.968 372.646 140.03 372.839 138.123C372.839 138.052 372.95 138.021 372.971 138.123C373.376 139.969 372.971 147.316 372.971 149.081C373.163 148.878 377.192 144.951 377.232 145.023C377.943 146.037 380.337 150.897 380.5 151.344C381.961 148.858 387.552 139.807 389.287 137.453C389.337 137.382 389.449 137.453 389.408 137.514C388.12 140.142 380.713 152.318 380.601 152.288C379.341 150.011 378.2 147.671 377.182 145.276C376.502 146.129 372.443 150.563 372.423 150.268C372.335 148.145 372.355 146.018 372.484 143.896V143.896Z" fill="#263238"/>
</svg>
