<svg width="35" height="35" viewBox="0 0 35 35" fill="none" xmlns="http://www.w3.org/2000/svg">
<path d="M17.5 21.875C19.9162 21.875 21.875 19.9162 21.875 17.5C21.875 15.0838 19.9162 13.125 17.5 13.125C15.0838 13.125 13.125 15.0838 13.125 17.5C13.125 19.9162 15.0838 21.875 17.5 21.875Z" stroke="white" stroke-width="2" stroke-linecap="round" stroke-linejoin="round"/>
<path d="M28.2923 21.8747C28.0982 22.3145 28.0403 22.8025 28.1261 23.2755C28.2118 23.7486 28.4374 24.1851 28.7736 24.5288L28.8611 24.6163C29.1322 24.8872 29.3474 25.2089 29.4942 25.563C29.6409 25.9171 29.7165 26.2966 29.7165 26.6799C29.7165 27.0632 29.6409 27.4427 29.4942 27.7968C29.3474 28.1509 29.1322 28.4725 28.8611 28.7434C28.5902 29.0146 28.2685 29.2297 27.9144 29.3765C27.5604 29.5233 27.1808 29.5988 26.7975 29.5988C26.4142 29.5988 26.0347 29.5233 25.6806 29.3765C25.3265 29.2297 25.0049 29.0146 24.734 28.7434L24.6465 28.6559C24.3028 28.3197 23.8663 28.0942 23.3932 28.0084C22.9201 27.9226 22.4322 27.9805 21.9923 28.1747C21.561 28.3595 21.1931 28.6665 20.934 29.0577C20.6749 29.449 20.5359 29.9075 20.534 30.3768V30.6247C20.534 31.3982 20.2267 32.1401 19.6797 32.6871C19.1327 33.234 18.3909 33.5413 17.6173 33.5413C16.8438 33.5413 16.1019 33.234 15.5549 32.6871C15.0079 32.1401 14.7007 31.3982 14.7007 30.6247V30.4934C14.6894 30.0107 14.5331 29.5426 14.2522 29.1499C13.9713 28.7571 13.5788 28.458 13.1257 28.2913C12.6858 28.0972 12.1979 28.0393 11.7248 28.1251C11.2517 28.2109 10.8152 28.4364 10.4715 28.7726L10.384 28.8601C10.1131 29.1313 9.79143 29.3464 9.43735 29.4932C9.08327 29.64 8.70374 29.7155 8.32044 29.7155C7.93715 29.7155 7.55761 29.64 7.20353 29.4932C6.84946 29.3464 6.52778 29.1313 6.2569 28.8601C5.98572 28.5892 5.77059 28.2675 5.62381 27.9135C5.47703 27.5594 5.40148 27.1798 5.40148 26.7965C5.40148 26.4133 5.47703 26.0337 5.62381 25.6796C5.77059 25.3256 5.98572 25.0039 6.2569 24.733L6.3444 24.6455C6.6806 24.3018 6.90613 23.8653 6.99191 23.3922C7.07768 22.9191 7.01978 22.4312 6.82565 21.9913C6.64079 21.56 6.33384 21.1921 5.94258 20.933C5.55132 20.6739 5.09284 20.5349 4.62357 20.533H4.37565C3.6021 20.533 2.86024 20.2257 2.31326 19.6787C1.76628 19.1318 1.45898 18.3899 1.45898 17.6163C1.45898 16.8428 1.76628 16.1009 2.31326 15.5539C2.86024 15.007 3.6021 14.6997 4.37565 14.6997H4.5069C4.9896 14.6884 5.45774 14.5321 5.85046 14.2513C6.24318 13.9704 6.54232 13.5778 6.70898 13.1247C6.90311 12.6848 6.96102 12.1969 6.87524 11.7238C6.78946 11.2507 6.56393 10.8142 6.22773 10.4705L6.14023 10.383C5.86905 10.1121 5.65392 9.79045 5.50714 9.43637C5.36036 9.0823 5.28481 8.70276 5.28481 8.31947C5.28481 7.93617 5.36036 7.55663 5.50714 7.20256C5.65392 6.84848 5.86905 6.5268 6.14023 6.25592C6.41111 5.98474 6.73279 5.76961 7.08687 5.62283C7.44094 5.47605 7.82048 5.4005 8.20378 5.4005C8.58707 5.4005 8.96661 5.47605 9.32068 5.62283C9.67476 5.76961 9.99644 5.98474 10.2673 6.25592L10.3548 6.34342C10.6985 6.67962 11.135 6.90515 11.6081 6.99093C12.0812 7.07671 12.5691 7.0188 13.009 6.82467H13.1257C13.557 6.63981 13.9248 6.33286 14.184 5.9416C14.4431 5.55035 14.5821 5.09186 14.584 4.62259V4.37467C14.584 3.60113 14.8913 2.85926 15.4383 2.31228C15.9852 1.7653 16.7271 1.45801 17.5007 1.45801C18.2742 1.45801 19.0161 1.7653 19.563 2.31228C20.11 2.85926 20.4173 3.60113 20.4173 4.37467V4.50592C20.4192 4.9752 20.5582 5.43368 20.8173 5.82494C21.0765 6.21619 21.4443 6.52314 21.8756 6.70801C22.3155 6.90213 22.8034 6.96004 23.2765 6.87426C23.7496 6.78849 24.1861 6.56296 24.5298 6.22676L24.6173 6.13926C24.8882 5.86808 25.2099 5.65295 25.5639 5.50617C25.918 5.35939 26.2976 5.28384 26.6809 5.28384C27.0642 5.28384 27.4437 5.35939 27.7978 5.50617C28.1518 5.65295 28.4735 5.86808 28.7444 6.13926C29.0156 6.41014 29.2307 6.73181 29.3775 7.08589C29.5243 7.43997 29.5998 7.8195 29.5998 8.2028C29.5998 8.58609 29.5243 8.96563 29.3775 9.31971C29.2307 9.67379 29.0156 9.99546 28.7444 10.2663L28.6569 10.3538C28.3207 10.6975 28.0952 11.1341 28.0094 11.6071C27.9236 12.0802 27.9815 12.5682 28.1756 13.008V13.1247C28.3605 13.556 28.6675 13.9239 29.0587 14.183C29.45 14.4421 29.9085 14.5811 30.3777 14.583H30.6256C31.3992 14.583 32.1411 14.8903 32.688 15.4373C33.235 15.9843 33.5423 16.7261 33.5423 17.4997C33.5423 18.2732 33.235 19.0151 32.688 19.5621C32.1411 20.109 31.3992 20.4163 30.6256 20.4163H30.4944C30.0251 20.4182 29.5666 20.5573 29.1754 20.8164C28.7841 21.0755 28.4772 21.4433 28.2923 21.8747V21.8747Z" stroke="white" stroke-width="2" stroke-linecap="round" stroke-linejoin="round"/>
</svg>
